# 3ds Max Wavefront OBJ Exporter v0.97b - (c)2007 guruware
# File Created: 11.10.2014 15:46:46

mtllib InnerRadius.mtl

#
# object SM_InnerRadius_1_E_Texture
#

v  9.8426 -7.8740 -9.8425
v  -9.8426 -7.8740 -9.8425
v  -9.8425 0.0000 -9.8425
v  9.8426 0.0000 -9.8425
v  9.8426 -7.8740 9.8425
v  -9.8425 -7.8740 9.8425
v  9.8426 0.0000 9.8425
v  -9.8426 74.8031 9.8425
v  -9.8426 74.8031 -1.9685
v  -9.8426 43.3071 -1.9685
v  -9.8426 43.3071 9.8425
v  1.9686 74.8032 -1.9685
v  1.9686 43.3071 -1.9685
v  1.9685 43.3071 9.8425
v  1.9685 74.8032 9.8425
v  9.8426 125.9843 -9.8425
v  9.8426 118.1103 -9.8425
v  -9.8426 118.1102 -9.8425
v  -9.8426 125.9843 -9.8425
v  9.8426 125.9843 9.8425
v  9.8426 118.1102 9.8425
v  -9.8426 7.8740 -1.9685
v  -9.8426 7.8740 9.8425
v  -9.8426 110.2362 9.8425
v  -9.8426 110.2362 -1.9685
v  1.9686 7.8740 -1.9685
v  1.9686 110.2362 -1.9685
v  1.9685 110.2362 9.8425
v  1.9685 7.8740 9.8425
v  -9.8425 125.9843 9.8425
v  -9.8425 118.1102 9.8425
v  -9.8425 0.0000 9.8425
v  -25.4705 -7.8740 -9.8425
v  -45.1556 -7.8740 -9.8425
v  -45.1556 0.0000 -9.8425
v  -25.4705 0.0000 -9.8425
v  -25.4705 -7.8740 9.8425
v  -45.1556 -7.8740 9.8425
v  -25.4705 0.0000 9.8425
v  -45.1555 74.8031 9.8426
v  -45.1555 106.2992 9.8426
v  -45.1555 106.2992 -1.9684
v  -45.1555 74.8031 -1.9684
v  -33.3444 106.2992 -1.9684
v  -33.3444 74.8031 -1.9684
v  -33.3445 137.7952 9.8427
v  -33.3445 106.2992 9.8427
v  -33.3444 137.7952 -1.9683
v  -25.4704 220.4724 -9.8422
v  -25.4704 212.5984 -9.8422
v  -45.1555 212.5983 -9.8422
v  -45.1555 220.4724 -9.8422
v  -25.4704 220.4724 9.8428
v  -25.4704 212.5983 9.8428
v  -45.1556 43.3071 9.8425
v  -45.1556 43.3071 -1.9685
v  -45.1556 7.8740 -1.9685
v  -45.1556 7.8740 9.8425
v  -45.1555 169.2912 -1.9682
v  -45.1555 169.2912 9.8428
v  -45.1555 204.7243 9.8428
v  -45.1555 204.7243 -1.9682
v  -33.3445 43.3071 -1.9685
v  -33.3445 7.8740 -1.9685
v  -33.3444 169.2913 -1.9682
v  -33.3444 204.7243 -1.9682
v  -33.3445 169.2913 9.8428
v  -33.3445 204.7243 9.8428
v  -33.3446 43.3071 9.8425
v  -33.3446 7.8740 9.8425
v  -45.1555 220.4724 9.8428
v  -45.1555 212.5983 9.8428
v  -45.1555 0.0000 9.8425
v  -45.1555 137.7952 9.8427
v  -45.1555 137.7952 -1.9683
v  -33.3445 74.8031 9.8426
v  -59.4451 -7.8739 -9.8424
v  -79.1302 -7.8739 -9.8424
v  -79.1302 0.0001 -9.8424
v  -59.4451 0.0001 -9.8424
v  -59.4451 -7.8739 9.8426
v  -79.1302 -7.8739 9.8426
v  -59.4451 0.0001 9.8426
v  -79.1302 137.7952 9.8426
v  -79.1302 169.2912 9.8427
v  -79.1302 169.2913 -1.9683
v  -79.1302 137.7952 -1.9683
v  -67.3191 169.2913 -1.9683
v  -67.3191 137.7953 -1.9683
v  -67.3192 169.2913 9.8427
v  -67.3192 137.7953 9.8427
v  -59.4451 314.9605 -9.8422
v  -59.4451 307.0865 -9.8422
v  -79.1301 307.0864 -9.8422
v  -79.1301 314.9605 -9.8422
v  -59.4450 314.9605 9.8428
v  -59.4450 307.0864 9.8428
v  -79.1302 43.3072 9.8425
v  -79.1302 43.3072 -1.9684
v  -79.1302 7.8741 -1.9684
v  -79.1302 7.8741 9.8425
v  -79.1302 263.7793 -1.9682
v  -79.1302 263.7793 9.8428
v  -79.1301 299.2124 9.8428
v  -79.1301 299.2124 -1.9682
v  -67.3191 43.3072 -1.9684
v  -67.3191 7.8741 -1.9684
v  -67.3190 263.7794 -1.9682
v  -67.3190 299.2124 -1.9682
v  -67.3192 263.7794 9.8428
v  -67.3191 299.2124 9.8428
v  -67.3192 43.3072 9.8426
v  -67.3192 7.8741 9.8426
v  -79.1301 314.9605 9.8428
v  -79.1301 307.0864 9.8428
v  -79.1302 0.0001 9.8426
v  -79.1302 232.2833 9.8427
v  -79.1302 232.2833 -1.9682
v  -79.1302 200.7873 9.8427
v  -79.1302 200.7873 -1.9683
v  -79.1302 74.8032 -1.9684
v  -79.1302 74.8032 9.8426
v  -79.1302 106.2992 -1.9684
v  -79.1302 106.2992 9.8426
v  -67.3191 232.2834 -1.9682
v  -67.3191 200.7874 -1.9683
v  -67.3191 74.8032 -1.9684
v  -67.3191 106.2992 -1.9684
v  -67.3192 74.8032 9.8426
v  -67.3192 106.2992 9.8426
v  -67.3192 232.2834 9.8428
v  -67.3192 200.7874 9.8427
v  -100.4087 -7.8738 -9.8424
v  -120.0938 -7.8738 -9.8424
v  -120.0938 0.0002 -9.8424
v  -100.4087 0.0002 -9.8424
v  -100.4087 -7.8738 9.8426
v  -120.0938 -7.8738 9.8426
v  -100.4087 0.0002 9.8426
v  -120.0938 169.2914 9.8426
v  -120.0938 200.7874 9.8426
v  -120.0938 200.7874 -1.9684
v  -120.0938 169.2914 -1.9684
v  -108.2827 200.7874 -1.9684
v  -108.2827 169.2914 -1.9684
v  -108.2828 232.2835 9.8427
v  -108.2828 200.7874 9.8427
v  -108.2827 232.2835 -1.9683
v  -100.4087 409.4487 -9.8423
v  -100.4087 401.5747 -9.8423
v  -120.0938 401.5746 -9.8423
v  -120.0938 409.4487 -9.8423
v  -100.4087 409.4487 9.8427
v  -100.4087 401.5746 9.8427
v  -120.0938 43.3073 9.8425
v  -120.0938 43.3073 -1.9684
v  -120.0938 7.8742 -1.9684
v  -120.0938 7.8742 9.8425
v  -120.0938 358.2675 -1.9683
v  -120.0938 358.2675 9.8427
v  -120.0938 393.7006 9.8427
v  -120.0938 393.7006 -1.9683
v  -108.2827 43.3073 -1.9684
v  -108.2827 7.8742 -1.9684
v  -108.2827 358.2676 -1.9683
v  -108.2827 393.7006 -1.9683
v  -108.2828 358.2676 9.8427
v  -108.2828 393.7006 9.8427
v  -108.2828 43.3073 9.8426
v  -108.2828 7.8742 9.8426
v  -120.0938 409.4487 9.8427
v  -120.0938 401.5746 9.8427
v  -120.0938 0.0002 9.8426
v  -120.0938 232.2834 9.8427
v  -120.0938 326.7715 9.8427
v  -120.0938 326.7714 -1.9683
v  -120.0938 295.2754 9.8427
v  -120.0938 295.2754 -1.9683
v  -120.0938 263.7794 9.8427
v  -120.0938 263.7794 -1.9683
v  -120.0938 232.2834 -1.9683
v  -120.0938 74.8033 -1.9684
v  -120.0938 74.8033 9.8426
v  -120.0938 106.2993 -1.9684
v  -120.0938 106.2993 9.8426
v  -120.0938 137.7953 -1.9684
v  -120.0938 137.7953 9.8426
v  -108.2827 326.7715 -1.9683
v  -108.2827 295.2755 -1.9683
v  -108.2827 263.7795 -1.9683
v  -108.2827 74.8033 -1.9684
v  -108.2827 106.2993 -1.9684
v  -108.2827 137.7954 -1.9684
v  -108.2828 74.8033 9.8426
v  -108.2828 106.2993 9.8426
v  -108.2828 137.7954 9.8426
v  -108.2828 169.2914 9.8426
v  -108.2828 326.7715 9.8427
v  -108.2828 295.2755 9.8427
v  -108.2828 263.7795 9.8427
# 200 vertices

vn 0.5774 -0.5774 -0.5774
vn 0.0000 -0.7071 -0.7071
vn 0.0000 0.0000 -1.0000
vn 0.7071 0.0000 -0.7071
vn 0.7071 -0.7071 -0.0000
vn 0.0000 -1.0000 -0.0000
vn 1.0000 0.0000 -0.0000
vn -1.0000 0.0000 -0.0000
vn -0.7071 0.0000 -0.7071
vn 1.0000 0.0000 0.0000
vn 0.7071 0.7071 0.0000
vn 0.7071 0.7071 -0.0000
vn 0.0000 0.7071 -0.7071
vn 0.7071 -0.7071 0.0000
vn 0.0000 1.0000 -0.0000
vn -1.0000 0.0000 0.0000
vn 0.0000 0.0000 1.0000
vn -1.0000 -0.0000 -0.0000
vn 1.0000 -0.0000 0.0000
vn -0.0000 -0.0000 1.0000
vn -1.0000 -0.0000 0.0000
vn 0.0000 -0.0000 1.0000
vn 0.7071 -0.0000 -0.7071
vn -0.0000 0.0000 1.0000
# 24 vertex normals

vt 0.7334 0.0019 0.0000
vt 0.3739 0.0000 0.0000
vt 0.3731 0.1438 0.0000
vt 0.7326 0.1457 0.0000
vt 0.9464 0.0001 0.0000
vt 0.9849 0.0000 0.0000
vt 0.9850 0.0385 0.0000
vt 0.9465 0.0386 0.0000
vt 0.7332 0.0018 0.0000
vt 0.7325 0.1456 0.0000
vt 0.3730 0.1438 0.0000
vt 0.3737 0.0000 0.0000
vt 0.9468 0.2002 0.0000
vt 0.9237 0.2003 0.0000
vt 0.9236 0.1387 0.0000
vt 0.9467 0.1387 0.0000
vt 0.9071 0.9966 0.0000
vt 0.6914 0.9966 0.0000
vt 0.6914 0.4214 0.0000
vt 0.9071 0.4214 0.0000
vt 0.3654 0.9936 0.0000
vt 0.3646 0.8498 0.0000
vt 0.0051 0.8517 0.0000
vt 0.0059 0.9955 0.0000
vt 0.3652 0.9936 0.0000
vt 0.0057 0.9954 0.0000
vt 0.0050 0.8516 0.0000
vt 0.3644 0.8498 0.0000
vt 0.9235 0.0694 0.0000
vt 0.9466 0.0694 0.0000
vt 0.9468 0.2695 0.0000
vt 0.9237 0.2695 0.0000
vt 0.3680 0.9941 0.0000
vt 0.5837 0.9955 0.0000
vt 0.5877 0.3483 0.0000
vt 0.3720 0.3471 0.0000
vt 0.2157 0.0000 0.0000
vt 0.0000 0.0013 0.0000
vt 0.0040 0.6484 0.0000
vt 0.2197 0.6471 0.0000
vt 0.2196 0.6471 0.0000
vt 0.0039 0.6483 0.0000
vt 0.5836 0.9954 0.0000
vt 0.3719 0.3471 0.0000
vt 0.5876 0.3483 0.0000
vt 0.9852 0.3003 0.0000
vt 0.9852 0.3388 0.0000
vt 0.9467 0.3388 0.0000
vt 0.9467 0.3003 0.0000
vt 0.9468 0.2849 0.0000
vt 0.9083 0.3003 0.0000
vt 0.9083 0.2849 0.0000
vt 0.9852 0.2849 0.0000
vt 0.9080 0.0541 0.0000
vt 0.9080 0.0387 0.0000
vt 0.9465 0.0540 0.0000
vt 0.9850 0.0539 0.0000
vt 0.9699 0.2002 0.0000
vt 0.9699 0.2695 0.0000
vt 0.9698 0.1386 0.0000
vt 0.9697 0.0693 0.0000
vt 0.7331 0.0019 0.0000
vt 0.3736 0.0000 0.0000
vt 0.3729 0.1438 0.0000
vt 0.7324 0.1457 0.0000
vt 0.9483 0.0000 0.0000
vt 0.9868 0.0000 0.0000
vt 0.9868 0.0385 0.0000
vt 0.9483 0.0385 0.0000
vt 0.7331 0.0017 0.0000
vt 0.7324 0.1456 0.0000
vt 0.9482 0.2002 0.0000
vt 0.9480 0.2617 0.0000
vt 0.9249 0.2617 0.0000
vt 0.9251 0.2001 0.0000
vt 0.3653 0.9935 0.0000
vt 0.0058 0.9955 0.0000
vt 0.0050 0.8517 0.0000
vt 0.3645 0.8497 0.0000
vt 0.9483 0.1386 0.0000
vt 0.9252 0.1386 0.0000
vt 0.9252 0.0693 0.0000
vt 0.9483 0.0693 0.0000
vt 0.9242 0.3848 0.0000
vt 0.9473 0.3849 0.0000
vt 0.9467 0.4542 0.0000
vt 0.9237 0.4540 0.0000
vt 0.3680 0.9942 0.0000
vt 0.5837 0.9954 0.0000
vt 0.5875 0.3483 0.0000
vt 0.3718 0.3471 0.0000
vt 0.0039 0.6484 0.0000
vt 0.9850 0.4853 0.0000
vt 0.9847 0.5238 0.0000
vt 0.9462 0.5235 0.0000
vt 0.9465 0.4850 0.0000
vt 0.9466 0.4696 0.0000
vt 0.9080 0.4847 0.0000
vt 0.9081 0.4693 0.0000
vt 0.9851 0.4699 0.0000
vt 0.9098 0.0539 0.0000
vt 0.9098 0.0385 0.0000
vt 0.9483 0.0539 0.0000
vt 0.9868 0.0539 0.0000
vt 0.9704 0.3851 0.0000
vt 0.9698 0.4544 0.0000
vt 0.9477 0.3233 0.0000
vt 0.9711 0.2618 0.0000
vt 0.9708 0.3235 0.0000
vt 0.9714 0.0693 0.0000
vt 0.9714 0.1386 0.0000
vt 0.9246 0.3232 0.0000
vt 0.9713 0.2002 0.0000
vt 0.7331 0.0018 0.0000
vt 0.9459 0.0006 0.0000
vt 0.9844 0.0000 0.0000
vt 0.9465 0.0391 0.0000
vt 0.7325 0.1457 0.0000
vt 0.9501 0.3239 0.0000
vt 0.9506 0.3855 0.0000
vt 0.9275 0.3856 0.0000
vt 0.9270 0.3241 0.0000
vt 0.3645 0.8498 0.0000
vt 0.9480 0.1391 0.0000
vt 0.9249 0.1395 0.0000
vt 0.9239 0.0702 0.0000
vt 0.9470 0.0699 0.0000
vt 0.9281 0.5702 0.0000
vt 0.9512 0.5702 0.0000
vt 0.9512 0.6395 0.0000
vt 0.9282 0.6395 0.0000
vt 0.9897 0.6703 0.0000
vt 0.9897 0.7088 0.0000
vt 0.9512 0.7088 0.0000
vt 0.9512 0.6703 0.0000
vt 0.9512 0.6549 0.0000
vt 0.9128 0.6703 0.0000
vt 0.9128 0.6549 0.0000
vt 0.9897 0.6549 0.0000
vt 0.9082 0.0550 0.0000
vt 0.9080 0.0397 0.0000
vt 0.9467 0.0545 0.0000
vt 0.9852 0.0539 0.0000
vt 0.9743 0.5702 0.0000
vt 0.9743 0.6395 0.0000
vt 0.9732 0.3237 0.0000
vt 0.9737 0.3853 0.0000
vt 0.9700 0.0695 0.0000
vt 0.9711 0.1388 0.0000
vt 0.9511 0.5086 0.0000
vt 0.9280 0.5087 0.0000
vt 0.9509 0.4471 0.0000
vt 0.9278 0.4472 0.0000
vt 0.9257 0.2010 0.0000
vt 0.9488 0.2007 0.0000
vt 0.9264 0.2625 0.0000
vt 0.9495 0.2623 0.0000
vt 0.9719 0.2004 0.0000
vt 0.9726 0.2621 0.0000
vt 0.9742 0.5086 0.0000
vt 0.9740 0.4469 0.0000
vt 0.7333 0.0019 0.0000
vt 0.3738 0.0000 0.0000
vt 0.9557 0.0000 0.0000
vt 0.9942 0.0000 0.0000
vt 0.9942 0.0385 0.0000
vt 0.9558 0.0385 0.0000
vt 0.9546 0.3849 0.0000
vt 0.9540 0.4465 0.0000
vt 0.9309 0.4462 0.0000
vt 0.9315 0.3847 0.0000
vt 0.3651 0.9936 0.0000
vt 0.0056 0.9954 0.0000
vt 0.0049 0.8516 0.0000
vt 0.9558 0.1386 0.0000
vt 0.9327 0.1386 0.0000
vt 0.9327 0.0693 0.0000
vt 0.9558 0.0693 0.0000
vt 0.9257 0.7539 0.0000
vt 0.9488 0.7544 0.0000
vt 0.9472 0.8236 0.0000
vt 0.9241 0.8231 0.0000
vt 0.5836 0.9955 0.0000
vt 0.9850 0.8553 0.0000
vt 0.9841 0.8938 0.0000
vt 0.9456 0.8929 0.0000
vt 0.9465 0.8544 0.0000
vt 0.9468 0.8390 0.0000
vt 0.9080 0.8535 0.0000
vt 0.9084 0.8382 0.0000
vt 0.9853 0.8399 0.0000
vt 0.9173 0.0539 0.0000
vt 0.9173 0.0385 0.0000
vt 0.9558 0.0539 0.0000
vt 0.9942 0.0539 0.0000
vt 0.9719 0.7549 0.0000
vt 0.9703 0.8242 0.0000
vt 0.9532 0.5081 0.0000
vt 0.9771 0.4468 0.0000
vt 0.9763 0.5084 0.0000
vt 0.9788 0.0693 0.0000
vt 0.9788 0.1386 0.0000
vt 0.9501 0.6928 0.0000
vt 0.9270 0.6923 0.0000
vt 0.9513 0.6312 0.0000
vt 0.9282 0.6308 0.0000
vt 0.9523 0.5697 0.0000
vt 0.9292 0.5693 0.0000
vt 0.9302 0.5078 0.0000
vt 0.9326 0.2001 0.0000
vt 0.9557 0.2002 0.0000
vt 0.9324 0.2616 0.0000
vt 0.9554 0.2617 0.0000
vt 0.9320 0.3232 0.0000
vt 0.9551 0.3233 0.0000
vt 0.9787 0.2002 0.0000
vt 0.9785 0.2619 0.0000
vt 0.9782 0.3235 0.0000
vt 0.9777 0.3851 0.0000
vt 0.9732 0.6933 0.0000
vt 0.9744 0.6316 0.0000
vt 0.9754 0.5700 0.0000
# 222 texture coords

g SM_InnerRadius_1_E_Texture
usemtl Test
s 1
f 1/1/1 2/2/2 3/3/3 
f 3/3/3 4/4/4 1/1/1 
f 2/5/2 1/6/1 5/7/5 
f 5/7/5 6/8/6 2/5/2 
f 1/9/1 4/10/4 7/11/7 
f 7/11/7 5/12/5 1/9/1 
f 8/13/8 9/14/9 10/15/9 
f 10/15/9 11/16/8 8/13/8 
f 9/17/9 12/18/4 13/19/4 
f 13/19/4 10/20/9 9/17/9 
f 14/19/10 13/20/4 12/17/4 
f 12/17/4 15/18/10 14/19/10 
f 16/21/4 17/22/4 18/23/3 
f 18/23/3 19/24/3 16/21/4 
f 16/25/4 20/26/7 21/27/7 
f 21/27/7 17/28/4 16/25/4 
f 11/16/8 10/15/9 22/29/9 
f 22/29/9 23/30/8 11/16/8 
f 9/14/9 8/13/8 24/31/8 
f 24/31/8 25/32/9 9/14/9 
f 10/33/9 13/34/4 26/35/4 
f 26/35/4 22/36/9 10/33/9 
f 12/37/4 9/38/9 25/39/9 
f 25/39/9 27/40/4 12/37/4 
f 15/38/10 12/37/4 27/41/4 
f 27/41/4 28/42/10 15/38/10 
f 13/43/4 14/33/10 29/44/10 
f 29/44/10 26/45/4 13/43/4 
s off
f 26/45/11 29/44/11 7/11/11 
f 7/11/12 4/10/12 26/45/12 
f 3/3/13 22/36/13 26/35/13 
f 26/35/13 4/4/13 3/3/13 
f 27/41/5 17/28/5 21/27/5 
f 21/27/14 28/42/14 27/41/14 
f 27/40/2 25/39/2 18/23/2 
f 18/23/2 17/22/2 27/40/2 
f 20/46/15 16/47/15 19/48/15 
f 19/48/15 30/49/15 20/46/15 
f 31/50/16 30/49/16 19/51/16 
f 19/51/16 18/52/16 31/50/16 
f 21/53/17 20/46/17 30/49/17 
f 30/49/17 31/50/17 21/53/17 
f 3/54/16 2/55/16 6/8/16 
f 6/8/8 32/56/8 3/54/8 
f 32/56/17 6/8/17 5/7/17 
f 5/7/17 7/57/17 32/56/17 
f 24/31/17 8/13/17 15/58/17 
f 15/58/17 28/59/17 24/31/17 
f 8/13/17 11/16/17 14/60/17 
f 14/60/17 15/58/17 8/13/17 
f 11/16/17 23/30/17 29/61/17 
f 29/61/17 14/60/17 11/16/17 
f 32/56/17 7/57/17 29/61/17 
f 29/61/17 23/30/17 32/56/17 
f 32/56/18 23/30/18 22/29/18 
f 22/29/18 3/54/18 32/56/18 
f 28/59/17 21/53/17 31/50/17 
f 31/50/17 24/31/17 28/59/17 
f 31/50/16 18/52/16 25/32/16 
f 25/32/8 24/31/8 31/50/8 
s 1
f 33/62/1 34/63/2 35/64/3 
f 35/64/3 36/65/4 33/62/1 
f 34/66/2 33/67/1 37/68/5 
f 37/68/5 38/69/6 34/66/2 
f 33/70/1 36/71/4 39/64/7 
f 39/64/7 37/63/5 33/70/1 
f 40/72/8 41/73/8 42/74/9 
f 42/74/9 43/75/9 40/72/8 
f 43/20/9 42/17/9 44/18/4 
f 44/18/4 45/19/4 43/20/9 
f 46/18/19 47/19/19 44/20/4 
f 44/20/4 48/17/4 46/18/19 
f 49/21/4 50/22/4 51/23/3 
f 51/23/3 52/24/3 49/21/4 
f 49/76/4 53/77/7 54/78/7 
f 54/78/7 50/79/4 49/76/4 
f 55/80/8 56/81/9 57/82/9 
f 57/82/9 58/83/8 55/80/8 
f 59/84/9 60/85/8 61/86/8 
f 61/86/8 62/87/9 59/84/9 
f 56/88/9 63/89/4 64/90/4 
f 64/90/4 57/91/9 56/88/9 
f 65/37/4 59/38/9 62/39/9 
f 62/39/9 66/40/4 65/37/4 
f 67/38/19 65/37/4 66/41/4 
f 66/41/4 68/92/10 67/38/19 
f 63/43/4 69/33/19 70/91/10 
f 70/91/10 64/90/4 63/43/4 
s off
f 64/90/11 70/91/11 39/64/11 
f 39/64/12 36/71/12 64/90/12 
f 35/64/13 57/91/13 64/90/13 
f 64/90/13 36/65/13 35/64/13 
f 66/41/5 50/79/5 54/78/5 
f 54/78/14 68/92/14 66/41/14 
f 66/40/2 62/39/2 51/23/2 
f 51/23/2 50/22/2 66/40/2 
f 53/93/15 49/94/15 52/95/15 
f 52/95/15 71/96/15 53/93/15 
f 72/97/8 71/96/8 52/98/8 
f 52/98/8 51/99/8 72/97/8 
f 54/100/17 53/93/17 71/96/17 
f 71/96/17 72/97/17 54/100/17 
f 35/101/8 34/102/8 38/69/8 
f 38/69/16 73/103/16 35/101/16 
f 73/103/17 38/69/17 37/68/17 
f 37/68/17 39/104/17 73/103/17 
f 61/86/17 60/85/17 67/105/17 
f 67/105/17 68/106/17 61/86/17 
f 74/107/20 41/73/20 47/108/20 
f 47/108/17 46/109/17 74/107/17 
f 55/80/17 58/83/17 70/110/17 
f 70/110/17 69/111/17 55/80/17 
f 73/103/17 39/104/17 70/110/17 
f 70/110/17 58/83/17 73/103/17 
f 73/103/18 58/83/18 57/82/18 
f 57/82/21 35/101/21 73/103/21 
f 68/106/17 54/100/17 72/97/17 
f 72/97/17 61/86/17 68/106/17 
f 72/97/8 51/99/8 62/87/8 
f 62/87/8 61/86/8 72/97/8 
s 1
f 74/107/8 60/85/8 59/84/9 
f 59/84/9 75/112/9 74/107/8 
f 41/73/8 74/107/8 75/112/9 
f 75/112/9 42/74/9 41/73/8 
f 43/75/9 56/81/9 55/80/8 
f 55/80/8 40/72/8 43/75/9 
f 75/20/9 59/17/9 65/18/4 
f 65/18/4 48/19/4 75/20/9 
f 42/20/9 75/17/9 48/18/4 
f 48/18/4 44/19/4 42/20/9 
f 45/18/4 63/19/4 56/20/9 
f 56/20/9 43/17/9 45/18/4 
f 76/18/19 69/19/19 63/20/4 
f 63/20/4 45/17/4 76/18/19 
f 47/18/19 76/19/19 45/20/4 
f 45/20/4 44/17/4 47/18/19 
f 48/20/4 65/17/4 67/18/19 
f 67/18/19 46/19/19 48/20/4 
s off
f 40/72/22 55/80/22 69/111/22 
f 69/111/22 76/113/22 40/72/22 
f 41/73/17 40/72/17 76/113/17 
f 76/113/20 47/108/20 41/73/20 
f 46/109/22 67/105/22 60/85/22 
f 60/85/22 74/107/22 46/109/22 
s 1
f 77/114/1 78/63/2 79/64/3 
f 79/64/3 80/71/4 77/114/1 
f 78/115/2 77/116/1 81/7/5 
f 81/7/5 82/117/6 78/115/2 
f 77/9/1 80/118/4 83/11/7 
f 83/11/7 81/12/5 77/9/1 
f 84/119/8 85/120/8 86/121/9 
f 86/121/9 87/122/9 84/119/8 
f 87/20/9 86/17/9 88/18/4 
f 88/18/4 89/19/4 87/20/9 
f 90/18/10 91/19/19 89/20/4 
f 89/20/4 88/17/4 90/18/10 
f 92/25/4 93/123/4 94/27/3 
f 94/27/3 95/26/3 92/25/4 
f 92/25/4 96/26/7 97/27/7 
f 97/27/7 93/28/4 92/25/4 
f 98/124/8 99/125/9 100/126/9 
f 100/126/9 101/127/8 98/124/8 
f 102/128/9 103/129/8 104/130/8 
f 104/130/8 105/131/9 102/128/9 
f 99/33/9 106/89/4 107/90/4 
f 107/90/4 100/91/9 99/33/9 
f 108/37/23 102/38/9 105/92/9 
f 105/92/9 109/41/23 108/37/23 
f 110/38/19 108/37/23 109/41/23 
f 109/41/23 111/42/19 110/38/19 
f 106/43/4 112/33/10 113/44/10 
f 113/44/10 107/45/4 106/43/4 
s off
f 107/45/11 113/44/11 83/11/11 
f 83/11/12 80/118/12 107/45/12 
f 79/64/13 100/91/13 107/90/13 
f 107/90/13 80/71/13 79/64/13 
f 109/41/5 93/28/5 97/27/5 
f 97/27/14 111/42/14 109/41/14 
f 109/41/2 105/92/2 94/27/2 
f 94/27/2 93/123/2 109/41/2 
f 96/132/15 92/133/15 95/134/15 
f 95/134/15 114/135/15 96/132/15 
f 115/136/8 114/135/8 95/137/8 
f 95/137/8 94/138/8 115/136/8 
f 97/139/17 96/132/17 114/135/17 
f 114/135/17 115/136/17 97/139/17 
f 79/140/8 78/141/8 82/117/8 
f 82/117/8 116/142/8 79/140/8 
f 116/142/17 82/117/17 81/7/17 
f 81/7/17 83/143/17 116/142/17 
f 104/130/17 103/129/17 110/144/17 
f 110/144/17 111/145/17 104/130/17 
f 85/120/20 84/119/20 91/146/20 
f 91/146/17 90/147/17 85/120/17 
f 98/124/24 101/127/24 113/148/24 
f 113/148/24 112/149/24 98/124/24 
f 116/142/17 83/143/17 113/148/17 
f 113/148/24 101/127/24 116/142/24 
f 116/142/8 101/127/8 100/126/8 
f 100/126/8 79/140/8 116/142/8 
f 111/145/17 97/139/17 115/136/17 
f 115/136/17 104/130/17 111/145/17 
f 115/136/8 94/138/8 105/131/8 
f 105/131/8 104/130/8 115/136/8 
s 1
f 117/150/8 103/129/8 102/128/9 
f 102/128/9 118/151/9 117/150/8 
f 119/152/8 117/150/8 118/151/9 
f 118/151/9 120/153/9 119/152/8 
f 85/120/8 119/152/8 120/153/9 
f 120/153/9 86/121/9 85/120/8 
f 121/154/9 99/125/9 98/124/8 
f 98/124/8 122/155/8 121/154/9 
f 123/156/9 121/154/9 122/155/8 
f 122/155/8 124/157/8 123/156/9 
f 87/122/9 123/156/9 124/157/8 
f 124/157/8 84/119/8 87/122/9 
f 118/20/9 102/17/9 108/18/23 
f 108/18/23 125/19/4 118/20/9 
f 120/20/9 118/17/9 125/18/4 
f 125/18/4 126/19/4 120/20/9 
f 86/20/9 120/17/9 126/18/4 
f 126/18/4 88/19/4 86/20/9 
f 127/18/4 106/19/4 99/20/9 
f 99/20/9 121/17/9 127/18/4 
f 128/18/4 127/19/4 121/20/9 
f 121/20/9 123/17/9 128/18/4 
f 89/18/4 128/19/4 123/20/9 
f 123/20/9 87/17/9 89/18/4 
f 129/18/10 112/19/10 106/20/4 
f 106/20/4 127/17/4 129/18/10 
f 130/18/19 129/19/10 127/20/4 
f 127/20/4 128/17/4 130/18/19 
f 91/18/19 130/19/19 128/20/4 
f 128/20/4 89/17/4 91/18/19 
f 125/20/4 108/17/23 110/18/19 
f 110/18/19 131/19/19 125/20/4 
f 126/20/4 125/17/4 131/18/19 
f 131/18/19 132/19/19 126/20/4 
f 88/20/4 126/17/4 132/18/19 
f 132/18/19 90/19/10 88/20/4 
s off
f 122/155/20 98/124/20 112/149/20 
f 112/149/17 129/158/17 122/155/17 
f 124/157/17 122/155/17 129/158/17 
f 129/158/17 130/159/17 124/157/17 
f 84/119/17 124/157/17 130/159/17 
f 130/159/20 91/146/20 84/119/20 
f 131/160/17 110/144/17 103/129/17 
f 103/129/20 117/150/20 131/160/20 
f 132/161/20 131/160/20 117/150/20 
f 117/150/17 119/152/17 132/161/17 
f 90/147/17 132/161/17 119/152/17 
f 119/152/17 85/120/17 90/147/17 
s 1
f 133/162/1 134/163/2 135/3/3 
f 135/3/3 136/4/4 133/162/1 
f 134/164/2 133/165/1 137/166/5 
f 137/166/5 138/167/6 134/164/2 
f 133/9/1 136/10/4 139/11/7 
f 139/11/7 137/12/5 133/9/1 
f 140/168/8 141/169/8 142/170/9 
f 142/170/9 143/171/9 140/168/8 
f 143/20/9 142/17/9 144/18/4 
f 144/18/4 145/19/23 143/20/9 
f 146/18/19 147/19/19 144/20/4 
f 144/20/4 148/17/4 146/18/19 
f 149/25/4 150/123/4 151/78/3 
f 151/78/3 152/26/3 149/25/4 
f 149/172/4 153/173/7 154/174/7 
f 154/174/7 150/28/4 149/172/4 
f 155/175/8 156/176/9 157/177/9 
f 157/177/9 158/178/8 155/175/8 
f 159/179/9 160/180/8 161/181/8 
f 161/181/8 162/182/9 159/179/9 
f 156/33/9 163/183/4 164/35/4 
f 164/35/4 157/36/9 156/33/9 
f 165/37/4 159/38/9 162/92/9 
f 162/92/9 166/41/4 165/37/4 
f 167/38/10 165/37/4 166/41/4 
f 166/41/4 168/42/10 167/38/10 
f 163/43/4 169/33/10 170/44/10 
f 170/44/10 164/45/4 163/43/4 
s off
f 164/45/11 170/44/11 139/11/11 
f 139/11/12 136/10/12 164/45/12 
f 135/3/13 157/36/13 164/35/13 
f 164/35/13 136/4/13 135/3/13 
f 166/41/5 150/28/5 154/174/5 
f 154/174/14 168/42/14 166/41/14 
f 166/41/2 162/92/2 151/78/2 
f 151/78/2 150/123/2 166/41/2 
f 153/184/15 149/185/15 152/186/15 
f 152/186/15 171/187/15 153/184/15 
f 172/188/8 171/187/8 152/189/8 
f 152/189/8 151/190/8 172/188/8 
f 154/191/17 153/184/17 171/187/17 
f 171/187/17 172/188/17 154/191/17 
f 135/192/8 134/193/8 138/167/8 
f 138/167/8 173/194/8 135/192/8 
f 173/194/17 138/167/17 137/166/17 
f 137/166/17 139/195/17 173/194/17 
f 161/181/17 160/180/17 167/196/17 
f 167/196/17 168/197/17 161/181/17 
f 174/198/20 141/169/20 147/199/20 
f 147/199/17 146/200/17 174/198/17 
f 155/175/24 158/178/24 170/201/24 
f 170/201/24 169/202/24 155/175/24 
f 173/194/17 139/195/17 170/201/17 
f 170/201/24 158/178/24 173/194/24 
f 173/194/8 158/178/8 157/177/8 
f 157/177/8 135/192/8 173/194/8 
f 168/197/17 154/191/17 172/188/17 
f 172/188/17 161/181/17 168/197/17 
f 172/188/8 151/190/8 162/182/8 
f 162/182/8 161/181/8 172/188/8 
s 1
f 175/203/8 160/180/8 159/179/9 
f 159/179/9 176/204/9 175/203/8 
f 177/205/8 175/203/8 176/204/9 
f 176/204/9 178/206/9 177/205/8 
f 179/207/8 177/205/8 178/206/9 
f 178/206/9 180/208/9 179/207/8 
f 174/198/8 179/207/8 180/208/9 
f 180/208/9 181/209/9 174/198/8 
f 141/169/8 174/198/8 181/209/9 
f 181/209/9 142/170/9 141/169/8 
f 182/210/9 156/176/9 155/175/8 
f 155/175/8 183/211/8 182/210/9 
f 184/212/9 182/210/9 183/211/8 
f 183/211/8 185/213/8 184/212/9 
f 186/214/9 184/212/9 185/213/8 
f 185/213/8 187/215/8 186/214/9 
f 143/171/9 186/214/9 187/215/8 
f 187/215/8 140/168/8 143/171/9 
f 176/20/9 159/17/9 165/18/4 
f 165/18/4 188/19/4 176/20/9 
f 178/20/9 176/17/9 188/18/4 
f 188/18/4 189/19/4 178/20/9 
f 180/20/9 178/17/9 189/18/4 
f 189/18/4 190/19/4 180/20/9 
f 181/20/9 180/17/9 190/18/4 
f 190/18/4 148/19/4 181/20/9 
f 142/20/9 181/17/9 148/18/4 
f 148/18/4 144/19/4 142/20/9 
f 191/18/4 163/19/4 156/20/9 
f 156/20/9 182/17/9 191/18/4 
f 192/18/4 191/19/4 182/20/9 
f 182/20/9 184/17/9 192/18/4 
f 193/18/4 192/19/4 184/20/9 
f 184/20/9 186/17/9 193/18/4 
f 145/18/23 193/19/4 186/20/9 
f 186/20/9 143/17/9 145/18/23 
f 194/18/10 169/19/10 163/20/4 
f 163/20/4 191/17/4 194/18/10 
f 195/18/10 194/19/10 191/20/4 
f 191/20/4 192/17/4 195/18/10 
f 196/18/10 195/19/10 192/20/4 
f 192/20/4 193/17/4 196/18/10 
f 197/18/19 196/19/10 193/20/4 
f 193/20/4 145/17/23 197/18/19 
f 147/18/19 197/19/19 145/20/23 
f 145/20/23 144/17/4 147/18/19 
f 188/20/4 165/17/4 167/18/10 
f 167/18/10 198/19/10 188/20/4 
f 189/20/4 188/17/4 198/18/10 
f 198/18/10 199/19/10 189/20/4 
f 190/20/4 189/17/4 199/18/10 
f 199/18/10 200/19/10 190/20/4 
f 148/20/4 190/17/4 200/18/10 
f 200/18/10 146/19/19 148/20/4 
s off
f 183/211/20 155/175/20 169/202/20 
f 169/202/17 194/216/17 183/211/17 
f 185/213/17 183/211/17 194/216/17 
f 194/216/17 195/217/17 185/213/17 
f 187/215/17 185/213/17 195/217/17 
f 195/217/17 196/218/17 187/215/17 
f 140/168/17 187/215/17 196/218/17 
f 196/218/17 197/219/17 140/168/17 
f 141/169/17 140/168/17 197/219/17 
f 197/219/20 147/199/20 141/169/20 
f 198/220/17 167/196/17 160/180/17 
f 160/180/17 175/203/17 198/220/17 
f 199/221/17 198/220/17 175/203/17 
f 175/203/17 177/205/17 199/221/17 
f 200/222/17 199/221/17 177/205/17 
f 177/205/17 179/207/17 200/222/17 
f 146/200/17 200/222/17 179/207/17 
f 179/207/17 174/198/17 146/200/17 
# 384 faces

