# 3ds Max Wavefront OBJ Exporter v0.97b - (c)2007 guruware
# File Created: 11.10.2014 15:47:37

mtllib MidSpan.mtl

#
# object SM_MidSpan_1_E_Texture
#

v  19.6851 -7.8740 -7.8741
v  -19.6850 -7.8740 -7.8740
v  -19.6850 0.0000 -7.8740
v  19.6851 0.0000 -7.8741
v  -19.6850 -7.8740 7.8741
v  19.6851 -7.8740 7.8740
v  19.6851 7.8741 7.8740
v  -19.6850 7.8740 7.8741
v  -19.6850 0.0000 7.8741
v  19.6851 0.0001 7.8740
v  -19.6850 74.8032 0.0001
v  19.6851 74.8032 -0.0000
v  19.6851 43.3071 -0.0000
v  -19.6850 43.3071 -0.0000
v  -19.6850 125.9843 -7.8740
v  19.6851 125.9843 -7.8741
v  19.6851 118.1103 -7.8741
v  -19.6850 118.1102 -7.8740
v  -19.6850 125.9843 7.8741
v  19.6851 125.9843 7.8740
v  -19.6850 118.1102 7.8741
v  19.6851 118.1103 7.8740
v  19.6851 74.8032 7.8740
v  19.6851 43.3071 7.8740
v  -19.6850 74.8032 7.8741
v  -19.6850 43.3071 7.8741
v  19.6851 7.8741 -0.0000
v  -19.6850 7.8740 -0.0000
v  -19.6850 110.2362 0.0001
v  19.6851 110.2363 -0.0000
v  19.6851 110.2363 7.8740
v  -19.6850 110.2362 7.8741
v  -26.8750 -7.8741 -7.8740
v  -66.2451 -7.8741 -7.8739
v  -66.2451 -0.0001 -7.8739
v  -26.8750 -0.0001 -7.8740
v  -66.2451 -7.8741 7.8742
v  -26.8750 -7.8741 7.8741
v  -26.8750 7.8740 7.8741
v  -66.2451 7.8739 7.8742
v  -66.2451 -0.0001 7.8742
v  -26.8750 -0.0001 7.8741
v  -66.2451 74.8031 0.0001
v  -66.2451 106.2992 0.0001
v  -26.8750 106.2991 -0.0000
v  -26.8750 74.8031 -0.0000
v  -66.2451 220.4724 -7.8740
v  -26.8750 220.4724 -7.8741
v  -26.8750 212.5984 -7.8741
v  -66.2451 212.5983 -7.8740
v  -66.2451 220.4724 7.8741
v  -26.8750 220.4724 7.8740
v  -66.2451 212.5983 7.8741
v  -26.8750 212.5984 7.8740
v  -26.8750 106.2991 7.8740
v  -26.8750 74.8031 7.8740
v  -66.2451 106.2991 7.8741
v  -66.2451 74.8031 7.8741
v  -66.2451 43.3070 0.0001
v  -26.8750 43.3070 0.0001
v  -26.8750 7.8740 0.0001
v  -66.2451 7.8739 0.0001
v  -26.8750 169.2913 -0.0000
v  -66.2451 169.2913 0.0001
v  -66.2451 204.7243 0.0001
v  -26.8750 204.7244 -0.0000
v  -26.8750 43.3070 7.8741
v  -26.8750 169.2913 7.8740
v  -26.8750 204.7244 7.8740
v  -66.2451 43.3070 7.8742
v  -66.2451 169.2913 7.8741
v  -66.2451 204.7243 7.8741
v  -66.2451 137.7952 0.0001
v  -26.8750 137.7952 -0.0000
v  -26.8750 137.7952 7.8740
v  -66.2451 137.7952 7.8741
v  -119.9952 -7.8743 -7.8738
v  -159.3653 -7.8743 -7.8737
v  -159.3653 -0.0003 -7.8737
v  -119.9952 -0.0003 -7.8738
v  -159.3653 -7.8743 7.8744
v  -119.9952 -7.8743 7.8743
v  -119.9952 7.8738 7.8743
v  -159.3653 7.8737 7.8744
v  -159.3653 -0.0003 7.8744
v  -119.9952 -0.0003 7.8743
v  -159.3654 169.2910 0.0003
v  -159.3655 200.7870 0.0003
v  -119.9954 200.7871 0.0002
v  -119.9953 169.2910 0.0002
v  -159.3656 409.4484 -7.8738
v  -119.9955 409.4484 -7.8739
v  -119.9955 401.5744 -7.8739
v  -159.3656 401.5743 -7.8738
v  -159.3656 409.4484 7.8743
v  -119.9955 409.4484 7.8742
v  -159.3656 401.5744 7.8743
v  -119.9955 401.5744 7.8742
v  -119.9954 200.7871 7.8742
v  -119.9953 169.2910 7.8742
v  -159.3655 200.7871 7.8743
v  -159.3654 169.2910 7.8743
v  -159.3653 43.3068 0.0003
v  -119.9952 43.3068 0.0003
v  -119.9952 7.8738 0.0003
v  -159.3653 7.8737 0.0003
v  -119.9955 358.2673 0.0002
v  -159.3656 358.2673 0.0003
v  -159.3656 393.7003 0.0003
v  -119.9955 393.7004 0.0002
v  -119.9952 43.3068 7.8743
v  -119.9955 358.2673 7.8742
v  -119.9955 393.7004 7.8742
v  -159.3653 43.3068 7.8744
v  -159.3656 358.2673 7.8743
v  -159.3656 393.7003 7.8743
v  -159.3656 326.7713 0.0003
v  -119.9955 326.7713 0.0002
v  -159.3655 295.2752 0.0003
v  -119.9954 295.2752 0.0002
v  -159.3655 263.7792 0.0003
v  -119.9954 263.7792 0.0002
v  -159.3655 232.2831 0.0003
v  -119.9954 232.2831 0.0002
v  -119.9952 74.8029 0.0003
v  -159.3653 74.8028 0.0003
v  -119.9953 106.2989 0.0003
v  -159.3654 106.2989 0.0003
v  -119.9953 137.7950 0.0002
v  -159.3654 137.7949 0.0003
v  -119.9955 326.7713 7.8742
v  -119.9954 295.2752 7.8742
v  -119.9954 263.7792 7.8742
v  -119.9954 232.2831 7.8742
v  -119.9952 74.8029 7.8743
v  -119.9953 106.2989 7.8743
v  -119.9953 137.7950 7.8742
v  -159.3656 326.7713 7.8743
v  -159.3655 295.2752 7.8743
v  -159.3655 263.7792 7.8743
v  -159.3655 232.2831 7.8743
v  -159.3653 74.8029 7.8744
v  -159.3654 106.2989 7.8744
v  -159.3654 137.7950 7.8743
v  -73.4350 -7.8742 -7.8739
v  -112.8051 -7.8742 -7.8738
v  -112.8051 -0.0002 -7.8738
v  -73.4350 -0.0002 -7.8739
v  -112.8051 -7.8742 7.8743
v  -73.4350 -7.8742 7.8742
v  -73.4350 7.8739 7.8742
v  -112.8051 7.8738 7.8743
v  -112.8051 -0.0002 7.8743
v  -73.4350 -0.0002 7.8742
v  -112.8052 137.7950 0.0002
v  -112.8052 169.2911 0.0002
v  -73.4351 169.2911 0.0001
v  -73.4351 137.7950 0.0001
v  -112.8052 314.9603 -7.8739
v  -73.4351 314.9603 -7.8740
v  -73.4351 307.0863 -7.8740
v  -112.8052 307.0862 -7.8739
v  -112.8052 314.9603 7.8742
v  -73.4351 314.9603 7.8741
v  -112.8052 307.0862 7.8742
v  -73.4351 307.0863 7.8741
v  -73.4351 169.2911 7.8741
v  -73.4351 137.7950 7.8741
v  -112.8052 169.2911 7.8742
v  -112.8052 137.7950 7.8742
v  -112.8051 43.3069 0.0002
v  -73.4350 43.3069 0.0002
v  -73.4350 7.8739 0.0002
v  -112.8051 7.8738 0.0002
v  -73.4351 263.7792 0.0001
v  -112.8052 263.7792 0.0002
v  -112.8052 299.2122 0.0002
v  -73.4351 299.2123 0.0001
v  -73.4350 43.3069 7.8742
v  -73.4351 263.7792 7.8741
v  -73.4351 299.2123 7.8741
v  -112.8051 43.3069 7.8743
v  -112.8052 263.7792 7.8742
v  -112.8052 299.2122 7.8742
v  -112.8052 232.2832 0.0002
v  -73.4351 232.2832 0.0001
v  -112.8052 200.7871 0.0002
v  -73.4351 200.7871 0.0001
v  -73.4350 74.8029 0.0002
v  -112.8051 74.8029 0.0002
v  -73.4350 106.2990 0.0001
v  -112.8051 106.2990 0.0002
v  -73.4351 232.2832 7.8741
v  -73.4351 200.7871 7.8741
v  -73.4350 74.8029 7.8742
v  -73.4350 106.2990 7.8741
v  -112.8052 232.2832 7.8742
v  -112.8052 200.7871 7.8742
v  -112.8051 74.8029 7.8743
v  -112.8051 106.2990 7.8742
# 200 vertices

vn 0.5773 -0.5774 -0.5774
vn -0.5774 -0.5774 -0.5773
vn -0.6303 0.2971 -0.7173
vn 0.6303 0.2971 -0.7173
vn -0.5773 -0.5774 0.5774
vn 0.5774 -0.5774 0.5773
vn 0.7071 0.0000 0.7071
vn -0.7071 0.0000 0.7071
vn -0.7071 0.0000 -0.7071
vn 0.7071 0.0000 -0.7071
vn -0.5774 0.5774 -0.5773
vn 0.5773 0.5774 -0.5774
vn 0.6303 -0.2971 -0.7173
vn -0.6303 -0.2971 -0.7173
vn -0.5773 0.5774 0.5774
vn 0.5774 0.5774 0.5773
vn 0.8042 0.2275 -0.5491
vn -0.8042 0.2275 -0.5491
vn -0.8042 -0.2275 -0.5491
vn 0.8042 -0.2275 -0.5491
vn 0.7071 -0.0000 -0.7071
vn -0.7071 -0.0000 -0.7071
vn -0.7071 -0.0000 0.7071
# 23 vertex normals

vt 0.1309 0.3989 0.0000
vt 0.5648 0.3989 0.0000
vt 0.5648 0.4857 0.0000
vt 0.1309 0.4857 0.0000
vt 0.0291 0.0291 0.0000
vt 0.0291 0.0000 0.0000
vt 0.1018 0.0000 0.0000
vt 0.1018 0.0291 0.0000
vt 0.1018 0.0582 0.0000
vt 0.0291 0.0582 0.0000
vt 0.0291 0.0436 0.0000
vt 0.1018 0.0436 0.0000
vt 0.9988 0.9991 0.0000
vt 0.5650 0.9991 0.0000
vt 0.5650 0.6520 0.0000
vt 0.9988 0.6520 0.0000
vt 0.9988 0.5999 0.0000
vt 0.5650 0.5999 0.0000
vt 0.5650 0.5131 0.0000
vt 0.9988 0.5131 0.0000
vt 0.0291 0.3053 0.0000
vt 0.0291 0.2762 0.0000
vt 0.1018 0.2762 0.0000
vt 0.1018 0.3053 0.0000
vt 0.0291 0.2617 0.0000
vt 0.1018 0.2617 0.0000
vt 0.1163 0.1817 0.0000
vt 0.1018 0.1817 0.0000
vt 0.1018 0.1236 0.0000
vt 0.1163 0.1236 0.0000
vt 0.0291 0.1817 0.0000
vt 0.0291 0.1236 0.0000
vt 0.0145 0.1817 0.0000
vt 0.0145 0.1236 0.0000
vt 0.5648 0.9989 0.0000
vt 0.1309 0.9989 0.0000
vt 0.1309 0.6084 0.0000
vt 0.5648 0.6084 0.0000
vt 0.5650 0.0000 0.0000
vt 0.9989 0.0000 0.0000
vt 0.9988 0.3904 0.0000
vt 0.5650 0.3904 0.0000
vt 0.1163 0.0582 0.0000
vt 0.1163 0.2472 0.0000
vt 0.1018 0.2472 0.0000
vt 0.0291 0.2472 0.0000
vt 0.0145 0.0582 0.0000
vt 0.0145 0.2472 0.0000
vt 0.1309 0.0436 0.0000
vt 0.1309 0.0291 0.0000
vt 0.0000 0.0436 0.0000
vt 0.0000 0.0291 0.0000
vt 0.0000 0.2617 0.0000
vt 0.0000 0.2762 0.0000
vt 0.1309 0.2617 0.0000
vt 0.1309 0.2762 0.0000
vt 0.0291 0.0293 0.0000
vt 0.1018 0.0293 0.0000
vt 0.1018 0.0594 0.0000
vt 0.0291 0.0593 0.0000
vt 0.0291 0.0442 0.0000
vt 0.1018 0.0442 0.0000
vt 0.0291 0.4885 0.0000
vt 0.0291 0.4592 0.0000
vt 0.1018 0.4592 0.0000
vt 0.1018 0.4885 0.0000
vt 0.0291 0.4443 0.0000
vt 0.1018 0.4443 0.0000
vt 0.1163 0.1849 0.0000
vt 0.1163 0.2442 0.0000
vt 0.1018 0.2442 0.0000
vt 0.1018 0.1849 0.0000
vt 0.0291 0.2442 0.0000
vt 0.0291 0.1849 0.0000
vt 0.0146 0.2442 0.0000
vt 0.0146 0.1849 0.0000
vt 0.5648 0.9988 0.0000
vt 0.1309 0.9988 0.0000
vt 0.9988 0.0000 0.0000
vt 0.1163 0.1257 0.0000
vt 0.1018 0.1257 0.0000
vt 0.1164 0.0593 0.0000
vt 0.1018 0.3628 0.0000
vt 0.1163 0.3628 0.0000
vt 0.1163 0.4292 0.0000
vt 0.1018 0.4291 0.0000
vt 0.0291 0.1257 0.0000
vt 0.0291 0.3628 0.0000
vt 0.0291 0.4291 0.0000
vt 0.0146 0.1257 0.0000
vt 0.0146 0.0593 0.0000
vt 0.0146 0.3628 0.0000
vt 0.0145 0.4291 0.0000
vt 0.1309 0.0442 0.0000
vt 0.1309 0.0294 0.0000
vt 0.0001 0.0441 0.0000
vt 0.0001 0.0294 0.0000
vt 0.0000 0.4443 0.0000
vt 0.0000 0.4590 0.0000
vt 0.1308 0.4443 0.0000
vt 0.1308 0.4591 0.0000
vt 0.1163 0.3036 0.0000
vt 0.1018 0.3036 0.0000
vt 0.0291 0.3036 0.0000
vt 0.0146 0.3036 0.0000
vt 0.5647 0.3989 0.0000
vt 0.5647 0.4857 0.0000
vt 0.0291 0.8287 0.0000
vt 0.0291 0.7997 0.0000
vt 0.1018 0.7997 0.0000
vt 0.1018 0.8287 0.0000
vt 0.0291 0.7851 0.0000
vt 0.1018 0.7851 0.0000
vt 0.1163 0.3562 0.0000
vt 0.1163 0.4144 0.0000
vt 0.1018 0.4144 0.0000
vt 0.1018 0.3562 0.0000
vt 0.0291 0.4144 0.0000
vt 0.0291 0.3562 0.0000
vt 0.0145 0.4144 0.0000
vt 0.0145 0.3562 0.0000
vt 0.5647 0.6084 0.0000
vt 0.1018 0.7052 0.0000
vt 0.1163 0.7052 0.0000
vt 0.1163 0.7706 0.0000
vt 0.1018 0.7706 0.0000
vt 0.0291 0.7052 0.0000
vt 0.0291 0.7706 0.0000
vt 0.0145 0.7052 0.0000
vt 0.0145 0.7706 0.0000
vt 0.0000 0.7851 0.0000
vt 0.0000 0.7997 0.0000
vt 0.1309 0.7851 0.0000
vt 0.1309 0.7997 0.0000
vt 0.1163 0.6470 0.0000
vt 0.1018 0.6470 0.0000
vt 0.1163 0.5888 0.0000
vt 0.1018 0.5888 0.0000
vt 0.1163 0.5307 0.0000
vt 0.1018 0.5307 0.0000
vt 0.1163 0.4725 0.0000
vt 0.1018 0.4725 0.0000
vt 0.1018 0.2399 0.0000
vt 0.1163 0.2399 0.0000
vt 0.1018 0.2981 0.0000
vt 0.1163 0.2981 0.0000
vt 0.0291 0.6470 0.0000
vt 0.0291 0.5888 0.0000
vt 0.0291 0.5307 0.0000
vt 0.0291 0.4725 0.0000
vt 0.0291 0.2399 0.0000
vt 0.0291 0.2981 0.0000
vt 0.0145 0.6470 0.0000
vt 0.0145 0.5888 0.0000
vt 0.0145 0.5307 0.0000
vt 0.0145 0.4725 0.0000
vt 0.0145 0.2399 0.0000
vt 0.0145 0.2981 0.0000
vt 0.0291 0.6543 0.0000
vt 0.0291 0.6252 0.0000
vt 0.1018 0.6252 0.0000
vt 0.1018 0.6543 0.0000
vt 0.0291 0.6106 0.0000
vt 0.1018 0.6107 0.0000
vt 0.0146 0.2981 0.0000
vt 0.1163 0.5961 0.0000
vt 0.1018 0.5961 0.0000
vt 0.0291 0.5961 0.0000
vt 0.0146 0.1236 0.0000
vt 0.0146 0.0582 0.0000
vt 0.0145 0.5961 0.0000
vt 0.0000 0.6106 0.0000
vt 0.0000 0.6252 0.0000
vt 0.1309 0.6107 0.0000
vt 0.1309 0.6252 0.0000
vt 0.0146 0.1817 0.0000
vt 0.0146 0.2399 0.0000
# 177 texture coords

g SM_MidSpan_1_E_Texture
usemtl Test
s 1
f 1/1/1 2/2/2 3/3/3 
f 3/3/3 4/4/4 1/1/1 
f 5/5/5 2/6/2 1/7/1 
f 1/7/1 6/8/6 5/5/5 
f 7/9/7 8/10/8 9/11/8 
f 9/11/8 10/12/7 7/9/7 
f 11/13/9 12/14/10 13/15/10 
f 13/15/10 14/16/9 11/13/9 
f 15/17/11 16/18/12 17/19/13 
f 17/19/13 18/20/14 15/17/11 
f 15/21/11 19/22/15 20/23/16 
f 20/23/16 16/24/12 15/21/11 
f 20/23/16 19/22/15 21/25/8 
f 21/25/8 22/26/7 20/23/16 
f 12/27/10 23/28/7 24/29/7 
f 24/29/7 13/30/10 12/27/10 
f 23/28/7 25/31/8 26/32/8 
f 26/32/8 24/29/7 23/28/7 
f 25/31/8 11/33/9 14/34/9 
f 14/34/9 26/32/8 25/31/8 
f 14/35/9 13/36/10 27/37/17 
f 27/37/17 28/38/18 14/35/9 
f 12/39/10 11/40/9 29/41/19 
f 29/41/19 30/42/20 12/39/10 
f 13/30/10 24/29/7 7/9/7 
f 7/9/7 27/43/17 13/30/10 
f 23/28/7 12/27/10 30/44/20 
f 30/44/20 31/45/7 23/28/7 
f 24/29/7 26/32/8 8/10/8 
f 8/10/8 7/9/7 24/29/7 
f 25/31/8 23/28/7 31/45/7 
f 31/45/7 32/46/8 25/31/8 
f 26/32/8 14/34/9 28/47/18 
f 28/47/18 8/10/8 26/32/8 
f 11/33/9 25/31/8 32/46/8 
f 32/46/8 29/48/19 11/33/9 
f 4/4/4 3/3/3 28/38/18 
f 28/38/18 27/37/17 4/4/4 
f 18/20/14 17/19/13 30/42/20 
f 30/42/20 29/41/19 18/20/14 
f 21/25/8 32/46/8 31/45/7 
f 31/45/7 22/26/7 21/25/8 
f 9/11/8 5/5/5 6/8/6 
f 6/8/6 10/12/7 9/11/8 
f 27/43/17 7/9/7 10/12/7 
f 10/12/7 4/49/4 27/43/17 
f 10/12/7 6/8/6 1/50/1 
f 1/50/1 4/49/4 10/12/7 
f 28/47/18 3/51/3 9/11/8 
f 9/11/8 8/10/8 28/47/18 
f 3/51/3 2/52/2 5/5/5 
f 5/5/5 9/11/8 3/51/3 
f 29/48/19 32/46/8 21/25/8 
f 21/25/8 18/53/14 29/48/19 
f 21/25/8 19/22/15 15/54/11 
f 15/54/11 18/53/14 21/25/8 
f 20/23/16 22/26/7 17/55/13 
f 17/55/13 16/56/12 20/23/16 
f 30/44/20 17/55/13 22/26/7 
f 22/26/7 31/45/7 30/44/20 
f 33/1/1 34/2/2 35/3/3 
f 35/3/3 36/4/4 33/1/1 
f 37/57/5 34/6/2 33/7/1 
f 33/7/1 38/58/6 37/57/5 
f 39/59/7 40/60/8 41/61/8 
f 41/61/8 42/62/7 39/59/7 
f 43/16/9 44/13/9 45/14/10 
f 45/14/10 46/15/21 43/16/9 
f 47/17/11 48/18/12 49/19/13 
f 49/19/13 50/20/14 47/17/11 
f 47/63/11 51/64/15 52/65/16 
f 52/65/16 48/66/12 47/63/11 
f 52/65/16 51/64/15 53/67/8 
f 53/67/8 54/68/7 52/65/16 
f 46/69/21 45/70/10 55/71/7 
f 55/71/7 56/72/7 46/69/21 
f 56/72/7 55/71/7 57/73/8 
f 57/73/8 58/74/8 56/72/7 
f 58/74/8 57/73/8 44/75/9 
f 44/75/9 43/76/9 58/74/8 
f 59/77/22 60/78/21 61/37/17 
f 61/37/17 62/38/18 59/77/22 
f 63/39/10 64/79/9 65/41/19 
f 65/41/19 66/42/20 63/39/10 
f 60/80/21 67/81/7 39/59/7 
f 39/59/7 61/82/17 60/80/21 
f 68/83/7 63/84/10 66/85/20 
f 66/85/20 69/86/7 68/83/7 
f 67/81/7 70/87/8 40/60/8 
f 40/60/8 39/59/7 67/81/7 
f 71/88/8 68/83/7 69/86/7 
f 69/86/7 72/89/8 71/88/8 
f 70/87/8 59/90/22 62/91/18 
f 62/91/18 40/60/8 70/87/8 
f 64/92/9 71/88/8 72/89/8 
f 72/89/8 65/93/19 64/92/9 
f 36/4/4 35/3/3 62/38/18 
f 62/38/18 61/37/17 36/4/4 
f 50/20/14 49/19/13 66/42/20 
f 66/42/20 65/41/19 50/20/14 
f 53/67/8 72/89/8 69/86/7 
f 69/86/7 54/68/7 53/67/8 
f 41/61/8 37/57/5 38/58/6 
f 38/58/6 42/62/7 41/61/8 
f 61/82/17 39/59/7 42/62/7 
f 42/62/7 36/94/4 61/82/17 
f 42/62/7 38/58/6 33/95/1 
f 33/95/1 36/94/4 42/62/7 
f 62/91/18 35/96/3 41/61/8 
f 41/61/8 40/60/8 62/91/18 
f 35/96/3 34/97/2 37/57/5 
f 37/57/5 41/61/8 35/96/3 
f 65/93/19 72/89/8 53/67/8 
f 53/67/8 50/98/14 65/93/19 
f 53/67/8 51/64/15 47/99/11 
f 47/99/11 50/98/14 53/67/8 
f 52/65/16 54/68/7 49/100/13 
f 49/100/13 48/101/12 52/65/16 
f 66/85/20 49/100/13 54/68/7 
f 54/68/7 69/86/7 66/85/20 
f 73/16/9 64/13/9 63/14/10 
f 63/14/10 74/15/10 73/16/9 
f 44/16/9 73/13/9 74/14/10 
f 74/14/10 45/15/10 44/16/9 
f 46/14/21 60/15/21 59/16/22 
f 59/16/22 43/13/9 46/14/21 
f 74/102/10 63/84/10 68/83/7 
f 68/83/7 75/103/7 74/102/10 
f 45/70/10 74/102/10 75/103/7 
f 75/103/7 55/71/7 45/70/10 
f 56/72/7 67/81/7 60/80/21 
f 60/80/21 46/69/21 56/72/7 
f 75/103/7 68/83/7 71/88/8 
f 71/88/8 76/104/8 75/103/7 
f 55/71/7 75/103/7 76/104/8 
f 76/104/8 57/73/8 55/71/7 
f 58/74/8 70/87/8 67/81/7 
f 67/81/7 56/72/7 58/74/8 
f 76/104/8 71/88/8 64/92/9 
f 64/92/9 73/105/9 76/104/8 
f 57/73/8 76/104/8 73/105/9 
f 73/105/9 44/75/9 57/73/8 
f 43/76/9 59/90/22 70/87/8 
f 70/87/8 58/74/8 43/76/9 
f 77/1/1 78/106/2 79/107/3 
f 79/107/3 80/4/4 77/1/1 
f 81/5/5 78/6/2 77/7/1 
f 77/7/1 82/8/6 81/5/5 
f 83/9/7 84/10/8 85/11/8 
f 85/11/8 86/12/7 83/9/7 
f 87/16/22 88/13/22 89/14/10 
f 89/14/10 90/15/10 87/16/22 
f 91/17/11 92/18/12 93/19/13 
f 93/19/13 94/20/14 91/17/11 
f 91/108/11 95/109/15 96/110/16 
f 96/110/16 92/111/12 91/108/11 
f 96/110/16 95/109/15 97/112/8 
f 97/112/8 98/113/7 96/110/16 
f 90/114/10 89/115/10 99/116/7 
f 99/116/7 100/117/7 90/114/10 
f 100/117/7 99/116/7 101/118/23 
f 101/118/23 102/119/23 100/117/7 
f 102/119/23 101/118/23 88/120/22 
f 88/120/22 87/121/22 102/119/23 
f 103/77/9 104/36/10 105/37/17 
f 105/37/17 106/122/18 103/77/9 
f 107/39/10 108/79/9 109/41/19 
f 109/41/19 110/42/20 107/39/10 
f 104/30/10 111/29/7 83/9/7 
f 83/9/7 105/43/17 104/30/10 
f 112/123/7 107/124/10 110/125/20 
f 110/125/20 113/126/7 112/123/7 
f 111/29/7 114/32/8 84/10/8 
f 84/10/8 83/9/7 111/29/7 
f 115/127/8 112/123/7 113/126/7 
f 113/126/7 116/128/8 115/127/8 
f 114/32/8 103/34/9 106/47/18 
f 106/47/18 84/10/8 114/32/8 
f 108/129/9 115/127/8 116/128/8 
f 116/128/8 109/130/19 108/129/9 
f 80/4/4 79/107/3 106/122/18 
f 106/122/18 105/37/17 80/4/4 
f 94/20/14 93/19/13 110/42/20 
f 110/42/20 109/41/19 94/20/14 
f 97/112/8 116/128/8 113/126/7 
f 113/126/7 98/113/7 97/112/8 
f 85/11/8 81/5/5 82/8/6 
f 82/8/6 86/12/7 85/11/8 
f 105/43/17 83/9/7 86/12/7 
f 86/12/7 80/49/4 105/43/17 
f 86/12/7 82/8/6 77/50/1 
f 77/50/1 80/49/4 86/12/7 
f 106/47/18 79/51/3 85/11/8 
f 85/11/8 84/10/8 106/47/18 
f 79/51/3 78/52/2 81/5/5 
f 81/5/5 85/11/8 79/51/3 
f 109/130/19 116/128/8 97/112/8 
f 97/112/8 94/131/14 109/130/19 
f 97/112/8 95/109/15 91/132/11 
f 91/132/11 94/131/14 97/112/8 
f 96/110/16 98/113/7 93/133/13 
f 93/133/13 92/134/12 96/110/16 
f 110/125/20 93/133/13 98/113/7 
f 98/113/7 113/126/7 110/125/20 
f 117/16/22 108/13/9 107/14/10 
f 107/14/10 118/15/10 117/16/22 
f 119/16/22 117/13/22 118/14/10 
f 118/14/10 120/15/10 119/16/22 
f 121/16/9 119/13/22 120/14/10 
f 120/14/10 122/15/10 121/16/9 
f 123/16/9 121/13/9 122/14/10 
f 122/14/10 124/15/10 123/16/9 
f 88/16/22 123/13/9 124/14/10 
f 124/14/10 89/15/10 88/16/22 
f 125/14/10 104/15/10 103/16/9 
f 103/16/9 126/13/22 125/14/10 
f 127/14/10 125/15/10 126/16/22 
f 126/16/22 128/13/22 127/14/10 
f 129/14/21 127/15/10 128/16/22 
f 128/16/22 130/13/9 129/14/21 
f 90/14/10 129/15/21 130/16/9 
f 130/16/9 87/13/22 90/14/10 
f 118/135/10 107/124/10 112/123/7 
f 112/123/7 131/136/7 118/135/10 
f 120/137/10 118/135/10 131/136/7 
f 131/136/7 132/138/7 120/137/10 
f 122/139/10 120/137/10 132/138/7 
f 132/138/7 133/140/7 122/139/10 
f 124/141/10 122/139/10 133/140/7 
f 133/140/7 134/142/7 124/141/10 
f 89/115/10 124/141/10 134/142/7 
f 134/142/7 99/116/7 89/115/10 
f 135/28/7 111/29/7 104/30/10 
f 104/30/10 125/27/10 135/28/7 
f 136/143/7 135/28/7 125/27/10 
f 125/27/10 127/144/10 136/143/7 
f 137/145/7 136/143/7 127/144/10 
f 127/144/10 129/146/21 137/145/7 
f 100/117/7 137/145/7 129/146/21 
f 129/146/21 90/114/10 100/117/7 
f 131/136/7 112/123/7 115/127/8 
f 115/127/8 138/147/23 131/136/7 
f 132/138/7 131/136/7 138/147/23 
f 138/147/23 139/148/23 132/138/7 
f 133/140/7 132/138/7 139/148/23 
f 139/148/23 140/149/8 133/140/7 
f 134/142/7 133/140/7 140/149/8 
f 140/149/8 141/150/8 134/142/7 
f 99/116/7 134/142/7 141/150/8 
f 141/150/8 101/118/23 99/116/7 
f 142/31/23 114/32/8 111/29/7 
f 111/29/7 135/28/7 142/31/23 
f 143/151/8 142/31/23 135/28/7 
f 135/28/7 136/143/7 143/151/8 
f 144/152/8 143/151/8 136/143/7 
f 136/143/7 137/145/7 144/152/8 
f 102/119/23 144/152/8 137/145/7 
f 137/145/7 100/117/7 102/119/23 
f 138/147/23 115/127/8 108/129/9 
f 108/129/9 117/153/22 138/147/23 
f 139/148/23 138/147/23 117/153/22 
f 117/153/22 119/154/22 139/148/23 
f 140/149/8 139/148/23 119/154/22 
f 119/154/22 121/155/9 140/149/8 
f 141/150/8 140/149/8 121/155/9 
f 121/155/9 123/156/9 141/150/8 
f 101/118/23 141/150/8 123/156/9 
f 123/156/9 88/120/22 101/118/23 
f 126/33/22 103/34/9 114/32/8 
f 114/32/8 142/31/23 126/33/22 
f 128/157/22 126/33/22 142/31/23 
f 142/31/23 143/151/8 128/157/22 
f 130/158/9 128/157/22 143/151/8 
f 143/151/8 144/152/8 130/158/9 
f 87/121/22 130/158/9 144/152/8 
f 144/152/8 102/119/23 87/121/22 
f 145/1/1 146/2/2 147/3/3 
f 147/3/3 148/4/4 145/1/1 
f 149/5/5 146/6/2 145/7/1 
f 145/7/1 150/8/6 149/5/5 
f 151/9/7 152/10/8 153/11/8 
f 153/11/8 154/12/7 151/9/7 
f 155/16/22 156/13/9 157/14/10 
f 157/14/10 158/15/10 155/16/22 
f 159/17/11 160/18/12 161/19/13 
f 161/19/13 162/20/14 159/17/11 
f 159/159/11 163/160/15 164/161/16 
f 164/161/16 160/162/12 159/159/11 
f 164/161/16 163/160/15 165/163/8 
f 165/163/8 166/164/7 164/161/16 
f 158/146/10 157/114/10 167/117/7 
f 167/117/7 168/145/7 158/146/10 
f 168/145/7 167/117/7 169/119/8 
f 169/119/8 170/152/23 168/145/7 
f 170/152/23 169/119/8 156/121/9 
f 156/121/9 155/165/22 170/152/23 
f 171/77/9 172/78/10 173/37/17 
f 173/37/17 174/38/18 171/77/9 
f 175/39/10 176/79/9 177/41/19 
f 177/41/19 178/42/20 175/39/10 
f 172/30/10 179/29/7 151/9/7 
f 151/9/7 173/43/17 172/30/10 
f 180/140/7 175/139/10 178/166/20 
f 178/166/20 181/167/7 180/140/7 
f 179/29/7 182/32/8 152/10/8 
f 152/10/8 151/9/7 179/29/7 
f 183/149/8 180/140/7 181/167/7 
f 181/167/7 184/168/8 183/149/8 
f 182/32/8 171/169/9 174/170/18 
f 174/170/18 152/10/8 182/32/8 
f 176/155/9 183/149/8 184/168/8 
f 184/168/8 177/171/19 176/155/9 
f 148/4/4 147/3/3 174/38/18 
f 174/38/18 173/37/17 148/4/4 
f 162/20/14 161/19/13 178/42/20 
f 178/42/20 177/41/19 162/20/14 
f 165/163/8 184/168/8 181/167/7 
f 181/167/7 166/164/7 165/163/8 
f 153/11/8 149/5/5 150/8/6 
f 150/8/6 154/12/7 153/11/8 
f 173/43/17 151/9/7 154/12/7 
f 154/12/7 148/49/4 173/43/17 
f 154/12/7 150/8/6 145/50/1 
f 145/50/1 148/49/4 154/12/7 
f 174/170/18 147/51/3 153/11/8 
f 153/11/8 152/10/8 174/170/18 
f 147/51/3 146/52/2 149/5/5 
f 149/5/5 153/11/8 147/51/3 
f 177/171/19 184/168/8 165/163/8 
f 165/163/8 162/172/14 177/171/19 
f 165/163/8 163/160/15 159/173/11 
f 159/173/11 162/172/14 165/163/8 
f 164/161/16 166/164/7 161/174/13 
f 161/174/13 160/175/12 164/161/16 
f 178/166/20 161/174/13 166/164/7 
f 166/164/7 181/167/7 178/166/20 
f 185/16/9 176/13/9 175/14/10 
f 175/14/10 186/15/10 185/16/9 
f 187/16/9 185/13/9 186/14/10 
f 186/14/10 188/15/10 187/16/9 
f 156/16/9 187/13/9 188/14/10 
f 188/14/10 157/15/10 156/16/9 
f 189/14/21 172/15/10 171/16/9 
f 171/16/9 190/13/22 189/14/21 
f 191/14/10 189/15/21 190/16/22 
f 190/16/22 192/13/22 191/14/10 
f 158/14/10 191/15/10 192/16/22 
f 192/16/22 155/13/22 158/14/10 
f 186/141/10 175/139/10 180/140/7 
f 180/140/7 193/142/7 186/141/10 
f 188/115/10 186/141/10 193/142/7 
f 193/142/7 194/116/7 188/115/10 
f 157/114/10 188/115/10 194/116/7 
f 194/116/7 167/117/7 157/114/10 
f 195/28/7 179/29/7 172/30/10 
f 172/30/10 189/27/21 195/28/7 
f 196/143/7 195/28/7 189/27/21 
f 189/27/21 191/144/10 196/143/7 
f 168/145/7 196/143/7 191/144/10 
f 191/144/10 158/146/10 168/145/7 
f 193/142/7 180/140/7 183/149/8 
f 183/149/8 197/150/8 193/142/7 
f 194/116/7 193/142/7 197/150/8 
f 197/150/8 198/118/8 194/116/7 
f 167/117/7 194/116/7 198/118/8 
f 198/118/8 169/119/8 167/117/7 
f 199/31/8 182/32/8 179/29/7 
f 179/29/7 195/28/7 199/31/8 
f 200/151/8 199/31/8 195/28/7 
f 195/28/7 196/143/7 200/151/8 
f 170/152/23 200/151/8 196/143/7 
f 196/143/7 168/145/7 170/152/23 
f 197/150/8 183/149/8 176/155/9 
f 176/155/9 185/156/9 197/150/8 
f 198/118/8 197/150/8 185/156/9 
f 185/156/9 187/120/9 198/118/8 
f 169/119/8 198/118/8 187/120/9 
f 187/120/9 156/121/9 169/119/8 
f 190/176/22 171/169/9 182/32/8 
f 182/32/8 199/31/8 190/176/22 
f 192/177/22 190/176/22 199/31/8 
f 199/31/8 200/151/8 192/177/22 
f 155/165/22 192/177/22 200/151/8 
f 200/151/8 170/152/23 155/165/22 
# 384 faces

