# 3ds Max Wavefront OBJ Exporter v0.97b - (c)2007 guruware
# File Created: 03.10.2014 22:37:15
# UVs by headus UVLayout v2.08.01 2013/07/04 09:42:04

mtllib 45.mtl

#
# object SM_45Turn_E
#

v  -2295.4250 365.0747 -7.8739
v  -2279.6772 365.0747 -7.8739
v  -2279.6772 332.2276 -7.8739
v  -2295.4253 325.7046 -7.8739
v  -2279.6772 332.2276 7.8742
v  -2279.6772 332.2276 0.0001
v  -2279.6772 365.0747 0.0001
v  -2279.6772 365.0747 7.8741
v  -2279.6772 365.0747 11.8111
v  -2279.6772 332.2276 11.8112
v  -2287.5510 384.7597 7.8741
v  -2287.5510 384.7597 11.8111
v  -2279.6772 384.7597 11.8111
v  -2279.6772 384.7597 7.8741
v  -2287.5510 365.0747 7.8741
v  -2287.5513 328.9661 7.8742
v  -2287.5513 328.9661 11.8112
v  -2287.5510 365.0747 11.8111
v  -2098.5747 168.2244 -7.8739
v  -2137.9448 168.2243 -7.8739
v  -2131.4219 183.9723 -7.8739
v  -2098.5747 183.9724 -7.8739
v  -2098.5747 183.9724 0.0001
v  -2131.4219 183.9723 0.0001
v  -2131.4219 183.9723 7.8741
v  -2098.5747 183.9724 7.8741
v  -2131.4219 183.9723 11.8111
v  -2098.5747 183.9724 11.8111
v  -2078.8896 176.0984 7.8741
v  -2078.8896 183.9724 7.8741
v  -2078.8896 183.9724 11.8111
v  -2078.8896 176.0984 11.8111
v  -2098.5747 176.0984 7.8741
v  -2098.5747 176.0984 11.8111
v  -2134.6833 176.0983 11.8111
v  -2134.6833 176.0983 7.8741
v  -2295.4250 365.0747 125.9843
v  -2295.4253 325.7045 125.9843
v  -2279.6772 332.2276 125.9843
v  -2279.6772 365.0747 125.9843
v  -2279.6772 365.0747 118.1103
v  -2279.6772 332.2276 118.1103
v  -2279.6772 332.2276 110.2363
v  -2279.6772 365.0747 110.2363
v  -2279.6772 332.2276 106.2993
v  -2279.6772 365.0747 106.2993
v  -2287.5510 384.7597 110.2363
v  -2279.6772 384.7597 110.2363
v  -2279.6772 384.7597 106.2993
v  -2287.5510 384.7597 106.2993
v  -2287.5510 365.0747 110.2363
v  -2287.5510 365.0747 106.2993
v  -2287.5513 328.9661 106.2993
v  -2287.5513 328.9661 110.2363
v  -2098.5747 168.2243 125.9843
v  -2098.5747 183.9723 125.9843
v  -2131.4219 183.9723 125.9843
v  -2137.9448 168.2242 125.9843
v  -2131.4219 183.9723 110.2363
v  -2131.4219 183.9723 118.1103
v  -2098.5747 183.9723 118.1103
v  -2098.5747 183.9723 110.2363
v  -2098.5747 183.9723 106.2993
v  -2131.4219 183.9723 106.2993
v  -2078.8896 176.0983 110.2363
v  -2078.8896 176.0983 106.2993
v  -2078.8896 183.9723 106.2993
v  -2078.8896 183.9723 110.2363
v  -2098.5747 176.0983 110.2363
v  -2134.6833 176.0983 110.2363
v  -2134.6833 176.0983 106.2993
v  -2098.5747 176.0983 106.2993
v  -2500.0859 240.8416 110.2364
v  -2222.7852 -36.4594 110.2363
v  -2222.7852 -36.4594 106.2993
v  -2500.0859 240.8416 106.2994
v  -2219.4829 -28.6261 125.9844
v  -2492.2756 244.1668 125.9844
v  -2507.8962 237.5163 125.9844
v  -2226.0874 -44.2928 125.9844
v  -2226.0874 -44.2928 110.2363
v  -2226.0874 -44.2928 118.1104
v  -2507.8962 237.5163 118.1104
v  -2507.8962 237.5163 110.2364
v  -2507.8962 237.5163 106.2994
v  -2226.0874 -44.2928 106.2993
v  -2098.5747 -44.3741 125.9844
v  -2098.5747 -28.6261 125.9844
v  -2098.5747 -44.3741 110.2363
v  -2098.5747 -44.3741 118.1104
v  -2098.5747 -44.3741 106.2993
v  -2078.8896 -44.3741 110.2363
v  -2078.8896 -44.3741 106.2993
v  -2078.8896 -36.5001 106.2993
v  -2078.8896 -36.5001 110.2363
v  -2098.5747 -36.5001 110.2363
v  -2098.5747 -36.5001 106.2993
v  -2492.2756 365.0747 125.9844
v  -2508.0234 365.0746 125.9844
v  -2508.0234 365.0746 118.1104
v  -2508.0234 365.0746 110.2364
v  -2508.0234 365.0746 106.2994
v  -2500.1497 365.0747 106.2994
v  -2500.1497 365.0747 110.2364
v  -2500.1497 384.7597 110.2364
v  -2500.1497 384.7597 106.2994
v  -2508.0237 384.7597 106.2994
v  -2508.0237 384.7597 110.2364
v  -2500.0859 240.8416 7.8741
v  -2500.0859 240.8416 11.8111
v  -2222.7852 -36.4594 11.8111
v  -2222.7852 -36.4594 7.8741
v  -2219.4829 -28.6261 -7.8739
v  -2226.0874 -44.2928 -7.8739
v  -2507.8962 237.5163 -7.8739
v  -2492.2756 244.1668 -7.8739
v  -2507.8960 237.5163 0.0001
v  -2226.0874 -44.2928 0.0001
v  -2226.0874 -44.2928 7.8741
v  -2507.8960 237.5163 7.8741
v  -2226.0874 -44.2928 11.8111
v  -2507.8962 237.5163 11.8111
v  -2098.5747 -44.3741 -7.8739
v  -2098.5747 -28.6261 -7.8739
v  -2098.5747 -44.3741 0.0001
v  -2098.5747 -44.3741 7.8741
v  -2098.5747 -44.3741 11.8111
v  -2078.8896 -44.3741 7.8741
v  -2078.8896 -36.5001 7.8741
v  -2078.8896 -36.5001 11.8111
v  -2078.8896 -44.3741 11.8111
v  -2098.5747 -36.5001 7.8741
v  -2098.5747 -36.5001 11.8111
v  -2492.2756 365.0747 -7.8739
v  -2508.0237 262.3549 -7.8739
v  -2508.0234 365.0746 -7.8739
v  -2508.0234 365.0746 0.0001
v  -2508.0234 365.0746 7.8741
v  -2508.0234 365.0746 11.8111
v  -2500.1497 365.0747 11.8111
v  -2500.1497 365.0747 7.8741
v  -2500.1497 384.7597 7.8741
v  -2508.0234 384.7597 7.8741
v  -2508.0234 384.7597 11.8111
v  -2500.1497 384.7597 11.8111
v  -2098.5747 -28.6261 118.1103
v  -2098.5747 168.2243 118.1103
v  -2137.9448 168.2242 118.1103
v  -2219.4829 -28.6261 118.1103
v  -2492.2756 244.1668 118.1104
v  -2295.4253 325.7045 118.1103
v  -2492.2756 365.0747 118.1104
v  -2295.4250 365.0747 118.1103
v  -2098.5747 168.2244 0.0001
v  -2098.5747 -28.6261 0.0001
v  -2492.2756 365.0747 0.0001
v  -2295.4250 365.0747 0.0001
v  -2295.4253 325.7046 0.0001
v  -2492.2756 244.1668 0.0001
v  -2219.4829 -28.6261 0.0001
v  -2137.9448 168.2243 0.0001
v  -2078.8896 183.9724 -7.8739
v  -2078.8896 168.2244 -7.8739
v  -2078.8896 168.2244 0.0001
v  -2078.8896 168.2243 118.1103
v  -2078.8896 168.2243 125.9843
v  -2078.8896 183.9723 125.9843
v  -2078.8896 183.9723 118.1103
v  -2078.8896 183.9724 0.0001
v  -2078.8896 -44.3741 125.9844
v  -2078.8896 -28.6261 125.9844
v  -2078.8896 -28.6261 118.1103
v  -2078.8896 -28.6261 0.0001
v  -2078.8896 -28.6261 -7.8739
v  -2078.8896 -44.3741 -7.8739
v  -2078.8896 -44.3741 0.0001
v  -2078.8896 -44.3741 118.1104
v  -2295.4250 384.7597 -7.8739
v  -2279.6772 384.7597 -7.8739
v  -2279.6772 384.7597 0.0001
v  -2279.6772 384.7597 118.1104
v  -2279.6772 384.7597 125.9844
v  -2295.4250 384.7597 125.9844
v  -2295.4250 384.7597 118.1103
v  -2295.4250 384.7597 0.0001
v  -2492.2756 384.7597 125.9844
v  -2508.0237 384.7597 125.9844
v  -2508.0237 384.7597 118.1104
v  -2508.0234 384.7597 0.0001
v  -2508.0234 384.7597 -7.8739
v  -2492.2756 384.7597 -7.8739
v  -2492.2756 384.7597 0.0001
v  -2492.2756 384.7597 118.1104
# 193 vertices

vn -0.3015 0.3015 -0.9045
vn 0.7071 -0.0000 -0.7071
vn 0.5491 0.2275 -0.8042
vn 0.0000 0.0000 -1.0000
vn 0.9239 0.3827 0.0000
vn 1.0000 -0.0000 0.0000
vn -0.7071 0.7071 0.0000
vn 0.7071 0.7071 0.0000
vn 0.8944 0.4472 0.0000
vn -1.0000 0.0000 0.0000
vn -0.9239 -0.3827 0.0000
vn 0.3015 -0.3015 -0.9045
vn 0.2275 0.5491 -0.8042
vn -0.0000 0.7071 -0.7071
vn -0.0000 1.0000 0.0000
vn 0.3827 0.9239 0.0000
vn 0.7071 -0.7071 0.0000
vn 0.4472 0.8944 0.0000
vn 0.7071 -0.7071 -0.0000
vn 0.0000 -1.0000 0.0000
vn 0.0000 -1.0000 -0.0000
vn -0.3827 -0.9239 0.0000
vn -0.3015 0.3015 0.9045
vn 0.0000 0.0000 1.0000
vn 0.5491 0.2275 0.8042
vn 0.7071 -0.0000 0.7071
vn 0.3015 -0.3015 0.9045
vn 0.0000 0.7071 0.7071
vn 0.2275 0.5491 0.8042
vn 0.0000 1.0000 0.0000
vn -0.3827 -0.9239 -0.0000
vn 0.9238 0.3829 0.0000
vn 0.3828 0.9238 0.0000
vn -0.7171 -0.2974 0.6303
vn -0.2973 -0.7171 0.6303
vn -0.3830 -0.9238 0.0000
vn -0.9237 -0.3831 0.0000
vn -0.3830 -0.9238 -0.0000
vn -0.0002 -0.7072 0.7070
vn 0.3015 0.3015 0.9045
vn -0.0003 -1.0000 0.0000
vn -0.0003 -1.0000 -0.0000
vn 0.4472 -0.8944 0.0000
vn 0.0002 1.0000 0.0000
vn -0.7072 -0.0004 0.7070
vn -1.0000 -0.0005 0.0000
vn -1.0000 -0.0005 -0.0000
vn 1.0000 0.0003 0.0000
vn -0.7071 0.7071 -0.0000
vn -0.8944 0.4472 0.0000
vn -0.2973 -0.7171 -0.6303
vn -0.7171 -0.2974 -0.6303
vn -0.9237 -0.3831 -0.0000
vn -0.0002 -0.7072 -0.7070
vn 0.3015 0.3015 -0.9045
vn -0.7072 -0.0004 -0.7070
vn 0.5774 0.5774 -0.5774
vn 0.5774 -0.5774 -0.5773
vn -0.0000 -0.0000 -1.0000
vn -0.0000 0.0000 -1.0000
vn 0.5773 0.5774 -0.5774
vn -0.5774 0.5774 -0.5773
vn 0.5774 -0.5774 0.5773
vn 0.5774 0.5774 0.5774
vn -0.5774 0.5774 0.5773
vn 0.0000 0.7071 -0.7071
vn 0.0000 -0.7071 -0.7071
vn 0.0000 -0.7071 0.7071
vn -0.7071 0.0000 -0.7071
vn 0.7071 0.0000 -0.7071
vn 1.0000 0.0000 0.0000
vn -0.7071 -0.0000 0.7071
vn 0.7071 0.0000 0.7071
vn -1.0000 -0.0000 0.0000
vn 0.0001 0.7080 -0.7062
vn 0.5000 0.5000 -0.7071
vn 0.7085 0.0002 -0.7057
vn 0.7085 0.0002 0.7057
vn 0.5000 0.5000 0.7071
vn -0.5000 -0.5000 -0.7071
vn -0.5000 -0.5000 0.7071
vn -0.7071 0.0000 0.7071
vn 0.0001 0.7080 0.7062
vn 1.0000 -0.0000 -0.0000
# 84 vertex normals

# 385 texture coords
vt 0.183274 0.828149
vt 0.279379 0.722674
vt 0.279378 0.720613
vt 0.287978 0.720613
vt 0.287978 0.722674
vt 0.287979 0.723703
vt 0.279379 0.723704
vt 0.293133 0.723702
vt 0.293131 0.722670
vt 0.142052 0.786918
vt 0.215895 0.720623
vt 0.224493 0.720622
vt 0.224493 0.722683
vt 0.215893 0.722684
vt 0.224493 0.723713
vt 0.215893 0.723715
vt 0.210740 0.722683
vt 0.210740 0.723715
vt 0.068348 0.746719
vt 0.287981 0.751530
vt 0.279382 0.751532
vt 0.279382 0.749471
vt 0.287981 0.749469
vt 0.279382 0.748440
vt 0.287981 0.748437
vt 0.293135 0.749469
vt 0.293135 0.748437
vt 0.027116 0.787941
vt 0.224497 0.749478
vt 0.224497 0.751539
vt 0.215898 0.751540
vt 0.215897 0.749479
vt 0.215897 0.748449
vt 0.224497 0.748449
vt 0.210743 0.748450
vt 0.210745 0.749481
vt 0.048460 0.839474
vt 0.119878 0.768072
vt 0.163809 0.704718
vt 0.163807 0.706778
vt 0.059477 0.706781
vt 0.059477 0.704721
vt 0.059478 0.703692
vt 0.163809 0.703690
vt 0.197189 0.704731
vt 0.197189 0.706795
vt 0.197189 0.703701
vt 0.202343 0.704733
vt 0.202343 0.703702
vt 0.026083 0.706782
vt 0.026084 0.704718
vt 0.026084 0.703686
vt 0.020930 0.703684
vt 0.020930 0.704716
vt 0.163408 0.735390
vt 0.234807 0.806802
vt 0.059482 0.675869
vt 0.163814 0.675867
vt 0.163814 0.677926
vt 0.059482 0.677931
vt 0.163814 0.678955
vt 0.059481 0.678959
vt 0.197195 0.675875
vt 0.197195 0.677936
vt 0.197195 0.678965
vt 0.202349 0.677935
vt 0.202350 0.678967
vt 0.026089 0.675853
vt 0.026089 0.677917
vt 0.026089 0.678949
vt 0.020935 0.677917
vt 0.020935 0.678949
vt 0.210745 0.751541
vt 0.210741 0.720621
vt 0.202349 0.675874
vt 0.202343 0.706795
vt 0.293130 0.720609
vt 0.293134 0.751530
vt 0.020929 0.706777
vt 0.020935 0.675854
vt 0.295193 0.723700
vt 0.295196 0.748437
vt 0.279383 0.753593
vt 0.224497 0.753601
vt 0.208683 0.748450
vt 0.208679 0.723715
vt 0.224493 0.718560
vt 0.279378 0.718552
vt 0.295192 0.722669
vt 0.295196 0.749469
vt 0.287981 0.753591
vt 0.287976 0.718552
vt 0.215898 0.753601
vt 0.208683 0.749482
vt 0.208679 0.722682
vt 0.215895 0.718562
vt 0.293129 0.718548
vt 0.297252 0.720605
vt 0.297257 0.751531
vt 0.293134 0.753591
vt 0.210746 0.753602
vt 0.206622 0.751543
vt 0.206618 0.720619
vt 0.210742 0.718560
vt 0.297249 0.718543
vt 0.297256 0.753592
vt 0.206624 0.753605
vt 0.206620 0.718556
vt 0.302407 0.720593
vt 0.302402 0.718532
vt 0.302409 0.753597
vt 0.302411 0.751536
vt 0.201468 0.751553
vt 0.201472 0.753614
vt 0.201467 0.718551
vt 0.201465 0.720612
vt 0.018868 0.703684
vt 0.018874 0.678949
vt 0.059482 0.673808
vt 0.163814 0.673808
vt 0.204411 0.678967
vt 0.204404 0.703702
vt 0.163807 0.708838
vt 0.059477 0.708842
vt 0.018868 0.704714
vt 0.018874 0.677917
vt 0.026089 0.673792
vt 0.026083 0.708844
vt 0.197195 0.673813
vt 0.204411 0.677935
vt 0.204405 0.704733
vt 0.197189 0.708856
vt 0.020928 0.708839
vt 0.016806 0.706777
vt 0.016812 0.675854
vt 0.020935 0.673793
vt 0.202348 0.673813
vt 0.206472 0.675873
vt 0.206466 0.706795
vt 0.202343 0.708856
vt 0.016806 0.708838
vt 0.016813 0.673793
vt 0.206470 0.673810
vt 0.206466 0.708856
vt 0.011651 0.706781
vt 0.011653 0.708842
vt 0.011661 0.673787
vt 0.011657 0.675849
vt 0.211627 0.675864
vt 0.211623 0.673801
vt 0.211618 0.708862
vt 0.211621 0.706801
vt 0.123966 0.769814
vt 0.050189 0.843575
vt 0.025406 0.783817
vt 0.064225 0.745011
vt 0.064231 0.736409
vt 0.068354 0.734347
vt 0.119885 0.734365
vt 0.119885 0.736423
vt 0.068353 0.736409
vt 0.124009 0.736423
vt 0.016810 0.843601
vt 0.016812 0.839477
vt 0.014752 0.839477
vt 0.014742 0.787946
vt 0.016806 0.787944
vt 0.016806 0.783823
vt 0.064232 0.731255
vt 0.068354 0.731258
vt 0.119885 0.731269
vt 0.124008 0.731269
vt 0.011657 0.843598
vt 0.011658 0.839475
vt 0.011653 0.787947
vt 0.011651 0.783824
vt 0.165139 0.731289
vt 0.238918 0.805067
vt 0.179150 0.829858
vt 0.140343 0.791040
vt 0.131740 0.791033
vt 0.129682 0.786910
vt 0.129699 0.735378
vt 0.131760 0.735378
vt 0.131743 0.786911
vt 0.131760 0.731255
vt 0.238901 0.811569
vt 0.238929 0.838457
vt 0.234807 0.838454
vt 0.234808 0.840514
vt 0.183275 0.840518
vt 0.183275 0.838457
vt 0.179153 0.838457
vt 0.126587 0.791029
vt 0.126591 0.786906
vt 0.126606 0.735378
vt 0.126606 0.731256
vt 0.238923 0.843611
vt 0.234800 0.843606
vt 0.183279 0.843610
vt 0.179155 0.843611
vt 0.996265 0.965223
vt 0.996270 0.971463
vt 0.965068 0.971489
vt 0.965062 0.965248
vt 0.996252 0.947573
vt 0.965049 0.947596
vt 0.996261 0.965223
vt 0.996264 0.971463
vt 0.965061 0.971480
vt 0.965057 0.965239
vt 0.996253 0.947573
vt 0.965049 0.947587
vt 0.297325 0.557282
vt 0.328527 0.557331
vt 0.328291 0.707105
vt 0.297087 0.707056
vt 0.965049 0.000023
vt 0.996253 0.000000
vt 0.996257 0.006240
vt 0.965055 0.006265
vt 0.996271 0.023891
vt 0.965069 0.023916
vt 0.297325 0.557282
vt 0.328527 0.557331
vt 0.328290 0.707105
vt 0.297087 0.707056
vt 0.965049 0.000021
vt 0.996252 0.000000
vt 0.996256 0.006240
vt 0.965053 0.006261
vt 0.996267 0.023891
vt 0.965065 0.023911
vt 0.057236 0.864493
vt 0.057236 0.858253
vt 0.000000 0.858257
vt 0.000000 0.864498
vt 0.000001 0.882150
vt 0.062408 0.882144
vt 0.665400 0.361317
vt 0.665003 0.511091
vt 0.607768 0.510939
vt 0.608165 0.361165
vt 0.073795 0.062312
vt 0.073787 0.068552
vt 0.131023 0.068627
vt 0.131031 0.062387
vt 0.136224 0.044743
vt 0.073818 0.044660
vt 0.982804 0.242900
vt 0.982802 0.249146
vt 0.640121 0.249135
vt 0.640123 0.242900
vt 0.987973 0.225243
vt 0.634952 0.225255
vt 0.655303 0.747573
vt 0.655303 0.897347
vt 0.312622 0.897345
vt 0.312622 0.747573
vt 0.014878 0.924695
vt 0.014880 0.918447
vt 0.357561 0.918462
vt 0.357560 0.924695
vt 0.009709 0.942353
vt 0.362730 0.942337
vt 0.800003 0.972816
vt 0.800000 0.979057
vt 0.996923 0.979118
vt 0.996925 0.972878
vt 0.991654 0.996697
vt 0.800001 0.996709
vt 0.782525 0.409967
vt 0.783085 0.260195
vt 0.980007 0.260932
vt 0.979446 0.410706
vt 0.000000 0.907375
vt 0.196923 0.907428
vt 0.196924 0.901182
vt 0.000001 0.901140
vt 0.191663 0.883593
vt 0.000010 0.883495
vt 0.965055 0.006263
vt 0.965049 0.000022
vt 0.996253 0.000000
vt 0.996257 0.006240
vt 0.965068 0.023914
vt 0.996271 0.023891
vt 0.996252 0.971487
vt 0.965049 0.971466
vt 0.965053 0.965225
vt 0.996257 0.965247
vt 0.965066 0.947573
vt 0.996270 0.947596
vt 0.328290 0.707056
vt 0.297087 0.707056
vt 0.297087 0.557282
vt 0.328291 0.557282
vt 0.996270 0.971465
vt 0.965068 0.971488
vt 0.965062 0.965248
vt 0.996265 0.965223
vt 0.996252 0.947573
vt 0.965049 0.947596
vt 0.328290 0.707105
vt 0.297087 0.707056
vt 0.297325 0.557282
vt 0.328527 0.557331
vt 0.965053 0.006262
vt 0.965049 0.000021
vt 0.996252 0.000000
vt 0.996256 0.006240
vt 0.996269 0.023891
vt 0.965066 0.023913
vt 0.000006 0.864553
vt 0.000000 0.858314
vt 0.057236 0.858253
vt 0.057242 0.864496
vt 0.062430 0.882144
vt 0.000023 0.882202
vt 0.665402 0.361317
vt 0.665003 0.511091
vt 0.607768 0.510939
vt 0.608166 0.361165
vt 0.131024 0.062319
vt 0.131023 0.068559
vt 0.073787 0.068552
vt 0.073788 0.062312
vt 0.073791 0.044660
vt 0.136196 0.044669
vt 0.800001 0.979088
vt 0.800000 0.972848
vt 0.996886 0.972816
vt 0.996888 0.979057
vt 0.991660 0.996665
vt 0.800008 0.996739
vt 0.782525 0.409967
vt 0.783094 0.260195
vt 0.979980 0.260944
vt 0.979410 0.410718
vt 0.196888 0.901100
vt 0.196890 0.907340
vt 0.000003 0.907405
vt 0.000001 0.901164
vt 0.191652 0.883495
vt 0.000000 0.883512
vt 0.009709 0.015957
vt 0.009710 0.009709
vt 0.631331 0.009723
vt 0.631330 0.015956
vt 0.014789 0.033614
vt 0.626303 0.033600
vt 0.365048 0.204144
vt 0.365048 0.054369
vt 0.986667 0.054369
vt 0.986667 0.204144
vt 0.631330 0.980758
vt 0.631330 0.987000
vt 0.009709 0.986997
vt 0.009709 0.980757
vt 0.014789 0.963107
vt 0.626303 0.963107
vt 0.654368 0.333515
vt 0.654575 0.271110
vt 0.342549 0.270060
vt 0.341904 0.461711
vt 0.321738 0.534694
vt 0.009709 0.663943
vt 0.009709 0.052427
vt 0.321738 0.181675
vt 0.654282 0.332950
vt 0.342154 0.461961
vt 0.342300 0.270308
vt 0.654330 0.270545
vt 0.652339 0.598960
vt 0.340218 0.727985
vt 0.340352 0.536334
vt 0.652383 0.536553
vt 0.987758 0.858967
vt 0.675729 0.988213
vt 0.675729 0.376699
vt 0.987758 0.505946
vt 0.652423 0.599537
vt 0.652636 0.537129
vt 0.340609 0.536079
vt 0.339962 0.727733
# 241 texture coords

g SM_45Turn_E
usemtl Test
s 1
f 1/192/1 2/193/2 3/179/3 4/1/4
f 5/2/5 6/3/5 7/4/6 8/5/6
f 5/2/5 8/5/6 9/6/6 10/7/5
f 11/89/7 12/81/7 13/8/8 14/9/9
f 15/327/10 16/324/11 17/325/11 18/326/10
f 19/185/12 20/10/4 21/180/13 22/181/14
f 23/11/15 24/12/16 25/13/16 26/14/15
f 25/13/16 27/15/16 28/16/15 26/14/15
f 29/95/17 30/17/18 31/18/8 32/86/19
f 33/244/20 34/245/21 35/246/22 36/247/22
f 16/253/11 36/250/22 35/251/22 17/252/11
f 10/7/5 27/15/16 25/13/16 5/2/5
f 3/88/3 6/3/5 24/12/16 21/87/13
f 3/179/3 21/180/13 20/10/4 4/1/4
f 37/161/23 38/19/24 39/156/25 40/157/26
f 41/20/6 42/21/5 43/22/5 44/23/6
f 43/22/5 45/24/5 46/25/6 44/23/6
f 47/90/7 48/26/9 49/27/8 50/82/7
f 51/314/10 52/315/10 53/316/11 54/317/11
f 55/167/27 56/168/28 57/155/29 58/28/24
f 59/29/16 60/30/16 61/31/30 62/32/30
f 59/29/16 62/32/30 63/33/15 64/34/16
f 65/94/17 66/85/19 67/35/8 68/36/18
f 69/237/20 70/234/22 71/235/31 72/236/21
f 54/260/11 53/261/11 71/262/31 70/263/22
f 45/24/5 43/22/5 59/29/16 64/34/16
f 60/30/16 42/21/5 39/83/25 57/84/29
f 39/156/25 38/19/24 58/28/24 57/155/29
f 73/349/32 74/346/33 75/347/33 76/348/32
f 77/37/24 78/38/24 79/153/34 80/154/35
f 81/39/36 82/40/36 83/41/37 84/42/37
f 81/39/36 84/42/37 85/43/37 86/44/38
f 87/163/39 88/164/40 77/37/24 80/154/35
f 89/45/41 90/46/41 82/40/36 81/39/36
f 91/47/42 89/45/41 81/39/36 86/44/38
f 92/48/43 93/49/17 94/122/8 95/131/8
f 96/330/44 97/331/44 75/332/33 74/333/33
f 78/38/24 98/160/40 99/162/45 79/153/34
f 84/42/37 83/41/37 100/50/46 101/51/46
f 101/51/46 102/52/47 85/43/37 84/42/37
f 103/266/48 104/267/48 73/268/32 76/269/32
f 105/125/8 106/117/8 107/53/49 108/54/50
f 109/356/32 110/357/32 111/358/33 112/359/33
f 113/55/4 114/177/51 115/178/52 116/56/4
f 117/57/37 118/58/38 119/59/38 120/60/53
f 119/59/38 121/61/36 122/62/53 120/60/53
f 123/186/54 114/177/51 113/55/4 124/184/55
f 118/58/38 125/63/42 126/64/42 119/59/38
f 127/65/42 121/61/36 119/59/38 126/64/42
f 128/66/43 129/130/8 130/121/8 131/67/17
f 132/343/44 112/340/33 111/341/33 133/342/44
f 134/189/55 116/56/4 135/187/4 136/188/56
f 116/56/4 115/178/52 135/187/4
f 117/57/37 137/68/46 136/127/56 115/119/52
f 135/187/4 115/178/52 136/188/56
f 138/69/47 120/60/53 122/62/53 139/70/46
f 140/276/48 110/277/32 109/278/32 141/279/48
f 142/126/8 143/71/50 144/72/49 145/118/8
f 31/18/8 67/35/8 66/85/19 32/86/19
f 34/240/21 72/241/21 71/242/31 35/243/22
f 35/256/22 71/257/31 53/258/11 17/259/11
f 17/320/11 53/321/11 52/322/10 18/323/10
f 12/81/7 50/82/7 49/27/8 13/8/8
f 9/6/6 46/25/6 45/24/5 10/7/5
f 10/7/5 45/24/5 64/34/16 27/15/16
f 27/15/16 64/34/16 63/33/15 28/16/15
f 106/117/8 145/118/8 144/72/49 107/53/49
f 102/52/47 139/70/46 122/62/53 85/43/37
f 85/43/37 122/62/53 121/61/36 86/44/38
f 86/44/38 121/61/36 127/65/42 91/47/42
f 93/49/17 131/67/17 130/121/8 94/122/8
f 97/336/44 133/337/44 111/338/33 75/339/33
f 75/352/33 111/353/33 110/354/32 76/355/32
f 76/272/32 110/273/32 140/274/48 103/275/48
f 55/167/27 88/164/40 146/165/57 147/166/58
f 148/382/59 147/383/58 146/384/57 149/385/60
f 148/378/59 149/379/60 150/380/59 151/381/59
f 151/374/59 150/375/59 152/376/61 153/377/62
f 153/158/62 152/159/61 98/160/40 37/161/23
f 38/19/24 37/161/23 98/160/40 78/38/24
f 38/19/24 78/38/24 77/37/24 58/28/24
f 58/28/24 77/37/24 88/164/40 55/167/27
f 154/182/63 155/183/64 124/184/55 19/185/12
f 20/10/4 19/185/12 124/184/55 113/55/4
f 20/10/4 113/55/4 116/56/4 4/1/4
f 4/1/4 116/56/4 134/189/55 1/192/1
f 1/192/1 134/189/55 156/190/64 157/191/65
f 158/362/24 157/363/65 156/364/64 159/365/24
f 158/366/24 159/367/24 160/368/24 161/369/24
f 161/370/24 160/371/24 155/372/64 154/373/63
f 22/181/14 162/194/66 163/195/67 19/185/12
f 19/115/12 163/108/67 164/103/20 154/116/63
f 33/211/20 29/208/17 32/209/19 34/210/21
f 34/214/21 32/215/19 66/216/19 72/217/21
f 72/218/21 66/219/19 65/220/17 69/221/20
f 147/113/58 165/102/20 166/107/68 55/114/27
f 55/167/27 166/175/68 167/176/28 56/168/28
f 62/32/30 61/31/30 168/73/30 68/36/18
f 62/32/30 68/36/18 67/35/8 63/33/15
f 63/33/15 67/35/8 31/18/8 28/16/15
f 28/16/15 31/18/8 30/17/18 26/14/15
f 22/96/14 23/11/15 169/74/30 162/104/66
f 87/163/39 170/173/68 171/174/28 88/164/40
f 88/151/40 171/144/28 172/139/30 146/152/57
f 96/285/44 95/282/8 94/283/8 97/284/44
f 97/294/44 94/295/8 130/296/8 133/297/44
f 133/288/44 130/289/8 129/290/8 132/291/44
f 155/149/64 173/138/30 174/143/66 124/150/55
f 124/184/55 174/196/66 175/197/67 123/186/54
f 126/64/42 125/63/42 176/75/20 128/66/43
f 126/64/42 128/66/43 131/67/17 127/65/42
f 127/65/42 131/67/17 93/49/17 91/47/42
f 91/47/42 93/49/17 92/48/43 89/45/41
f 87/132/39 90/46/41 177/76/20 170/140/68
f 1/192/1 178/200/69 179/201/70 2/193/2
f 8/5/6 7/4/6 180/77/71 14/9/9
f 8/5/6 14/9/9 13/8/8 9/6/6
f 9/6/6 13/8/8 49/27/8 46/25/6
f 46/25/6 49/27/8 48/26/9 44/23/6
f 40/91/26 41/20/6 181/78/71 182/100/26
f 40/157/26 182/169/26 183/170/72 37/161/23
f 37/111/23 183/106/72 184/99/10 153/112/62
f 51/311/10 47/308/7 50/309/7 52/310/10
f 52/304/10 50/305/7 12/306/7 18/307/10
f 18/298/10 12/299/7 11/300/7 15/301/10
f 157/109/65 185/98/10 178/105/69 1/110/1
f 98/160/40 186/171/73 187/172/72 99/162/45
f 101/51/46 100/50/46 188/79/74 108/54/50
f 101/51/46 108/54/50 107/53/49 102/52/47
f 102/52/47 107/53/49 144/72/49 139/70/46
f 139/70/46 144/72/49 143/71/50 138/69/47
f 136/127/56 137/68/46 189/80/10 190/136/69
f 136/188/56 190/198/69 191/199/70 134/189/55
f 134/147/55 191/142/70 192/135/71 156/148/64
f 141/205/48 142/202/8 145/203/8 140/204/48
f 140/224/48 145/225/8 106/226/8 103/227/48
f 103/228/48 106/229/8 105/230/8 104/231/48
f 152/145/61 193/134/71 186/141/73 98/146/40
s off
f 172/286/66 95/282/66 96/285/66 146/287/66
f 96/330/75 74/333/75 149/334/75 146/335/75
f 149/350/76 74/346/76 73/349/76 150/351/76
f 105/230/70 193/232/70 152/233/70 104/231/70
f 150/270/77 73/268/77 104/267/77 152/271/77
f 141/279/78 109/278/78 159/280/78 156/281/78
f 112/359/79 160/360/79 159/361/79 109/356/79
f 192/206/73 142/202/73 141/205/73 156/207/73
f 54/317/69 151/318/69 153/319/69 51/314/69
f 151/264/80 54/260/80 70/263/80 148/265/80
f 51/311/69 153/312/69 184/313/69 47/308/69
f 161/254/81 36/250/81 16/253/81 158/255/81
f 157/328/82 158/329/82 16/324/82 15/327/82
f 157/302/82 15/301/82 11/300/82 185/303/82
f 36/247/68 161/248/68 154/249/68 33/244/68
f 164/212/68 29/208/68 33/211/68 154/213/68
f 147/238/67 148/239/67 70/234/67 69/237/67
f 65/220/67 165/222/67 147/223/67 69/221/67
f 160/344/83 112/340/83 132/343/83 155/345/83
f 129/290/28 173/292/28 155/293/28 132/291/28
s 1
f 3/88/3 2/92/2 7/4/6 6/3/5
f 22/96/14 21/87/13 24/12/16 23/11/15
f 5/2/5 25/13/16 24/12/16 6/3/5
f 40/91/26 39/83/25 42/21/5 41/20/6
f 57/84/29 56/93/28 61/31/30 60/30/16
f 59/29/16 43/22/5 42/21/5 60/30/16
f 80/123/35 79/124/34 83/41/37 82/40/36
f 87/132/39 80/123/35 82/40/36 90/46/41
f 115/119/52 114/120/51 118/58/38 117/57/37
f 114/120/51 123/129/54 125/63/42 118/58/38
f 120/60/53 138/69/47 137/68/46 117/57/37
f 56/93/28 167/101/28 168/73/30 61/31/30
f 26/14/15 30/17/18 169/74/30 23/11/15
f 123/129/54 175/137/67 176/75/20 125/63/42
f 89/45/41 92/48/43 177/76/20 90/46/41
f 2/92/2 179/97/70 180/77/71 7/4/6
f 44/23/6 48/26/9 181/78/71 41/20/6
f 138/69/47 143/71/50 189/80/10 137/68/46
s off
f 129/130/71 128/66/71 176/75/71 173/138/71
f 174/143/71 173/138/71 176/75/71 175/137/71
f 177/76/71 172/139/71 171/144/71 170/140/71
f 177/76/71 92/48/71 95/131/71 172/139/71
f 168/73/84 165/102/84 65/94/84 68/36/84
f 165/102/6 168/73/6 167/101/6 166/107/6
f 169/74/6 30/17/6 29/95/6 164/103/6
f 162/104/6 169/74/6 164/103/6 163/108/6
s 1
f 99/128/45 187/133/72 188/79/74 100/50/46
f 79/124/34 99/128/45 100/50/46 83/41/37
s off
f 187/133/30 186/141/30 193/134/30 188/79/30
f 105/125/30 108/54/30 188/79/30 193/134/30
f 189/80/30 143/71/30 142/126/30 192/135/30
f 190/136/30 189/80/30 192/135/30 191/142/30
f 180/77/30 185/98/30 11/89/30 14/9/30
f 178/105/30 185/98/30 180/77/30 179/97/30
f 181/78/30 48/26/30 47/90/30 184/99/30
f 184/99/30 183/106/30 182/100/30 181/78/30
# 192 polygons - 2 triangles

