# 3ds Max Wavefront OBJ Exporter v0.97b - (c)2007 guruware
# File Created: 06.10.2014 00:09:13
# UVs by headus UVLayout v2.08.01 2013/07/04 09:42:04

mtllib BasicDoor.mtl

#
# object Box003
#

v  -59.0551 -3.9370 54.4155
v  -59.0551 -3.9370 28.1754
v  -8.5551 -3.9370 28.1754
v  6.8591 -3.9370 54.4155
v  6.8591 3.9370 54.4155
v  -8.5551 3.9370 28.1754
v  -59.0551 3.9370 28.1754
v  -59.0551 3.9370 54.4155
v  -8.4945 -3.9370 0.0000
v  -59.0551 -3.9370 0.0000
v  -8.4945 3.9370 0.0000
v  -59.0551 3.9370 0.0000
v  -7.7071 3.1496 0.0000
v  -7.7071 3.1496 28.1754
v  -7.7071 -3.1496 28.1754
v  -7.7071 -3.1496 0.0000
v  7.7071 3.1496 54.4155
v  7.7071 -3.1496 54.4155
v  6.8591 3.9370 98.4252
v  -59.0551 3.9370 98.4252
v  7.7071 -3.1496 98.4252
v  7.7071 3.1496 98.4252
v  6.8591 -3.9370 98.4252
v  -59.0551 -3.9370 98.4252
v  73.7180 3.9370 54.4155
v  23.2180 3.9370 54.4155
v  23.2388 3.9370 98.4252
v  73.7180 3.9370 98.4252
v  7.7432 3.9370 0.0000
v  7.8038 3.9370 28.1754
v  73.7180 3.9370 28.1754
v  73.7180 3.9370 0.0000
v  23.2388 -3.9370 98.4252
v  23.2180 -3.9370 54.4155
v  73.7180 -3.9370 54.4155
v  73.7180 -3.9370 98.4252
v  73.7180 -3.9370 28.1754
v  7.8038 -3.9370 28.1754
v  7.7432 -3.9370 0.0000
v  73.7180 -3.9370 0.0000
v  22.3700 -3.1496 98.4252
v  22.3700 3.1496 98.4252
v  22.3700 3.1496 54.4155
v  22.3700 -3.1496 54.4155
v  6.9558 3.1496 28.1754
v  6.9558 -3.1496 28.1754
v  6.9558 -3.1496 0.0000
v  6.9558 3.1496 0.0000
# 48 vertices

vn 0.0000 -1.0000 0.0000
vn 0.0000 1.0000 0.0000
vn 1.0000 0.0000 0.0000
vn 0.6936 -0.7203 0.0007
vn 0.6936 0.7203 0.0007
vn 0.8622 0.0000 -0.5065
vn 0.6318 -0.6804 -0.3712
vn 0.6318 0.6804 -0.3712
vn 0.6804 -0.7328 0.0000
vn 0.6804 0.7328 0.0000
vn -1.0000 0.0000 0.0000
vn -0.8622 0.0000 0.5065
vn -0.6760 0.7369 0.0002
vn -0.6936 0.7203 0.0007
vn -0.6760 -0.7369 0.0002
vn -0.6318 0.6804 0.3712
vn -0.6936 -0.7203 0.0007
vn -0.6318 -0.6804 0.3712
# 18 vertex normals

# 64 texture coords
vt 0.366869 0.647102
vt 0.441188 0.773776
vt 0.668304 0.274632
vt 0.742601 0.147946
vt 0.904866 0.773510
vt 0.979158 0.646817
vt 0.147417 0.274351
vt 0.073122 0.147660
vt 0.097852 0.985941
vt 0.067453 0.985941
vt 0.067453 0.773557
vt 0.097852 0.773557
vt 0.067453 0.626695
vt 0.097852 0.626695
vt 0.097852 0.490725
vt 0.067453 0.490725
vt 0.123103 0.986085
vt 0.123110 0.773687
vt 0.441203 0.986043
vt 0.123153 0.647056
vt 0.446730 0.773387
vt 0.446797 0.985990
vt 0.123134 0.511099
vt 0.367118 0.511013
vt 0.372434 0.646707
vt 0.372479 0.510961
vt 0.391134 0.274434
vt 0.391138 0.486799
vt 0.147545 0.486855
vt 0.141897 0.486907
vt 0.141853 0.274746
vt 0.391200 0.147810
vt 0.067580 0.148051
vt 0.072839 0.011804
vt 0.391233 0.011830
vt 0.067453 0.011861
vt 0.986382 0.274491
vt 0.986426 0.486887
vt 0.668327 0.486899
vt 0.662732 0.486847
vt 0.662761 0.274244
vt 0.986318 0.147860
vt 0.737036 0.147551
vt 0.742333 0.011856
vt 0.986317 0.011906
vt 0.736973 0.011804
vt 0.904735 0.986015
vt 0.661143 0.985956
vt 0.661150 0.773592
vt 0.661081 0.646971
vt 0.910431 0.773905
vt 0.910382 0.986066
vt 0.984700 0.647208
vt 0.661046 0.510992
vt 0.979439 0.510961
vt 0.984824 0.511018
vt 0.042203 0.147774
vt 0.042203 0.294637
vt 0.011804 0.294637
vt 0.011804 0.147774
vt 0.011804 0.507020
vt 0.042203 0.507020
vt 0.042203 0.011804
vt 0.011804 0.011804
# 30 texture coords

g Box003
usemtl Material__3
s 8
f 1/18/1 2/20/1 3/1/1 4/2/1
s 32
f 5/3/2 6/4/2 7/42/2 8/37/2
s 8
f 9/24/1 3/1/1 2/20/1 10/23/1
s 32
f 7/42/2 6/4/2 11/44/2 12/45/2
s off
f 13/63/3 14/57/3 15/60/3 16/64/3
f 16/26/4 15/25/4 3/1/4 9/24/4
f 11/44/5 6/4/5 14/43/5 13/46/5
f 14/57/6 17/58/6 18/59/6 15/60/6
f 3/1/7 15/25/7 18/21/7 4/2/7
f 5/3/8 17/41/8 14/43/8 6/4/8
f 19/39/2 5/3/2 8/37/2 20/38/2
f 21/61/3 18/59/3 17/58/3 22/62/3
f 23/19/9 4/2/9 18/21/9 21/22/9
f 22/40/10 17/41/10 5/3/10 19/39/10
f 24/17/1 1/18/1 4/2/1 23/19/1
s 32
f 25/49/2 26/5/2 27/47/2 28/48/2
f 29/55/2 30/6/2 31/50/2 32/54/2
s 8
f 33/29/1 34/7/1 35/27/1 36/28/1
s 32
f 30/6/2 26/5/2 25/49/2 31/50/2
s 8
f 37/32/1 38/8/1 39/34/1 40/35/1
f 34/7/1 38/8/1 37/32/1 35/27/1
s off
f 41/9/11 42/10/11 43/11/11 44/12/11
f 43/11/12 45/13/12 46/14/12 44/12/12
f 47/15/11 46/14/11 45/13/11 48/16/11
f 27/47/13 26/5/13 43/51/13 42/52/13
f 48/56/14 45/53/14 30/6/14 29/55/14
f 41/30/15 44/31/15 34/7/15 33/29/15
f 43/51/16 26/5/16 30/6/16 45/53/16
f 39/34/17 38/8/17 46/33/17 47/36/17
f 46/33/18 38/8/18 34/7/18 44/31/18
# 30 polygons

