# 3ds Max Wavefront OBJ Exporter v0.97b - (c)2007 guruware
# File Created: 01.10.2014 18:48:25
# UVs by headus UVLayout v2.08.01 2013/07/04 09:42:04

#
# object SM_Door_Basic_E
#

v  0.0000 -3.9370 0.0000
v  0.0000 3.9370 0.0000
v  47.2441 3.9370 0.0000
v  47.2441 -3.9370 0.0000
v  0.0000 -3.9370 102.3622
v  47.2441 -3.9370 102.3622
v  47.2441 3.9370 102.3622
v  0.0000 3.9370 102.3622
v  35.0516 -3.9370 4.3180
v  35.0516 -3.9370 13.5116
v  4.3180 -3.9370 13.5116
v  4.3180 -3.9370 4.3180
v  47.2441 3.9370 13.5116
v  47.2441 -3.9370 13.5116
v  4.3180 3.9370 4.3180
v  4.3180 3.9370 13.5116
v  35.0516 3.9370 13.5116
v  35.0516 3.9370 4.3180
v  0.0000 -3.9370 13.5116
v  0.0000 3.9370 13.5116
v  4.3180 -3.9370 95.7305
v  35.0516 -3.9370 95.7305
v  0.0000 -3.9370 87.6938
v  4.3180 -3.9370 87.6938
v  35.0516 3.9370 95.7305
v  4.3180 3.9370 95.7305
v  47.2441 3.9370 87.6938
v  35.0516 3.9370 87.6938
v  35.0516 -3.9370 87.6938
v  47.2441 -3.9370 87.6938
v  4.3180 3.9370 87.6938
v  0.0000 3.9370 87.6938
v  8.6360 -3.2221 46.2847
v  8.6360 -3.2221 17.8295
v  30.7337 -3.2221 17.8295
v  30.7337 -3.2221 46.2847
v  47.2441 -3.9370 50.6027
v  47.2441 3.9370 50.6027
v  30.7337 3.2221 46.2847
v  30.7337 3.2221 17.8295
v  8.6360 3.2221 17.8295
v  8.6360 3.2221 46.2847
v  0.0000 3.9370 50.6027
v  0.0000 -3.9370 50.6027
v  35.0516 -3.9370 50.6027
v  4.3180 -3.9370 50.6027
v  4.3180 3.9370 50.6027
v  35.0516 3.9370 50.6027
v  30.7337 -3.2221 54.9207
v  30.7337 -3.2221 83.3758
v  8.6360 -3.2221 83.3758
v  8.6360 -3.2221 54.9207
v  8.6360 3.2221 54.9207
v  8.6360 3.2221 83.3758
v  30.7337 3.2221 83.3758
v  30.7337 3.2221 54.9207
# 56 vertices

vn 0.0000 0.0000 -1.0000
vn 0.0000 0.0000 1.0000
vn 0.0000 -1.0000 0.0000
vn 1.0000 0.0000 0.0000
vn 0.0000 1.0000 0.0000
vn -1.0000 0.0000 0.0000
vn 0.0000 -1.0000 -0.0000
vn -0.0000 1.0000 0.0000
vn -0.0000 -1.0000 0.0000
vn 0.0000 1.0000 -0.0000
vn -0.0000 1.0000 -0.0000
vn -0.1633 -0.9866 0.0000
vn 0.0000 -0.9866 -0.1633
vn 0.1633 -0.9866 0.0000
vn 0.0000 -0.9866 0.1633
vn 0.1633 0.9866 0.0000
vn -0.0000 0.9866 -0.1633
vn -0.1633 0.9866 -0.0000
vn 0.0000 0.9866 0.1633
vn -0.0000 0.9866 0.1633
vn 0.1633 0.9866 -0.0000
# 21 vertex normals

# 84 texture coords
vt 0.881203 0.041761
vt 0.881252 0.130580
vt 0.584198 0.130541
vt 0.584314 0.041726
vt 0.584274 0.041726
vt 0.584163 0.130544
vt 0.881218 0.130561
vt 0.881163 0.041744
vt 0.584200 0.925145
vt 0.881086 0.925181
vt 0.584121 0.847502
vt 0.881128 0.925163
vt 0.584242 0.925146
vt 0.881190 0.847515
vt 0.881152 0.847536
vt 0.584158 0.847508
vt 0.626031 0.447111
vt 0.626083 0.172440
vt 0.839344 0.172466
vt 0.839313 0.447134
vt 0.839303 0.447118
vt 0.839314 0.172450
vt 0.626053 0.172440
vt 0.626023 0.447111
vt 0.881254 0.489057
vt 0.584067 0.489021
vt 0.584065 0.489026
vt 0.881249 0.489036
vt 0.839300 0.530966
vt 0.839264 0.805635
vt 0.626009 0.805611
vt 0.626018 0.530943
vt 0.626016 0.530947
vt 0.626044 0.805617
vt 0.839300 0.805613
vt 0.839297 0.530945
vt 0.999017 0.489076
vt 0.998911 0.847504
vt 0.542423 0.847455
vt 0.542357 0.489018
vt 0.998856 0.989258
vt 0.999019 0.130644
vt 0.542500 0.989207
vt 0.542486 0.130578
vt 0.998987 0.000060
vt 0.542624 0.000000
vt 0.542357 0.489025
vt 0.542459 0.847461
vt 0.998948 0.847476
vt 0.999014 0.489045
vt 0.542545 0.989207
vt 0.542448 0.130582
vt 0.998899 0.989237
vt 0.998985 0.130616
vt 0.542582 0.000000
vt 0.998945 0.000038
vt 0.091529 0.493649
vt 0.091529 0.135380
vt 0.167584 0.135380
vt 0.167584 0.493649
vt 0.167584 0.004869
vt 0.091529 0.004869
vt 0.167584 0.851919
vt 0.091529 0.851919
vt 0.167584 0.993603
vt 0.091529 0.993603
vt 0.080924 0.493649
vt 0.080924 0.851919
vt 0.004869 0.851919
vt 0.004869 0.493649
vt 0.080924 0.993603
vt 0.004869 0.993603
vt 0.004869 0.135380
vt 0.080924 0.135380
vt 0.080924 0.004869
vt 0.004869 0.004869
vt 0.388555 0.000000
vt 0.388555 0.456338
vt 0.312500 0.456338
vt 0.312500 0.000000
vt 0.312500 0.500000
vt 0.388555 0.500000
vt 0.388555 0.956338
vt 0.312500 0.956338
# 14 texture coords

g SM_Door_Basic_E
s 2
f 1/81/1 2/82/1 3/83/1 4/84/1
s 4
f 5/77/2 6/78/2 7/79/2 8/80/2
s 8
f 9/1/3 10/2/3 11/3/3 12/4/3
s 16
f 3/75/4 13/74/4 14/73/4 4/76/4
s 32
f 15/5/5 16/6/5 17/7/5 18/8/5
s 64
f 1/61/6 19/59/6 20/58/6 2/62/6
s off
f 1/46/3 4/45/3 9/1/3 12/4/3
f 14/42/3 10/2/3 9/1/3 4/45/3
f 6/41/7 5/43/7 21/9/7 22/10/7
f 23/39/3 24/11/3 21/9/3 5/43/3
f 3/56/5 2/55/5 15/5/5 18/8/5
f 20/52/5 16/6/5 15/5/5 2/55/5
f 8/51/8 7/53/8 25/12/8 26/13/8
f 27/49/5 28/14/5 25/12/5 7/53/5
s 8
f 22/10/3 21/9/3 24/11/3 29/15/3
s 16
f 7/71/4 6/72/4 30/69/4 27/68/4
s 32
f 26/13/8 25/12/8 28/14/8 31/16/8
s 64
f 5/65/6 8/66/6 32/64/6 23/63/6
s off
f 30/38/9 6/41/9 22/10/9 29/15/9
f 19/44/3 1/46/3 12/4/3 11/3/3
f 32/48/5 8/51/5 26/13/5 31/16/5
f 13/54/5 3/56/5 18/8/5 17/7/5
f 33/17/3 34/18/3 35/19/3 36/20/3
f 37/70/4 14/73/4 13/74/4 38/67/4
f 39/21/5 40/22/5 41/23/5 42/24/5
f 43/57/6 20/58/6 19/59/6 44/60/6
f 45/25/9 10/2/9 14/42/9 37/37/9
f 46/26/3 24/11/3 23/39/3 44/40/3
f 47/27/5 16/6/5 20/52/5 43/47/5
f 48/28/10 28/14/10 27/49/10 38/50/10
f 49/29/3 50/30/3 51/31/3 52/32/3
f 38/67/4 27/68/4 30/69/4 37/70/4
f 53/33/11 54/34/11 55/35/11 56/36/11
f 44/60/6 23/63/6 32/64/6 43/57/6
f 37/37/9 30/38/9 29/15/9 45/25/9
f 44/40/3 19/44/3 11/3/3 46/26/3
f 43/47/10 32/48/10 31/16/10 47/27/10
f 38/50/10 13/54/10 17/7/10 48/28/10
f 10/2/12 45/25/12 36/20/12 35/19/12
f 45/25/13 46/26/13 33/17/13 36/20/13
f 46/26/14 11/3/14 34/18/14 33/17/14
f 11/3/15 10/2/15 35/19/15 34/18/15
f 16/6/16 47/27/16 42/24/16 41/23/16
f 47/27/17 48/28/17 39/21/17 42/24/17
f 48/28/18 17/7/18 40/22/18 39/21/18
f 17/7/19 16/6/19 41/23/19 40/22/19
f 24/11/14 46/26/14 52/32/14 51/31/14
f 46/26/15 45/25/15 49/29/15 52/32/15
f 45/25/12 29/15/12 50/30/12 49/29/12
f 29/15/13 24/11/13 51/31/13 50/30/13
f 28/14/18 48/28/18 56/36/18 55/35/18
f 48/28/20 47/27/20 53/33/20 56/36/20
f 47/27/21 31/16/21 54/34/21 53/33/21
f 31/16/17 28/14/17 55/35/17 54/34/17
# 54 polygons

