# 3ds Max Wavefront OBJ Exporter v0.97b - (c)2007 guruware
# File Created: 28.09.2014 12:59:14
# UVs by headus UVLayout v2.08.01 2013/07/04 09:42:04

mtllib Floor.mtl

#
# object SM_Floor_Administration_E
#

v  -98.4252 -98.4252 -7.8739
v  -98.4252 98.4252 -7.8739
v  98.4252 98.4252 -7.8739
v  98.4252 -98.4252 -7.8739
v  -98.4252 -98.4252 0.0001
v  98.4252 -98.4252 0.0001
v  98.4252 98.4252 0.0001
v  -98.4252 98.4252 0.0001
# 8 vertices

vn 0.0000 0.0000 -1.0000
vn 0.0000 0.0000 1.0000
vn 0.0000 -1.0000 0.0000
vn 1.0000 0.0000 0.0000
vn 0.0000 1.0000 0.0000
vn -1.0000 0.0000 0.0000
# 6 vertex normals

# 24 texture coords
vt 0.000000 0.000000
vt 0.999811 0.000000
vt 0.999811 0.039991
vt 0.000000 0.039991
vt 0.000000 0.000000
vt 0.999811 0.000000
vt 0.999811 0.999810
vt 0.000000 0.999810
vt 0.000000 0.999810
vt 0.000000 0.000000
vt 0.999811 0.000000
vt 0.999811 0.999810
vt 0.000000 0.000000
vt 0.999811 0.000000
vt 0.999811 0.039991
vt 0.000000 0.039991
vt 0.000000 0.000000
vt 0.999811 0.000000
vt 0.999811 0.039991
vt 0.000000 0.039991
vt 0.000000 0.000000
vt 0.999811 0.000000
vt 0.999811 0.039991
vt 0.000000 0.039991
# 4 texture coords

g SM_Floor_Administration_E
usemtl Floor
s 2
f 1/9/1 2/10/1 3/11/1 4/12/1
s 4
f 5/5/2 6/6/2 7/7/2 8/8/2
s 8
f 1/13/3 4/14/3 6/15/3 5/16/3
s 16
f 4/1/4 3/2/4 7/3/4 6/4/4
s 32
f 3/17/5 2/18/5 8/19/5 7/20/5
s 64
f 2/21/6 1/22/6 5/23/6 8/24/6
# 6 polygons

