# 3ds Max Wavefront OBJ Exporter v0.97b - (c)2007 guruware
# File Created: 05.10.2014 02:27:21
# UVs by headus UVLayout v2.08.01 2013/07/04 09:42:04

mtllib HotServer.mtl

#
# object SM_SuperheatedServerCluster_E
#

v  -15.8402 -15.8402 88.5827
v  15.8402 -15.8402 88.5827
v  15.8402 15.8402 88.5827
v  -15.8402 15.8402 88.5827
v  19.6850 -19.6850 0.0000
v  19.6850 -19.6850 3.8824
v  -19.6850 -19.6850 3.8824
v  -19.6850 -19.6850 0.0000
v  19.6850 19.6850 0.0000
v  19.6850 19.6850 3.8824
v  -19.6850 19.6850 0.0000
v  -19.6850 19.6850 3.8824
v  15.8402 -15.8402 15.1055
v  -15.8402 -15.8402 15.1055
v  15.8402 15.8402 15.1055
v  -15.8402 15.8402 15.1055
v  9.5517 -18.2014 80.8391
v  -9.5517 -18.2014 80.8391
v  -9.5517 -18.2014 22.8490
v  9.5517 -18.2014 22.8490
v  18.2014 9.5517 80.8391
v  18.2014 -9.5517 80.8391
v  18.2014 -9.5517 22.8490
v  18.2014 9.5517 22.8490
v  -9.5517 18.2014 80.8391
v  9.5517 18.2014 80.8391
v  9.5517 18.2014 22.8490
v  -9.5517 18.2014 22.8490
v  -18.2014 -9.5517 80.8391
v  -18.2014 9.5517 80.8391
v  -18.2014 9.5517 22.8490
v  -18.2014 -9.5517 22.8490
v  13.4488 -15.8402 86.1913
v  13.4488 -15.8402 17.4969
v  -13.4488 -15.8402 86.1913
v  -13.4488 -15.8402 17.4969
v  15.8402 13.4488 86.1913
v  15.8402 13.4488 17.4969
v  15.8402 -13.4488 86.1913
v  15.8402 -13.4488 17.4969
v  -13.4488 15.8402 86.1913
v  -13.4488 15.8402 17.4969
v  13.4488 15.8402 86.1913
v  13.4488 15.8402 17.4969
v  -15.8402 -13.4488 86.1913
v  -15.8402 -13.4488 17.4969
v  -15.8402 13.4488 86.1913
v  -15.8402 13.4488 17.4969
v  11.8923 -18.2122 84.0837
v  11.8923 -18.2122 19.6044
v  -11.8923 -18.2122 84.0837
v  -11.8923 -18.2122 19.6044
v  18.2122 11.8923 84.0837
v  18.2122 11.8923 19.6044
v  18.2122 -11.8923 84.0837
v  18.2122 -11.8923 19.6044
v  -11.8923 18.2122 84.0837
v  -11.8923 18.2122 19.6044
v  11.8923 18.2122 84.0837
v  11.8923 18.2122 19.6044
v  -18.2122 -11.8923 84.0837
v  -18.2122 -11.8923 19.6044
v  -18.2122 11.8923 84.0837
v  -18.2122 11.8923 19.6044
v  10.5516 -19.6537 81.8391
v  10.5516 -19.6537 21.8491
v  -10.5516 -19.6537 81.8391
v  -10.5516 -19.6537 21.8491
v  19.6537 10.5516 81.8391
v  19.6537 10.5516 21.8491
v  19.6537 -10.5516 81.8391
v  19.6537 -10.5516 21.8491
v  -10.5516 19.6537 81.8391
v  -10.5516 19.6537 21.8491
v  10.5516 19.6537 81.8391
v  10.5516 19.6537 21.8491
v  -19.6537 -10.5516 81.8391
v  -19.6537 -10.5516 21.8491
v  -19.6537 10.5516 81.8391
v  -19.6537 10.5516 21.8491
v  9.5517 -19.6537 80.8391
v  9.5517 -19.6537 22.8490
v  -9.5517 -19.6537 80.8391
v  -9.5517 -19.6537 22.8490
v  19.6537 9.5517 80.8391
v  19.6537 9.5517 22.8490
v  19.6537 -9.5517 80.8391
v  19.6537 -9.5517 22.8490
v  -9.5517 19.6537 80.8391
v  -9.5517 19.6537 22.8490
v  9.5517 19.6537 80.8391
v  9.5517 19.6537 22.8490
v  -19.6537 -9.5517 80.8391
v  -19.6537 -9.5517 22.8490
v  -19.6537 9.5517 80.8391
v  -19.6537 9.5517 22.8490
# 96 vertices

vn 0.0000 0.0000 1.0000
vn 0.0000 -1.0000 0.0000
vn 0.0000 -0.9893 0.1460
vn 1.0000 0.0000 0.0000
vn 0.9893 0.0000 0.1460
vn 0.0000 1.0000 0.0000
vn 0.0000 0.9893 0.1460
vn -1.0000 0.0000 0.0000
vn -0.9893 0.0000 0.1460
vn 0.0000 -0.9460 0.3241
vn 0.9460 0.0000 0.3241
vn 0.0000 0.9460 0.3241
vn -0.9460 0.0000 0.3241
vn 0.8361 -0.5486 0.0000
vn 0.0000 -0.6642 0.7475
vn -0.8361 -0.5486 0.0000
vn 0.0000 -0.6642 -0.7475
vn 0.5486 0.8361 0.0000
vn 0.6642 0.0000 0.7475
vn 0.5486 -0.8361 0.0000
vn 0.6642 0.0000 -0.7475
vn -0.8361 0.5486 0.0000
vn 0.0000 0.6642 0.7475
vn 0.8361 0.5486 0.0000
vn 0.0000 0.6642 -0.7475
vn -0.5486 -0.8361 0.0000
vn -0.6642 0.0000 0.7475
vn -0.5486 0.8361 0.0000
vn -0.6642 0.0000 -0.7475
vn 0.7323 -0.6810 0.0000
vn 0.0000 -0.8414 0.5404
vn -0.7323 -0.6810 0.0000
vn 0.0000 -0.8414 -0.5404
vn 0.6810 0.7323 0.0000
vn 0.8414 0.0000 0.5404
vn 0.6810 -0.7323 0.0000
vn 0.8414 0.0000 -0.5404
vn -0.7323 0.6810 0.0000
vn 0.0000 0.8414 0.5404
vn 0.7323 0.6810 0.0000
vn 0.0000 0.8414 -0.5404
vn -0.6810 -0.7323 0.0000
vn -0.8414 0.0000 0.5404
vn -0.6810 0.7323 0.0000
vn -0.8414 0.0000 -0.5404
vn 0.0000 0.0000 -1.0000
# 46 vertex normals

# 228 texture coords
vt 0.363465 0.008474
vt 0.543704 0.008474
vt 0.543704 0.188713
vt 0.363465 0.188713
vt 0.108149 0.598870
vt 0.108149 0.989692
vt 0.092008 0.977701
vt 0.092008 0.610860
vt 0.080807 0.964931
vt 0.080807 0.623630
vt 0.075117 0.959241
vt 0.075117 0.629319
vt 0.066855 0.959241
vt 0.066855 0.629319
vt 0.727064 0.020465
vt 0.738265 0.033235
vt 0.727064 0.387305
vt 0.738265 0.374535
vt 0.710923 0.399296
vt 0.710923 0.008474
vt 0.743954 0.038924
vt 0.743954 0.368845
vt 0.752217 0.038924
vt 0.752217 0.368845
vt 0.024615 0.610860
vt 0.035816 0.623630
vt 0.035816 0.964931
vt 0.024615 0.977701
vt 0.008474 0.989692
vt 0.008474 0.598870
vt 0.041506 0.629319
vt 0.041506 0.959241
vt 0.049768 0.629319
vt 0.049768 0.959241
vt 0.915925 0.977701
vt 0.904725 0.964931
vt 0.904725 0.623630
vt 0.915925 0.610860
vt 0.932066 0.598870
vt 0.932066 0.989692
vt 0.899035 0.959241
vt 0.899035 0.629319
vt 0.890773 0.959241
vt 0.890773 0.629319
vt 0.260657 0.374535
vt 0.271857 0.387305
vt 0.260657 0.033235
vt 0.271857 0.020465
vt 0.287998 0.008474
vt 0.287998 0.399296
vt 0.254967 0.368845
vt 0.254967 0.038924
vt 0.246705 0.368845
vt 0.246705 0.038924
vt 0.652542 0.399296
vt 0.652542 0.008474
vt 0.668683 0.020465
vt 0.668683 0.387305
vt 0.679884 0.033235
vt 0.679884 0.374535
vt 0.685574 0.038924
vt 0.685574 0.368845
vt 0.693836 0.038924
vt 0.693836 0.368845
vt 0.788357 0.098057
vt 0.766479 0.030562
vt 0.990466 0.030566
vt 0.968583 0.098061
vt 0.801965 0.111664
vt 0.954975 0.111666
vt 0.990466 0.008478
vt 0.766479 0.008474
vt 0.968589 0.516093
vt 0.954983 0.502488
vt 0.788327 0.516089
vt 0.801934 0.502485
vt 0.965293 0.610860
vt 0.976494 0.623630
vt 0.965293 0.977701
vt 0.976494 0.964931
vt 0.949152 0.989692
vt 0.949152 0.598870
vt 0.982184 0.629319
vt 0.982184 0.959241
vt 0.990446 0.629319
vt 0.990446 0.959241
vt 0.330237 0.387305
vt 0.319037 0.374535
vt 0.319037 0.033235
vt 0.330237 0.020465
vt 0.346378 0.008474
vt 0.346378 0.399296
vt 0.313347 0.368845
vt 0.313347 0.038924
vt 0.305084 0.368845
vt 0.305084 0.038924
vt 0.507638 0.354210
vt 0.500011 0.369389
vt 0.379949 0.369389
vt 0.372321 0.354210
vt 0.363465 0.336158
vt 0.516493 0.336158
vt 0.494322 0.375078
vt 0.385638 0.375078
vt 0.494322 0.383341
vt 0.385638 0.383341
vt 0.937310 0.458924
vt 0.828625 0.458924
vt 0.828625 0.129002
vt 0.937310 0.129002
vt 0.717913 0.957982
vt 0.609228 0.957982
vt 0.609228 0.628061
vt 0.717913 0.628061
vt 0.169890 0.458924
vt 0.061205 0.458924
vt 0.061205 0.129002
vt 0.169890 0.129002
vt 0.389288 0.957982
vt 0.280603 0.957982
vt 0.280603 0.628061
vt 0.389288 0.628061
vt 0.749218 0.989726
vt 0.568957 0.989731
vt 0.582563 0.976126
vt 0.735612 0.976122
vt 0.568964 0.571699
vt 0.582573 0.585304
vt 0.749191 0.571693
vt 0.735583 0.585300
vt 0.547082 0.504204
vt 0.771069 0.504198
vt 0.771068 0.482109
vt 0.547081 0.482117
vt 0.030353 0.098057
vt 0.008474 0.030562
vt 0.232461 0.030566
vt 0.210579 0.098061
vt 0.196972 0.111666
vt 0.043961 0.111663
vt 0.232462 0.008478
vt 0.008475 0.008474
vt 0.210586 0.516093
vt 0.196980 0.502488
vt 0.030324 0.516089
vt 0.043931 0.502485
vt 0.451859 0.482113
vt 0.451859 0.504201
vt 0.227872 0.504197
vt 0.227872 0.482109
vt 0.249750 0.571692
vt 0.429976 0.571696
vt 0.416368 0.585301
vt 0.263358 0.585299
vt 0.429982 0.989729
vt 0.416376 0.976123
vt 0.249720 0.989724
vt 0.263327 0.976120
vt 0.017330 0.563029
vt 0.024958 0.547852
vt 0.145020 0.547852
vt 0.152647 0.563029
vt 0.161503 0.581082
vt 0.008474 0.581082
vt 0.030647 0.542161
vt 0.139331 0.542161
vt 0.030647 0.533899
vt 0.139331 0.533899
vt 0.845956 0.563029
vt 0.853584 0.547852
vt 0.973646 0.547852
vt 0.981273 0.563029
vt 0.990129 0.581082
vt 0.837100 0.581082
vt 0.859273 0.542161
vt 0.967957 0.542161
vt 0.859273 0.533899
vt 0.967957 0.533899
vt 0.770731 0.464321
vt 0.617703 0.464321
vt 0.626558 0.446268
vt 0.761876 0.446268
vt 0.634186 0.431090
vt 0.754248 0.431090
vt 0.639875 0.425400
vt 0.748559 0.425400
vt 0.639875 0.417137
vt 0.748559 0.417137
vt 0.379949 0.220168
vt 0.385638 0.214477
vt 0.494322 0.214477
vt 0.500011 0.220168
vt 0.372321 0.235345
vt 0.507638 0.235345
vt 0.385638 0.206215
vt 0.494322 0.206215
vt 0.516493 0.253398
vt 0.363465 0.253398
vt 0.372045 0.435190
vt 0.364417 0.450368
vt 0.244355 0.450368
vt 0.236727 0.435190
vt 0.227872 0.417137
vt 0.380900 0.417137
vt 0.358728 0.456058
vt 0.250044 0.456058
vt 0.358728 0.464320
vt 0.250044 0.464320
vt 0.612966 0.310107
vt 0.612966 0.318370
vt 0.504282 0.318370
vt 0.504282 0.310107
vt 0.618655 0.304417
vt 0.498593 0.304417
vt 0.626282 0.289239
vt 0.490965 0.289239
vt 0.482109 0.271187
vt 0.635138 0.271187
vt 0.468927 0.417137
vt 0.621955 0.417137
vt 0.613100 0.435190
vt 0.477782 0.435190
vt 0.605472 0.450368
vt 0.485410 0.450368
vt 0.599783 0.456058
vt 0.491099 0.456058
vt 0.599783 0.464320
vt 0.491099 0.464320
# 8 texture coords

g SM_SuperheatedServerCluster_E
usemtl Test
s 4
f 1/1/1 2/2/1 3/3/1 4/4/1
s 8
f 5/133/2 6/132/3 7/131/3 8/134/2
s 16
f 9/141/4 10/137/5 6/136/5 5/142/4
s 32
f 11/71/6 12/67/7 10/66/7 9/72/6
s 64
f 8/147/8 7/148/9 12/149/9 11/150/8
s 8
f 13/129/10 14/127/10 7/131/3 6/132/3
s 16
f 15/138/11 13/135/11 6/136/5 10/137/5
s 32
f 16/68/12 15/65/12 10/66/7 12/67/7
s 64
f 14/152/13 16/151/13 12/149/9 7/148/9
s 8
f 17/119/2 18/120/2 19/121/2 20/122/2
s 16
f 21/115/4 22/116/4 23/117/4 24/118/4
s 32
f 25/111/6 26/112/6 27/113/6 28/114/6
s 64
f 29/107/8 30/108/8 31/109/8 32/110/8
s off
f 13/129/2 2/123/2 33/126/2 34/130/2
f 2/123/2 1/124/2 35/125/2 33/126/2
f 1/124/2 14/127/2 36/128/2 35/125/2
f 14/127/2 13/129/2 34/130/2 36/128/2
f 15/138/4 3/143/4 37/144/4 38/139/4
f 3/143/4 2/145/4 39/146/4 37/144/4
f 2/145/4 13/135/4 40/140/4 39/146/4
f 13/135/4 15/138/4 38/139/4 40/140/4
f 16/68/6 4/73/6 41/74/6 42/70/6
f 4/73/6 3/75/6 43/76/6 41/74/6
f 3/75/6 15/65/6 44/69/6 43/76/6
f 15/65/6 16/68/6 42/70/6 44/69/6
f 14/152/8 1/155/8 45/156/8 46/153/8
f 1/155/8 4/157/8 47/158/8 45/156/8
f 4/157/8 16/151/8 48/154/8 47/158/8
f 16/151/8 14/152/8 46/153/8 48/154/8
f 34/39/14 33/40/14 49/35/14 50/38/14
f 33/163/15 35/164/15 51/159/15 49/162/15
f 35/29/16 36/30/16 52/25/16 51/28/16
f 36/219/17 34/220/17 50/221/17 52/222/17
f 38/49/18 37/50/18 53/46/18 54/48/18
f 37/173/19 39/174/19 55/169/19 53/172/19
f 39/55/20 40/56/20 56/57/20 55/58/20
f 40/217/21 38/218/21 54/215/21 56/216/21
f 42/91/22 41/92/22 57/87/22 58/90/22
f 41/179/23 43/180/23 59/181/23 57/182/23
f 43/81/24 44/82/24 60/77/24 59/79/24
f 44/101/25 42/102/25 58/97/25 60/100/25
f 46/5/26 45/6/26 61/7/26 62/8/26
f 45/197/27 47/198/27 63/193/27 61/194/27
f 47/19/28 48/20/28 64/15/28 63/17/28
f 48/203/29 46/204/29 62/199/29 64/202/29
f 50/38/30 49/35/30 65/36/30 66/37/30
f 49/162/31 51/159/31 67/160/31 65/161/31
f 51/28/32 52/25/32 68/26/32 67/27/32
f 52/222/33 50/221/33 66/223/33 68/224/33
f 54/48/34 53/46/34 69/45/34 70/47/34
f 53/172/35 55/169/35 71/170/35 69/171/35
f 55/58/36 56/57/36 72/59/36 71/60/36
f 56/216/37 54/215/37 70/213/37 72/214/37
f 58/90/38 57/87/38 73/88/38 74/89/38
f 57/182/39 59/181/39 75/183/39 73/184/39
f 59/79/40 60/77/40 76/78/40 75/80/40
f 60/100/41 58/97/41 74/98/41 76/99/41
f 62/8/42 61/7/42 77/9/42 78/10/42
f 61/194/43 63/193/43 79/189/43 77/192/43
f 63/17/44 64/15/44 80/16/44 79/18/44
f 64/202/45 62/199/45 78/200/45 80/201/45
f 66/37/2 65/36/2 81/41/2 82/42/2
f 65/161/2 67/160/2 83/165/2 81/166/2
f 67/27/2 68/26/2 84/31/2 83/32/2
f 68/224/2 66/223/2 82/225/2 84/226/2
f 70/47/4 69/45/4 85/51/4 86/52/4
f 69/171/4 71/170/4 87/175/4 85/176/4
f 71/60/4 72/59/4 88/61/4 87/62/4
f 72/214/4 70/213/4 86/209/4 88/212/4
f 74/89/6 73/88/6 89/93/6 90/94/6
f 73/184/6 75/183/6 91/185/6 89/186/6
f 75/80/6 76/78/6 92/83/6 91/84/6
f 76/99/6 74/98/6 90/103/6 92/104/6
f 78/10/8 77/9/8 93/11/8 94/12/8
f 77/192/8 79/189/8 95/190/8 93/191/8
f 79/18/8 80/16/8 96/21/8 95/22/8
f 80/201/8 78/200/8 94/205/8 96/206/8
f 82/42/8 81/41/8 17/43/8 20/44/8
f 81/166/46 83/165/46 18/167/46 17/168/46
f 83/32/4 84/31/4 19/33/4 18/34/4
f 84/226/1 82/225/1 20/227/1 19/228/1
f 86/52/2 85/51/2 21/53/2 24/54/2
f 85/176/46 87/175/46 22/177/46 21/178/46
f 87/62/6 88/61/6 23/63/6 22/64/6
f 88/212/1 86/209/1 24/210/1 23/211/1
f 90/94/4 89/93/4 25/95/4 28/96/4
f 89/186/46 91/185/46 26/187/46 25/188/46
f 91/84/8 92/83/8 27/85/8 26/86/8
f 92/104/1 90/103/1 28/105/1 27/106/1
f 94/12/6 93/11/6 29/13/6 32/14/6
f 93/191/46 95/190/46 30/195/46 29/196/46
f 95/22/2 96/21/2 31/23/2 30/24/2
f 96/206/1 94/205/1 32/207/1 31/208/1
# 93 polygons

