# 3ds Max Wavefront OBJ Exporter v0.97b - (c)2007 guruware
# File Created: 29.09.2014 20:05:54
# UVs by headus UVLayout v2.08.01 2013/07/04 09:42:04

mtllib MidSpan.mtl

#
# object SM_MidSpan_1_E001
#

v  114.7639 -72.4967 -7.8740
v  114.7639 -72.4967 0.0000
v  154.1340 -72.4967 0.0000
v  154.1340 -72.4967 -7.8740
v  154.1340 -88.2448 -7.8740
v  114.7639 -88.2449 -7.8740
v  154.1340 -88.2448 7.8741
v  114.7639 -88.2449 7.8740
v  154.1340 -80.3708 74.8032
v  154.1340 -80.3708 43.3071
v  114.7639 -80.3708 43.3071
v  114.7639 -80.3708 74.8032
v  154.1340 -72.4967 125.9843
v  154.1340 -72.4967 118.1103
v  114.7639 -72.4967 118.1102
v  114.7639 -72.4967 125.9843
v  114.7639 -88.2449 125.9843
v  154.1340 -88.2448 125.9843
v  114.7639 -88.2449 110.2362
v  154.1340 -88.2448 110.2363
v  154.1340 -88.2448 74.8032
v  154.1340 -88.2448 43.3071
v  114.7639 -88.2449 74.8032
v  114.7639 -88.2449 43.3071
v  154.1340 -80.3708 7.8741
v  114.7639 -80.3708 7.8740
v  114.7639 -80.3708 110.2362
v  154.1340 -80.3708 110.2363
v  154.1340 -76.4337 114.1733
v  114.7639 -76.4338 114.1732
v  114.7639 -76.4338 3.9370
v  154.1340 -76.4337 3.9371
v  68.2038 -72.4967 -7.8742
v  68.2038 -72.4967 -0.0001
v  107.5739 -72.4967 -0.0001
v  107.5739 -72.4967 -7.8741
v  107.5739 -88.2448 -7.8741
v  68.2038 -88.2449 -7.8742
v  107.5739 -88.2448 7.8739
v  68.2038 -88.2449 7.8739
v  107.5739 -88.2448 43.3070
v  107.5739 -80.3708 7.8739
v  107.5739 -80.3708 43.3070
v  68.2038 -80.3708 7.8739
v  68.2038 -80.3708 43.3069
v  68.2038 -88.2449 43.3069
v  107.5739 -72.4967 220.4724
v  107.5739 -72.4967 212.5984
v  68.2038 -72.4967 212.5983
v  68.2038 -72.4967 220.4724
v  68.2038 -88.2448 220.4724
v  107.5739 -88.2447 220.4724
v  68.2038 -88.2448 204.7243
v  107.5739 -88.2447 204.7243
v  107.5739 -80.3707 169.2913
v  107.5739 -80.3707 204.7243
v  107.5739 -88.2447 169.2913
v  68.2038 -88.2448 169.2912
v  68.2038 -80.3708 204.7243
v  68.2038 -80.3708 169.2912
v  68.2038 -88.2449 137.7952
v  68.2038 -88.2449 106.2991
v  107.5739 -88.2448 106.2991
v  107.5739 -88.2448 137.7952
v  107.5739 -80.3708 106.2991
v  107.5739 -80.3707 137.7952
v  68.2038 -80.3708 106.2991
v  68.2038 -80.3708 137.7952
v  68.2038 -88.2449 74.8030
v  107.5739 -88.2448 74.8031
v  107.5739 -80.3708 74.8031
v  68.2038 -80.3708 74.8030
v  107.5739 -76.4336 208.6613
v  68.2038 -76.4338 208.6613
v  107.5739 -76.4338 3.9369
v  68.2038 -76.4338 3.9369
v  24.1465 -72.4968 -7.8741
v  24.1465 -72.4968 -0.0001
v  63.5165 -72.4967 -0.0001
v  63.5165 -72.4967 -7.8741
v  63.5165 -88.2448 -7.8741
v  24.1465 -88.2449 -7.8741
v  63.5165 -88.2448 7.8740
v  24.1465 -88.2449 7.8739
v  63.5165 -88.2448 43.3070
v  63.5165 -80.3708 7.8740
v  63.5165 -80.3708 43.3070
v  24.1465 -80.3708 7.8739
v  24.1465 -80.3708 43.3070
v  24.1465 -88.2449 43.3070
v  63.5164 -72.4967 314.9604
v  63.5164 -72.4967 307.0864
v  24.1463 -72.4967 307.0864
v  24.1463 -72.4967 314.9604
v  24.1463 -88.2448 314.9604
v  63.5164 -88.2447 314.9604
v  24.1463 -88.2448 299.2123
v  63.5164 -88.2447 299.2124
v  63.5164 -80.3707 263.7793
v  63.5164 -80.3707 299.2124
v  63.5164 -88.2447 263.7793
v  24.1463 -88.2448 263.7793
v  24.1463 -80.3708 299.2123
v  24.1463 -80.3708 263.7793
v  24.1464 -88.2449 137.7951
v  24.1464 -88.2449 169.2912
v  24.1464 -80.3708 169.2912
v  24.1464 -80.3708 137.7951
v  63.5165 -88.2448 137.7952
v  63.5164 -88.2448 169.2912
v  63.5165 -80.3708 137.7952
v  63.5164 -80.3707 169.2912
v  24.1463 -88.2448 232.2832
v  24.1463 -80.3708 232.2832
v  24.1463 -88.2448 200.7872
v  24.1463 -80.3708 200.7872
v  24.1464 -80.3708 74.8030
v  24.1464 -88.2449 74.8030
v  24.1464 -80.3708 106.2991
v  24.1464 -88.2449 106.2991
v  63.5164 -88.2447 232.2833
v  63.5164 -88.2447 200.7872
v  63.5165 -88.2448 74.8031
v  63.5165 -88.2448 106.2991
v  63.5164 -80.3707 232.2833
v  63.5164 -80.3707 200.7872
v  63.5165 -80.3708 74.8031
v  63.5165 -80.3708 106.2991
v  63.5164 -76.4336 303.1494
v  24.1463 -76.4338 303.1494
v  24.1465 -76.4339 3.9369
v  63.5165 -76.4337 3.9369
v  -19.6849 -72.4968 -7.8740
v  -19.6849 -72.4968 0.0000
v  19.6852 -72.4967 0.0000
v  19.6852 -72.4967 -7.8740
v  19.6852 -88.2449 -7.8740
v  -19.6849 -88.2449 -7.8740
v  19.6852 -88.2449 7.8741
v  -19.6849 -88.2449 7.8740
v  19.6852 -88.2449 43.3071
v  19.6852 -80.3708 7.8741
v  19.6852 -80.3708 43.3071
v  -19.6849 -80.3708 7.8740
v  -19.6849 -80.3708 43.3071
v  -19.6849 -88.2449 43.3071
v  19.6849 -72.4967 409.4487
v  19.6849 -72.4967 401.5747
v  -19.6852 -72.4967 401.5747
v  -19.6852 -72.4967 409.4487
v  -19.6852 -88.2448 409.4487
v  19.6849 -88.2447 409.4487
v  -19.6852 -88.2448 393.7007
v  19.6849 -88.2447 393.7007
v  19.6849 -80.3707 358.2676
v  19.6849 -80.3707 393.7007
v  19.6849 -88.2447 358.2676
v  -19.6852 -88.2448 358.2676
v  -19.6852 -80.3708 393.7007
v  -19.6852 -80.3708 358.2676
v  -19.6850 -88.2449 169.2913
v  -19.6851 -88.2449 200.7873
v  -19.6850 -80.3708 200.7873
v  -19.6850 -80.3708 169.2913
v  19.6851 -88.2448 169.2914
v  19.6850 -88.2448 200.7874
v  19.6851 -80.3708 169.2914
v  19.6850 -80.3708 200.7874
v  -19.6852 -88.2448 326.7715
v  -19.6852 -80.3708 326.7715
v  -19.6851 -88.2448 295.2755
v  -19.6851 -80.3708 295.2755
v  -19.6851 -88.2448 263.7794
v  -19.6851 -80.3708 263.7794
v  -19.6851 -88.2448 232.2834
v  -19.6851 -80.3708 232.2834
v  -19.6850 -80.3708 74.8031
v  -19.6850 -88.2449 74.8031
v  -19.6850 -80.3708 106.2992
v  -19.6850 -88.2449 106.2992
v  -19.6850 -80.3708 137.7952
v  -19.6850 -88.2449 137.7952
v  19.6849 -88.2447 326.7716
v  19.6850 -88.2447 295.2755
v  19.6850 -88.2448 263.7795
v  19.6850 -88.2448 232.2834
v  19.6851 -88.2449 74.8032
v  19.6851 -88.2448 106.2992
v  19.6851 -88.2448 137.7953
v  19.6849 -80.3707 326.7716
v  19.6850 -80.3707 295.2755
v  19.6850 -80.3708 263.7795
v  19.6850 -80.3708 232.2834
v  19.6852 -80.3708 74.8032
v  19.6851 -80.3708 106.2992
v  19.6851 -80.3708 137.7953
v  -19.6852 -76.4338 397.6377
v  19.6849 -76.4336 397.6377
v  -19.6849 -76.4339 3.9370
v  19.6852 -76.4338 3.9371
# 200 vertices

vn -0.0000 0.7071 -0.7071
vn -0.0000 1.0000 0.0000
vn 0.0000 -0.7071 -0.7071
vn 0.4472 -0.8944 0.0000
vn -0.4472 -0.8944 0.0000
vn 0.7071 0.7071 0.0000
vn -0.7071 0.7071 0.0000
vn -0.0000 0.7071 0.7071
vn 0.0000 -0.7071 0.7071
vn 0.7071 -0.7071 0.0000
vn -0.7071 -0.7071 0.0000
vn 1.0000 0.0000 0.0000
vn -1.0000 0.0000 0.0000
vn 0.0000 0.7071 -0.7071
vn 0.0000 1.0000 0.0000
vn 0.7071 0.7071 -0.0000
vn -0.7071 0.7071 -0.0000
vn -0.7071 -0.7071 -0.0000
# 18 vertex normals

# 488 texture coords
vt 0.970755 0.055483
vt 0.901403 0.055488
vt 0.970751 0.055497
vt 0.901398 0.055478
vt 0.970751 0.055506
vt 0.901394 0.055483
vt 0.970755 0.055483
vt 0.901403 0.055497
vt 0.970760 0.055483
vt 0.901408 0.055511
vt 0.970751 0.055506
vt 0.901394 0.055483
vt 0.554485 0.766622
vt 0.554415 0.267690
vt 0.000042 0.267765
vt 0.000118 0.766702
vt 0.554401 0.189295
vt 0.000033 0.189356
vt 0.000024 0.110961
vt 0.554391 0.110886
vt 0.000000 0.000099
vt 0.554373 0.000000
vt 0.000000 0.766622
vt 0.000000 0.267690
vt 0.554368 0.267690
vt 0.554368 0.766622
vt 0.000000 0.189285
vt 0.554368 0.189285
vt 0.554368 0.110876
vt 0.000000 0.110876
vt 0.554368 0.000000
vt 0.000000 0.000000
vt 0.000024 0.267676
vt 0.000024 0.189276
vt 0.554391 0.189285
vt 0.554391 0.267695
vt 0.554391 0.110881
vt 0.000019 0.110876
vt 0.000000 0.766608
vt 0.554373 0.766631
vt 0.554391 0.000005
vt 0.000019 0.000000
vt 0.000005 0.766617
vt 0.000000 0.267685
vt 0.554368 0.267680
vt 0.554373 0.766612
vt 0.000000 0.189281
vt 0.554368 0.189281
vt 0.554368 0.110876
vt 0.000000 0.110876
vt 0.554368 0.000000
vt 0.000000 0.000000
vt 0.000000 0.766622
vt 0.000005 0.267690
vt 0.554373 0.267690
vt 0.554373 0.766627
vt 0.000005 0.189285
vt 0.554373 0.189285
vt 0.554373 0.110876
vt 0.000005 0.110876
vt 0.554373 0.000000
vt 0.000005 0.000000
vt 0.000005 0.267680
vt 0.000000 0.766612
vt 0.554368 0.766622
vt 0.554377 0.267690
vt 0.554377 0.189290
vt 0.000005 0.189276
vt 0.000005 0.110872
vt 0.554377 0.110886
vt 0.000009 0.000000
vt 0.554377 0.000009
vt 0.000000 0.267680
vt 0.000000 0.766612
vt 0.554373 0.766612
vt 0.554373 0.267680
vt 0.554373 0.189276
vt 0.000000 0.189281
vt 0.000000 0.110876
vt 0.554373 0.110872
vt 0.000000 0.000000
vt 0.554373 0.000000
vt 0.000005 0.267690
vt 0.000000 0.766627
vt 0.554368 0.766631
vt 0.554373 0.267695
vt 0.554373 0.189285
vt 0.000005 0.189285
vt 0.000005 0.110881
vt 0.554373 0.110876
vt 0.000005 0.000005
vt 0.554373 0.000000
vt 0.554914 0.444263
vt 0.998410 0.444263
vt 0.998410 0.998631
vt 0.554914 0.998631
vt 0.554914 0.444263
vt 0.998410 0.444263
vt 0.998410 0.998631
vt 0.554914 0.998631
vt 0.554914 0.444263
vt 0.998410 0.444263
vt 0.998410 0.998631
vt 0.554914 0.998631
vt 0.554914 0.444263
vt 0.998410 0.444263
vt 0.998410 0.998631
vt 0.554914 0.998631
vt 0.998410 0.998631
vt 0.554914 0.998631
vt 0.554914 0.444263
vt 0.998410 0.444263
vt 0.554914 0.444263
vt 0.998410 0.444263
vt 0.998410 0.998631
vt 0.554914 0.998631
vt 0.554914 0.998631
vt 0.554914 0.444263
vt 0.998410 0.444263
vt 0.998410 0.998631
vt 0.554914 0.444263
vt 0.998410 0.444263
vt 0.998410 0.998631
vt 0.554914 0.998631
vt 0.998410 0.998631
vt 0.554914 0.998631
vt 0.554914 0.444263
vt 0.998410 0.444263
vt 0.998410 0.998631
vt 0.554914 0.998631
vt 0.554914 0.444263
vt 0.998410 0.444263
vt 0.998410 0.998631
vt 0.554914 0.998631
vt 0.554914 0.444263
vt 0.998410 0.444263
vt 0.998410 0.998631
vt 0.554914 0.998631
vt 0.554914 0.444263
vt 0.998410 0.444263
vt 0.554914 0.444263
vt 0.998410 0.444263
vt 0.998410 0.998636
vt 0.554914 0.998636
vt 0.554914 0.444263
vt 0.998410 0.444263
vt 0.998410 0.998636
vt 0.554914 0.998636
vt 0.554914 0.444263
vt 0.998410 0.444263
vt 0.998410 0.998631
vt 0.554914 0.998631
vt 0.554914 0.444263
vt 0.998410 0.444263
vt 0.998410 0.998631
vt 0.554914 0.998631
vt 0.998410 0.998631
vt 0.554914 0.998631
vt 0.554914 0.444263
vt 0.998410 0.444263
vt 0.998410 0.998631
vt 0.554914 0.998631
vt 0.554914 0.444263
vt 0.998410 0.444263
vt 0.998410 0.998631
vt 0.554914 0.998631
vt 0.554914 0.444263
vt 0.998410 0.444263
vt 0.998410 0.998631
vt 0.554914 0.998631
vt 0.554914 0.444263
vt 0.998410 0.444263
vt 0.998410 0.998631
vt 0.554914 0.998631
vt 0.554914 0.444263
vt 0.998410 0.444263
vt 0.901398 0.055478
vt 0.970751 0.055492
vt 0.970751 0.055497
vt 0.901398 0.055478
vt 0.998410 0.998631
vt 0.554914 0.998631
vt 0.554914 0.444263
vt 0.998410 0.444263
vt 0.901398 0.000005
vt 0.970751 0.000000
vt 0.970751 0.027739
vt 0.901403 0.027744
vt 0.991560 0.048539
vt 0.984625 0.055478
vt 0.970755 0.117896
vt 0.901408 0.117901
vt 0.887533 0.055488
vt 0.880594 0.048553
vt 0.998490 0.027730
vt 0.998495 0.041599
vt 0.984630 0.117896
vt 0.887543 0.117905
vt 0.873664 0.027744
vt 0.873659 0.041613
vt 0.901417 0.000000
vt 0.970765 0.000024
vt 0.970755 0.027767
vt 0.901408 0.027739
vt 0.991560 0.048576
vt 0.984620 0.055511
vt 0.970722 0.117919
vt 0.901375 0.117896
vt 0.887524 0.055473
vt 0.880594 0.048534
vt 0.998499 0.027772
vt 0.998495 0.041642
vt 0.984592 0.117924
vt 0.887505 0.117891
vt 0.873669 0.027725
vt 0.873659 0.041595
vt 0.970788 0.117896
vt 0.901436 0.117924
vt 0.887566 0.117929
vt 0.887538 0.055516
vt 0.984630 0.055473
vt 0.984658 0.117891
vt 0.880599 0.048581
vt 0.901389 0.000028
vt 0.970737 0.000000
vt 0.970746 0.027744
vt 0.901403 0.027767
vt 0.991564 0.048534
vt 0.873659 0.027777
vt 0.873664 0.041646
vt 0.998490 0.027725
vt 0.998495 0.041595
vt 0.901408 0.000000
vt 0.970760 0.000014
vt 0.970755 0.027758
vt 0.901408 0.027739
vt 0.991560 0.048558
vt 0.984625 0.055497
vt 0.970732 0.117910
vt 0.901384 0.117891
vt 0.887529 0.055478
vt 0.880594 0.048539
vt 0.998495 0.027753
vt 0.998495 0.041623
vt 0.984601 0.117915
vt 0.887515 0.117891
vt 0.873659 0.041599
vt 0.873664 0.027730
vt 0.970732 0.117915
vt 0.901384 0.117896
vt 0.887515 0.117891
vt 0.887529 0.055478
vt 0.984620 0.055506
vt 0.984601 0.117919
vt 0.880594 0.048539
vt 0.901408 0.027739
vt 0.901412 0.000000
vt 0.970765 0.000019
vt 0.970755 0.027763
vt 0.991560 0.048567
vt 0.873669 0.027730
vt 0.873659 0.041599
vt 0.998495 0.027763
vt 0.998495 0.041632
vt 0.887533 0.055497
vt 0.880594 0.048562
vt 0.887547 0.117915
vt 0.901417 0.117915
vt 0.873664 0.027758
vt 0.901403 0.027758
vt 0.873659 0.041627
vt 0.970765 0.117896
vt 0.901394 0.000019
vt 0.970746 0.000000
vt 0.970751 0.027744
vt 0.991564 0.048539
vt 0.984630 0.055478
vt 0.984634 0.117896
vt 0.998490 0.027730
vt 0.998495 0.041599
vt 0.991560 0.048572
vt 0.984620 0.055506
vt 0.970755 0.027763
vt 0.998495 0.027767
vt 0.998495 0.041637
vt 0.984597 0.117924
vt 0.970727 0.117919
vt 0.901384 0.117896
vt 0.887524 0.055478
vt 0.880594 0.048539
vt 0.901408 0.027744
vt 0.901417 0.000000
vt 0.970765 0.000024
vt 0.887515 0.117896
vt 0.873669 0.027730
vt 0.873659 0.041599
vt 0.984625 0.055502
vt 0.984597 0.117919
vt 0.970727 0.117915
vt 0.991560 0.048562
vt 0.901384 0.117896
vt 0.998495 0.027758
vt 0.998495 0.041627
vt 0.970755 0.027758
vt 0.887510 0.117891
vt 0.887529 0.055478
vt 0.880594 0.048539
vt 0.901408 0.027739
vt 0.901412 0.000000
vt 0.970760 0.000019
vt 0.873669 0.027730
vt 0.873659 0.041599
vt 0.462856 0.983590
vt 0.449217 0.981045
vt 0.459408 0.926507
vt 0.473042 0.929053
vt 0.531028 0.996321
vt 0.541213 0.941779
vt 0.554848 0.944329
vt 0.544657 0.998866
vt 0.473042 0.929053
vt 0.541213 0.941784
vt 0.462856 0.983590
vt 0.531028 0.996321
vt 0.449217 0.981045
vt 0.459412 0.926507
vt 0.554852 0.944334
vt 0.544657 0.998871
vt 0.473047 0.929053
vt 0.541218 0.941784
vt 0.531028 0.996326
vt 0.462856 0.983590
vt 0.449217 0.981045
vt 0.459412 0.926507
vt 0.554852 0.944334
vt 0.544657 0.998871
vt 0.473047 0.929057
vt 0.541218 0.941788
vt 0.531028 0.996326
vt 0.462856 0.983590
vt 0.449217 0.981045
vt 0.459417 0.926507
vt 0.554857 0.944338
vt 0.544657 0.998876
vt 0.473032 0.929053
vt 0.541209 0.941770
vt 0.531028 0.996307
vt 0.462856 0.983590
vt 0.449217 0.981045
vt 0.459403 0.926507
vt 0.554843 0.944319
vt 0.544657 0.998857
vt 0.473047 0.929053
vt 0.541218 0.941788
vt 0.531028 0.996326
vt 0.462856 0.983590
vt 0.449217 0.981045
vt 0.459412 0.926507
vt 0.554852 0.944338
vt 0.544657 0.998876
vt 0.473042 0.929053
vt 0.541213 0.941784
vt 0.531028 0.996321
vt 0.462856 0.983590
vt 0.449217 0.981045
vt 0.459408 0.926507
vt 0.554852 0.944334
vt 0.544657 0.998866
vt 0.473047 0.929057
vt 0.541218 0.941788
vt 0.531028 0.996326
vt 0.462856 0.983590
vt 0.449217 0.981045
vt 0.459417 0.926507
vt 0.554857 0.944338
vt 0.544657 0.998871
vt 0.531028 0.996326
vt 0.462856 0.983590
vt 0.473047 0.929053
vt 0.541218 0.941788
vt 0.554852 0.944338
vt 0.544657 0.998876
vt 0.449217 0.981045
vt 0.459412 0.926507
vt 0.531023 0.996321
vt 0.462856 0.983590
vt 0.473042 0.929053
vt 0.541213 0.941784
vt 0.554852 0.944334
vt 0.544657 0.998871
vt 0.449217 0.981045
vt 0.459412 0.926507
vt 0.531028 0.996316
vt 0.462856 0.983590
vt 0.473042 0.929053
vt 0.541213 0.941779
vt 0.554848 0.944329
vt 0.544657 0.998861
vt 0.449217 0.981045
vt 0.459408 0.926507
vt 0.531028 0.996326
vt 0.462856 0.983590
vt 0.473047 0.929053
vt 0.541218 0.941784
vt 0.554852 0.944334
vt 0.544657 0.998871
vt 0.449217 0.981045
vt 0.459412 0.926507
vt 0.473042 0.929053
vt 0.541213 0.941779
vt 0.531028 0.996321
vt 0.462856 0.983590
vt 0.449217 0.981045
vt 0.459408 0.926507
vt 0.554848 0.944329
vt 0.544662 0.998866
vt 0.473042 0.929053
vt 0.541213 0.941779
vt 0.531028 0.996321
vt 0.462856 0.983590
vt 0.449217 0.981045
vt 0.459408 0.926507
vt 0.554848 0.944329
vt 0.544657 0.998866
vt 0.473047 0.929057
vt 0.541218 0.941788
vt 0.531028 0.996326
vt 0.462856 0.983590
vt 0.449217 0.981045
vt 0.459417 0.926507
vt 0.554852 0.944334
vt 0.544657 0.998871
vt 0.473042 0.929053
vt 0.541213 0.941784
vt 0.531028 0.996326
vt 0.462856 0.983590
vt 0.449217 0.981045
vt 0.459412 0.926507
vt 0.554852 0.944334
vt 0.544657 0.998871
vt 0.531028 0.996326
vt 0.462856 0.983590
vt 0.473047 0.929053
vt 0.541213 0.941788
vt 0.554852 0.944338
vt 0.544657 0.998876
vt 0.449217 0.981045
vt 0.459412 0.926507
vt 0.531028 0.996326
vt 0.462856 0.983590
vt 0.473047 0.929053
vt 0.541213 0.941784
vt 0.554852 0.944334
vt 0.544657 0.998871
vt 0.449217 0.981045
vt 0.459412 0.926507
vt 0.531028 0.996321
vt 0.462856 0.983590
vt 0.473047 0.929053
vt 0.541213 0.941784
vt 0.554852 0.944334
vt 0.544657 0.998866
vt 0.449217 0.981045
vt 0.459412 0.926507
vt 0.531028 0.996326
vt 0.462856 0.983590
vt 0.473047 0.929053
vt 0.541218 0.941788
vt 0.554852 0.944338
vt 0.544657 0.998876
vt 0.449217 0.981045
vt 0.459412 0.926507
vt 0.531028 0.996321
vt 0.462856 0.983590
vt 0.473047 0.929053
vt 0.541213 0.941784
vt 0.554852 0.944334
vt 0.544657 0.998871
vt 0.449217 0.981045
vt 0.459412 0.926507
vt 0.531028 0.996326
vt 0.462856 0.983590
vt 0.473047 0.929053
vt 0.541218 0.941784
vt 0.554852 0.944334
vt 0.544657 0.998871
vt 0.449217 0.981045
vt 0.459412 0.926507
# 84 texture coords

g SM_MidSpan_1_E001
usemtl Test
s 1
f 1/31/1 2/29/2 3/30/2 4/32/1
f 1/185/1 4/186/1 5/187/3 6/188/3
f 6/188/3 5/187/3 7/1/4 8/2/5
f 9/93/6 10/94/6 11/95/7 12/96/7
f 13/21/8 14/19/2 15/20/2 16/22/8
f 17/259/9 18/256/9 13/257/8 16/258/8
f 19/3/5 20/4/4 18/256/9 17/259/9
f 21/331/10 22/330/10 10/335/6 9/336/6
f 23/332/11 24/329/11 22/330/10 21/331/10
f 12/333/7 11/334/7 24/329/11 23/332/11
f 10/23/6 25/24/6 26/25/7 11/26/7
f 12/13/7 27/14/7 28/15/6 9/16/6
f 22/191/10 7/1/4 25/190/6 10/197/6
f 9/251/6 28/252/6 20/4/4 21/250/10
f 24/192/11 8/2/5 7/1/4 22/191/10
f 21/250/10 20/4/4 19/3/5 23/249/11
f 11/198/7 26/193/7 8/2/5 24/192/11
f 23/249/11 19/3/5 27/253/7 12/254/7
s off
f 14/19/1 29/18/1 30/17/1 15/20/1
f 28/15/1 27/14/1 30/17/1 29/18/1
f 13/261/12 18/256/12 29/255/12 14/262/12
f 20/4/12 28/252/12 29/255/12 18/256/12
f 16/263/13 15/264/13 30/260/13 17/259/13
f 19/3/13 17/259/13 30/260/13 27/253/13
f 2/29/8 31/28/8 32/27/8 3/30/8
f 26/25/8 25/24/8 32/27/8 31/28/8
f 8/2/13 26/193/13 31/194/13 6/188/13
f 1/199/13 6/188/13 31/194/13 2/200/13
f 4/195/12 3/196/12 32/189/12 5/187/12
f 7/1/12 5/187/12 32/189/12 25/190/12
s 1
f 33/41/14 34/37/15 35/38/15 36/42/14
f 33/201/14 36/202/14 37/203/3 38/204/3
f 38/204/3 37/203/3 39/5/4 40/6/5
f 41/207/10 39/5/4 42/206/6 43/213/6
f 43/39/6 42/33/6 44/36/7 45/40/7
f 44/209/7 40/6/5 46/208/11 45/214/7
f 46/208/11 40/6/5 39/5/4 41/207/10
f 47/71/8 48/69/2 49/70/2 50/72/8
f 51/275/9 52/270/9 47/273/8 50/274/8
f 53/7/5 54/8/4 52/270/9 51/275/9
f 55/267/6 56/265/6 54/8/4 57/268/10
f 54/8/4 53/7/5 58/272/11 57/268/10
f 53/7/5 59/277/7 60/278/7 58/272/11
f 59/66/7 56/63/6 55/64/6 60/65/7
f 61/356/11 62/353/11 63/354/10 64/355/10
f 64/355/10 63/354/10 65/359/16 66/360/16
f 66/105/16 65/106/16 67/107/17 68/108/17
f 68/357/17 67/358/17 62/353/11 61/356/11
f 69/340/11 46/337/11 41/338/10 70/339/10
f 62/348/11 69/345/11 70/346/10 63/347/10
f 64/318/10 57/317/10 58/313/11 61/316/11
f 70/339/10 41/338/10 43/343/6 71/344/6
f 63/347/10 70/346/10 71/351/6 65/352/16
f 66/319/16 55/320/6 57/317/10 64/318/10
f 71/97/6 43/98/6 45/99/7 72/100/7
f 65/101/16 71/102/6 72/103/7 67/104/17
f 68/109/17 60/110/7 55/111/6 66/112/16
f 72/341/7 45/342/7 46/337/11 69/340/11
f 67/349/17 72/350/7 69/345/11 62/348/11
f 61/316/11 58/313/11 60/314/7 68/315/17
s off
f 48/69/1 73/68/1 74/67/1 49/70/1
f 56/63/1 59/66/1 74/67/1 73/68/1
f 74/276/13 51/275/13 50/279/13 49/280/13
f 53/7/13 51/275/13 74/276/13 59/277/13
f 47/269/12 52/270/12 73/266/12 48/271/12
f 54/8/12 56/265/12 73/266/12 52/270/12
s 2
f 42/33/8 75/34/8 76/35/8 44/36/8
f 35/38/8 34/37/8 76/35/8 75/34/8
s off
f 75/205/12 37/203/12 36/211/12 35/212/12
f 39/5/12 37/203/12 75/205/12 42/206/12
f 76/210/13 38/204/13 40/6/13 44/209/13
f 33/215/13 38/204/13 76/210/13 34/216/13
s 1
f 77/51/1 78/49/2 79/50/2 80/52/1
f 77/224/1 80/225/1 81/226/3 82/227/3
f 82/227/3 81/226/3 83/9/4 84/10/5
f 85/217/10 83/9/4 86/221/6 87/222/16
f 87/43/16 86/44/6 88/45/7 89/46/17
f 88/220/7 84/10/5 90/218/18 89/219/17
f 90/218/18 84/10/5 83/9/4 85/217/10
f 91/81/8 92/79/2 93/80/2 94/82/8
f 95/283/9 96/291/9 91/292/8 94/293/8
f 97/11/5 98/12/4 96/291/9 95/283/9
f 99/294/6 100/289/6 98/12/4 101/288/10
f 98/12/4 97/11/5 102/287/11 101/288/10
f 97/11/5 103/282/7 104/286/7 102/287/11
f 103/76/7 100/73/6 99/74/6 104/75/7
f 105/379/11 106/378/18 107/383/17 108/384/17
f 109/380/10 110/377/10 106/378/18 105/379/11
f 111/381/16 112/382/16 110/377/10 109/380/10
f 108/125/17 107/126/17 112/127/16 111/128/16
f 113/403/11 102/402/11 104/407/7 114/408/7
f 115/395/18 113/394/11 114/399/7 116/400/17
f 106/387/18 115/386/18 116/391/17 107/392/17
f 117/325/17 89/326/17 90/321/18 118/323/18
f 119/365/7 117/366/17 118/361/18 120/364/11
f 108/373/17 119/374/7 120/369/11 105/372/11
f 121/404/10 101/401/10 102/402/11 113/403/11
f 122/396/10 121/393/10 113/394/11 115/395/18
f 110/388/10 122/385/10 115/386/18 106/387/18
f 118/323/18 90/321/18 85/322/10 123/324/10
f 120/364/11 118/361/18 123/362/10 124/363/10
f 105/372/11 120/369/11 124/370/10 109/371/10
f 125/405/6 99/406/6 101/401/10 121/404/10
f 126/397/16 125/398/6 121/393/10 122/396/10
f 112/389/16 126/390/16 122/385/10 110/388/10
f 123/324/10 85/322/10 87/327/16 127/328/16
f 124/363/10 123/362/10 127/367/16 128/368/6
f 109/371/10 124/370/10 128/375/6 111/376/16
f 114/137/7 104/138/7 99/139/6 125/140/6
f 116/133/17 114/134/7 125/135/6 126/136/16
f 107/129/17 116/130/17 126/131/16 112/132/16
f 127/113/16 87/114/16 89/115/17 117/116/17
f 119/117/7 128/118/6 127/119/16 117/120/17
f 111/121/16 128/122/6 119/123/7 108/124/17
s off
f 92/79/1 129/78/1 130/77/1 93/80/1
f 100/73/1 103/76/1 130/77/1 129/78/1
f 130/281/13 95/283/13 94/284/13 93/285/13
f 97/11/13 95/283/13 130/281/13 103/282/13
f 91/295/12 96/291/12 129/290/12 92/296/12
f 98/12/12 100/289/12 129/290/12 96/291/12
f 78/49/8 131/48/8 132/47/8 79/50/8
f 88/45/8 86/44/8 132/47/8 131/48/8
f 84/10/13 88/220/13 131/223/13 82/227/13
f 77/229/13 82/227/13 131/223/13 78/230/13
f 132/228/12 86/221/12 83/9/12 81/226/12
f 80/231/12 79/232/12 132/228/12 81/226/12
s 1
f 133/61/1 134/59/2 135/60/2 136/62/1
f 133/233/1 136/234/1 137/235/3 138/236/3
f 138/236/3 137/235/3 139/178/4 140/177/5
f 141/239/10 139/178/4 142/238/6 143/245/16
f 143/53/16 142/54/6 144/55/7 145/56/17
f 144/241/7 140/177/5 146/240/18 145/246/17
f 146/240/18 140/177/5 139/178/4 141/239/10
f 147/91/8 148/89/2 149/90/2 150/92/8
f 151/304/9 152/308/9 147/309/8 150/310/8
f 153/179/5 154/180/4 152/308/9 151/304/9
f 155/305/6 156/306/6 154/180/4 157/301/10
f 154/180/4 153/179/5 158/299/11 157/301/10
f 153/179/5 159/297/7 160/298/7 158/299/11
f 159/86/7 156/83/6 155/84/6 160/85/7
f 161/443/18 162/442/18 163/447/17 164/448/17
f 165/444/10 166/441/10 162/442/18 161/443/18
f 167/445/6 168/446/6 166/441/10 165/444/10
f 164/157/17 163/158/17 168/159/6 167/160/6
f 169/483/18 158/482/11 160/487/7 170/488/17
f 171/475/18 169/474/18 170/479/17 172/480/17
f 173/467/11 171/466/18 172/471/17 174/472/17
f 175/459/18 173/458/11 174/463/17 176/464/17
f 162/451/18 175/450/18 176/455/17 163/456/17
f 177/413/17 145/414/17 146/409/18 178/412/18
f 179/421/17 177/422/17 178/417/18 180/420/11
f 181/429/7 179/430/17 180/425/11 182/428/11
f 164/437/17 181/438/7 182/433/11 161/436/18
f 183/484/10 157/481/10 158/482/11 169/483/18
f 184/476/10 183/473/10 169/474/18 171/475/18
f 185/468/10 184/465/10 171/466/18 173/467/11
f 186/460/10 185/457/10 173/458/11 175/459/18
f 166/452/10 186/449/10 175/450/18 162/451/18
f 178/412/18 146/409/18 141/410/10 187/411/10
f 180/420/11 178/417/18 187/418/10 188/419/10
f 182/428/11 180/425/11 188/426/10 189/427/10
f 161/436/18 182/433/11 189/434/10 165/435/10
f 190/485/6 155/486/6 157/481/10 183/484/10
f 191/477/6 190/478/6 183/473/10 184/476/10
f 192/469/16 191/470/6 184/465/10 185/468/10
f 193/461/16 192/462/16 185/457/10 186/460/10
f 168/453/6 193/454/16 186/449/10 166/452/10
f 187/411/10 141/410/10 143/415/16 194/416/6
f 188/419/10 187/418/10 194/423/6 195/424/6
f 189/427/10 188/426/10 195/431/6 196/432/6
f 165/435/10 189/434/10 196/439/6 167/440/6
f 170/181/17 160/182/7 155/183/6 190/184/6
f 172/173/17 170/174/17 190/175/6 191/176/6
f 174/169/17 172/170/17 191/171/6 192/172/16
f 176/165/17 174/166/17 192/167/16 193/168/16
f 163/161/17 176/162/17 193/163/16 168/164/6
f 194/141/6 143/142/16 145/143/17 177/144/17
f 195/145/6 194/146/6 177/147/17 179/148/17
f 196/149/6 195/150/6 179/151/17 181/152/7
f 167/153/6 196/154/6 181/155/7 164/156/17
s off
f 159/86/1 197/87/1 198/88/1 156/83/1
f 149/90/1 148/89/1 198/88/1 197/87/1
f 150/302/13 149/303/13 197/300/13 151/304/13
f 153/179/13 151/304/13 197/300/13 159/297/13
f 147/311/12 152/308/12 198/307/12 148/312/12
f 154/180/12 156/306/12 198/307/12 152/308/12
f 134/59/8 199/58/8 200/57/8 135/60/8
f 144/55/8 142/54/8 200/57/8 199/58/8
f 200/237/12 137/235/12 136/243/12 135/244/12
f 139/178/12 137/235/12 200/237/12 142/238/12
f 140/177/13 144/241/13 199/242/13 138/236/13
f 199/242/13 134/247/13 133/248/13 138/236/13
# 192 polygons

