# 3ds Max Wavefront OBJ Exporter v0.97b - (c)2007 guruware
# File Created: 02.10.2014 22:56:20
# UVs by headus UVLayout v2.08.01 2013/07/04 09:42:04

mtllib OuterCorner.mtl

#
# object SM_InnerRadius_1_E
#

v  -9.8426 9.8425 -7.8740
v  -9.8425 9.8425 -0.0000
v  9.8426 9.8425 0.0000
v  9.8426 9.8425 -7.8740
v  9.8426 -9.8425 -7.8740
v  -9.8425 -9.8425 -7.8740
v  9.8426 -9.8425 -0.0000
v  -9.8426 1.9685 74.8031
v  -9.8426 1.9685 43.3071
v  -9.8426 -9.8425 43.3071
v  -9.8426 -9.8425 74.8031
v  1.9686 1.9685 74.8032
v  1.9686 1.9685 43.3071
v  1.9685 -9.8425 74.8032
v  1.9685 -9.8425 43.3071
v  9.8426 9.8425 118.1103
v  -9.8426 9.8425 118.1102
v  -9.8426 9.8425 125.9843
v  9.8426 9.8425 125.9843
v  9.8426 -9.8425 125.9843
v  9.8426 -9.8425 118.1102
v  -9.8426 1.9685 7.8740
v  -9.8426 -9.8425 7.8740
v  -9.8426 -9.8425 110.2362
v  -9.8426 1.9685 110.2362
v  1.9686 1.9685 7.8740
v  1.9686 1.9685 110.2362
v  1.9685 -9.8425 110.2362
v  1.9685 -9.8425 7.8740
v  -9.8425 -9.8425 125.9843
v  -9.8425 -9.8425 118.1102
v  -9.8425 -9.8425 -0.0000
v  -45.1557 9.8425 -7.8740
v  -45.1557 9.8425 -0.0000
v  -25.4706 9.8425 -0.0000
v  -25.4706 9.8425 -7.8740
v  -25.4706 -9.8425 -7.8740
v  -45.1557 -9.8425 -7.8740
v  -25.4706 -9.8425 -0.0000
v  -45.1556 -9.8426 106.2992
v  -45.1556 1.9684 106.2992
v  -45.1556 1.9684 74.8031
v  -45.1556 -9.8426 74.8031
v  -33.3445 1.9684 106.2992
v  -33.3445 1.9684 74.8031
v  -33.3446 -9.8427 106.2992
v  -33.3445 1.9683 137.7952
v  -33.3446 -9.8427 137.7952
v  -25.4705 9.8422 212.5984
v  -45.1556 9.8422 212.5983
v  -45.1556 9.8422 220.4724
v  -25.4705 9.8422 220.4724
v  -25.4705 -9.8428 220.4724
v  -25.4705 -9.8428 212.5983
v  -45.1557 1.9685 43.3071
v  -45.1557 1.9685 7.8740
v  -45.1557 -9.8425 7.8740
v  -45.1557 -9.8425 43.3071
v  -45.1556 -9.8428 169.2912
v  -45.1556 -9.8428 204.7243
v  -45.1556 1.9682 204.7243
v  -45.1556 1.9682 169.2912
v  -33.3446 1.9685 43.3071
v  -33.3446 1.9685 7.8740
v  -33.3445 1.9682 204.7243
v  -33.3445 1.9682 169.2913
v  -33.3446 -9.8428 204.7243
v  -33.3446 -9.8428 169.2913
v  -33.3447 -9.8425 43.3071
v  -33.3447 -9.8425 7.8740
v  -45.1556 -9.8428 220.4724
v  -45.1556 -9.8428 212.5983
v  -45.1556 -9.8425 -0.0000
v  -45.1556 -9.8427 137.7952
v  -45.1556 1.9683 137.7952
v  -33.3446 -9.8426 74.8031
v  -79.1302 9.8424 -7.8739
v  -79.1302 9.8424 0.0001
v  -59.4451 9.8424 0.0001
v  -59.4451 9.8424 -7.8739
v  -59.4451 -9.8426 -7.8739
v  -79.1302 -9.8426 -7.8739
v  -59.4451 -9.8426 0.0001
v  -79.1302 -9.8427 169.2912
v  -79.1302 1.9683 169.2913
v  -79.1302 1.9683 137.7952
v  -79.1302 -9.8426 137.7952
v  -67.3191 1.9683 169.2913
v  -67.3191 1.9683 137.7953
v  -67.3192 -9.8427 137.7953
v  -67.3192 -9.8427 169.2913
v  -59.4451 9.8422 307.0865
v  -79.1301 9.8422 307.0864
v  -79.1301 9.8422 314.9605
v  -59.4451 9.8422 314.9605
v  -59.4450 -9.8428 314.9605
v  -59.4450 -9.8428 307.0864
v  -79.1302 1.9684 43.3072
v  -79.1302 1.9684 7.8741
v  -79.1302 -9.8425 7.8741
v  -79.1302 -9.8425 43.3072
v  -79.1302 -9.8428 263.7793
v  -79.1301 -9.8428 299.2124
v  -79.1301 1.9682 299.2124
v  -79.1302 1.9682 263.7793
v  -67.3191 1.9684 43.3072
v  -67.3191 1.9684 7.8741
v  -67.3190 1.9682 299.2124
v  -67.3190 1.9682 263.7794
v  -67.3191 -9.8428 299.2124
v  -67.3192 -9.8428 263.7794
v  -67.3192 -9.8426 43.3072
v  -67.3192 -9.8426 7.8741
v  -79.1301 -9.8428 314.9605
v  -79.1301 -9.8428 307.0864
v  -79.1302 -9.8426 0.0001
v  -79.1302 1.9682 232.2833
v  -79.1302 -9.8427 232.2833
v  -79.1302 1.9683 200.7873
v  -79.1302 -9.8427 200.7873
v  -79.1302 -9.8426 74.8032
v  -79.1302 1.9684 74.8032
v  -79.1302 -9.8426 106.2992
v  -79.1302 1.9684 106.2992
v  -67.3191 1.9682 232.2834
v  -67.3191 1.9683 200.7874
v  -67.3191 1.9684 74.8032
v  -67.3191 1.9684 106.2992
v  -67.3192 -9.8426 74.8032
v  -67.3192 -9.8426 106.2992
v  -67.3192 -9.8428 232.2834
v  -67.3192 -9.8427 200.7874
v  -120.0937 9.8424 -7.8738
v  -120.0937 9.8424 0.0002
v  -100.4086 9.8424 0.0002
v  -100.4086 9.8424 -7.8738
v  -100.4086 -9.8426 -7.8738
v  -120.0937 -9.8426 -7.8738
v  -100.4086 -9.8426 0.0002
v  -120.0937 -9.8426 200.7874
v  -120.0937 1.9684 200.7874
v  -120.0937 1.9684 169.2914
v  -120.0937 -9.8426 169.2914
v  -108.2826 1.9684 200.7874
v  -108.2826 1.9684 169.2914
v  -108.2827 -9.8427 200.7874
v  -108.2826 1.9683 232.2835
v  -108.2827 -9.8427 232.2835
v  -100.4086 9.8423 401.5747
v  -120.0937 9.8423 401.5746
v  -120.0937 9.8423 409.4487
v  -100.4086 9.8423 409.4487
v  -100.4086 -9.8427 409.4487
v  -100.4086 -9.8427 401.5746
v  -120.0937 1.9684 43.3073
v  -120.0937 1.9684 7.8742
v  -120.0937 -9.8425 7.8742
v  -120.0937 -9.8425 43.3073
v  -120.0937 -9.8427 358.2675
v  -120.0937 -9.8427 393.7006
v  -120.0937 1.9683 393.7006
v  -120.0937 1.9683 358.2675
v  -108.2826 1.9684 43.3073
v  -108.2826 1.9684 7.8742
v  -108.2826 1.9683 393.7006
v  -108.2826 1.9683 358.2676
v  -108.2827 -9.8427 393.7006
v  -108.2827 -9.8427 358.2676
v  -108.2827 -9.8426 43.3073
v  -108.2827 -9.8426 7.8742
v  -120.0937 -9.8427 409.4487
v  -120.0937 -9.8427 401.5746
v  -120.0937 -9.8426 0.0002
v  -120.0937 -9.8427 232.2834
v  -120.0937 1.9683 326.7714
v  -120.0937 -9.8427 326.7715
v  -120.0937 1.9683 295.2754
v  -120.0937 -9.8427 295.2754
v  -120.0937 1.9683 263.7794
v  -120.0937 -9.8427 263.7794
v  -120.0937 1.9683 232.2834
v  -120.0937 -9.8426 74.8033
v  -120.0937 1.9684 74.8033
v  -120.0937 -9.8426 106.2993
v  -120.0937 1.9684 106.2993
v  -120.0937 -9.8426 137.7953
v  -120.0937 1.9684 137.7953
v  -108.2826 1.9683 326.7715
v  -108.2826 1.9683 295.2755
v  -108.2826 1.9683 263.7795
v  -108.2826 1.9684 74.8033
v  -108.2826 1.9684 106.2993
v  -108.2826 1.9684 137.7954
v  -108.2827 -9.8426 74.8033
v  -108.2827 -9.8426 106.2993
v  -108.2827 -9.8426 137.7954
v  -108.2827 -9.8426 169.2914
v  -108.2827 -9.8427 326.7715
v  -108.2827 -9.8427 295.2755
v  -108.2827 -9.8427 263.7795
# 200 vertices

vn 0.0000 0.7071 -0.7071
vn 0.0000 1.0000 0.0000
vn 0.7071 0.7071 -0.0000
vn 0.5774 0.5774 -0.5774
vn 0.7071 0.0000 -0.7071
vn 0.0000 0.0000 -1.0000
vn 1.0000 0.0000 -0.0000
vn -0.7071 0.7071 0.0000
vn -1.0000 0.0000 0.0000
vn 0.7071 0.7071 0.0000
vn 1.0000 -0.0000 0.0000
vn 1.0000 0.0000 0.0000
vn 0.7071 -0.0000 0.7071
vn -0.0000 0.7071 0.7071
vn 0.0000 0.0000 1.0000
vn -1.0000 -0.0000 0.0000
vn -0.0000 -1.0000 0.0000
vn 0.0000 -1.0000 0.0000
vn -1.0000 -0.0000 -0.0000
vn 1.0000 -0.0000 -0.0000
vn -0.0000 -1.0000 -0.0000
vn -0.7071 0.7071 -0.0000
# 22 vertex normals

# 470 texture coords
vt 0.946716 0.138665
vt 0.946769 0.200247
vt 0.946570 0.069383
vt 0.946756 0.269532
vt 0.946756 0.284927
vt 0.946534 0.053989
vt 0.947994 0.261749
vt 0.948189 0.200162
vt 0.948295 0.069295
vt 0.948295 0.138580
vt 0.947302 0.384917
vt 0.946747 0.454194
vt 0.946623 0.469588
vt 0.948300 0.053900
vt 0.947696 0.323335
vt 0.950575 0.385471
vt 0.950109 0.323885
vt 0.946956 0.069871
vt 0.947985 0.139144
vt 0.951231 0.570217
vt 0.951244 0.639498
vt 0.951249 0.654893
vt 0.946725 0.054477
vt 0.951125 0.508635
vt 0.950912 0.447053
vt 0.948805 0.200726
vt 0.949519 0.262303
vt 0.954012 0.446494
vt 0.954637 0.384913
vt 0.955755 0.069295
vt 0.955755 0.138580
vt 0.948765 0.754369
vt 0.947191 0.823637
vt 0.946840 0.839027
vt 0.955759 0.053900
vt 0.953245 0.508076
vt 0.950065 0.692800
vt 0.951262 0.631227
vt 0.952322 0.569654
vt 0.955653 0.200162
vt 0.955445 0.261749
vt 0.955112 0.323331
vt 0.984881 0.000000
vt 0.984987 0.038493
vt 0.946499 0.038595
vt 0.946392 0.000106
vt 0.985023 0.053896
vt 0.969664 0.069335
vt 0.908011 0.038674
vt 0.908042 0.054069
vt 0.969814 0.138629
vt 0.923476 0.069428
vt 0.969863 0.200238
vt 0.923618 0.138696
vt 0.969854 0.269532
vt 0.923680 0.200255
vt 0.985244 0.284936
vt 0.923662 0.269528
vt 0.908264 0.284922
vt 0.985240 0.300339
vt 0.946747 0.300321
vt 0.908259 0.300312
vt 0.985213 0.338836
vt 0.946721 0.338805
vt 0.986766 0.000000
vt 0.986788 0.038497
vt 0.948295 0.038510
vt 0.948277 0.000022
vt 0.986792 0.053900
vt 0.971393 0.069304
vt 0.909811 0.038501
vt 0.909807 0.053896
vt 0.971389 0.138603
vt 0.925201 0.069290
vt 0.971282 0.200224
vt 0.925197 0.138554
vt 0.971087 0.261842
vt 0.925095 0.200109
vt 0.970790 0.323459
vt 0.924900 0.261656
vt 0.970395 0.385077
vt 0.924603 0.323202
vt 0.969841 0.454376
vt 0.924208 0.384753
vt 0.985111 0.469908
vt 0.923653 0.454012
vt 0.908135 0.469282
vt 0.984987 0.485306
vt 0.946499 0.484983
vt 0.908011 0.484677
vt 0.984654 0.523803
vt 0.946162 0.523471
vt 0.984371 0.000000
vt 0.984974 0.038488
vt 0.946490 0.039087
vt 0.945882 0.000608
vt 0.985213 0.053891
vt 0.970050 0.069525
vt 0.908011 0.039659
vt 0.908241 0.055049
vt 0.971078 0.138824
vt 0.923866 0.070208
vt 0.971899 0.200437
vt 0.924895 0.139467
vt 0.972613 0.262064
vt 0.925716 0.201009
vt 0.973203 0.323690
vt 0.926425 0.262547
vt 0.973669 0.385321
vt 0.927020 0.324085
vt 0.974006 0.446947
vt 0.927481 0.385618
vt 0.974219 0.508573
vt 0.927818 0.447155
vt 0.974325 0.570191
vt 0.928031 0.508697
vt 0.974343 0.639494
vt 0.928137 0.570248
vt 0.989742 0.654897
vt 0.928151 0.639507
vt 0.912756 0.654906
vt 0.989737 0.670301
vt 0.951249 0.670287
vt 0.912761 0.670296
vt 0.989715 0.708798
vt 0.951227 0.708775
vt 0.994225 0.000000
vt 0.994243 0.038493
vt 0.955755 0.038510
vt 0.955733 0.000022
vt 0.994248 0.053900
vt 0.978849 0.069299
vt 0.917267 0.038501
vt 0.917267 0.053896
vt 0.978849 0.138603
vt 0.932661 0.069286
vt 0.978747 0.200224
vt 0.932657 0.138554
vt 0.978538 0.261851
vt 0.932559 0.200105
vt 0.978206 0.323486
vt 0.932355 0.261647
vt 0.977731 0.385121
vt 0.932018 0.323180
vt 0.977106 0.446756
vt 0.931544 0.384709
vt 0.976339 0.508391
vt 0.930923 0.446233
vt 0.975412 0.570026
vt 0.930151 0.507761
vt 0.974352 0.631648
vt 0.929233 0.569281
vt 0.973159 0.693266
vt 0.928168 0.630806
vt 0.971855 0.754874
vt 0.926975 0.692334
vt 0.970276 0.824156
vt 0.925676 0.753867
vt 0.985320 0.839900
vt 0.924097 0.823118
vt 0.908357 0.838157
vt 0.984969 0.855299
vt 0.946486 0.854416
vt 0.908011 0.853547
vt 0.984073 0.893783
vt 0.945594 0.892891
vt 0.691394 0.421365
vt 0.907093 0.421365
vt 0.907093 0.996563
vt 0.691394 0.996563
vt 0.907097 0.996563
vt 0.691394 0.996567
vt 0.691394 0.421365
vt 0.907097 0.421365
vt 0.691394 0.996567
vt 0.907093 0.996567
vt 0.691394 0.421365
vt 0.907093 0.421365
vt 0.691394 0.421365
vt 0.907097 0.421365
vt 0.907097 0.996563
vt 0.691394 0.996567
vt 0.691394 0.421365
vt 0.907093 0.421365
vt 0.907093 0.996567
vt 0.691394 0.996567
vt 0.907097 0.996567
vt 0.691394 0.996567
vt 0.691394 0.421369
vt 0.907097 0.421365
vt 0.907097 0.996563
vt 0.691394 0.996567
vt 0.691394 0.421365
vt 0.907097 0.421365
vt 0.691394 0.996567
vt 0.907093 0.996567
vt 0.691394 0.421365
vt 0.907093 0.421365
vt 0.907093 0.996567
vt 0.691394 0.996567
vt 0.691399 0.421365
vt 0.907097 0.421365
vt 0.907097 0.996563
vt 0.691394 0.996567
vt 0.691394 0.421365
vt 0.907097 0.421365
vt 0.907097 0.996563
vt 0.691394 0.996563
vt 0.691399 0.421365
vt 0.907097 0.421365
vt 0.691394 0.996567
vt 0.907093 0.996567
vt 0.691394 0.421365
vt 0.907093 0.421365
vt 0.691394 0.421365
vt 0.907093 0.421365
vt 0.907093 0.996563
vt 0.691394 0.996563
vt 0.691394 0.421365
vt 0.907093 0.421365
vt 0.907093 0.996563
vt 0.691394 0.996563
vt 0.691394 0.421365
vt 0.907093 0.421365
vt 0.907093 0.996567
vt 0.691394 0.996567
vt 0.691394 0.421365
vt 0.907093 0.421365
vt 0.907093 0.996567
vt 0.691394 0.996567
vt 0.691394 0.421365
vt 0.907097 0.421365
vt 0.907097 0.996563
vt 0.691394 0.996567
vt 0.691394 0.421365
vt 0.907093 0.421365
vt 0.907093 0.996567
vt 0.691394 0.996567
vt 0.691394 0.421365
vt 0.907093 0.421365
vt 0.907093 0.996567
vt 0.691394 0.996567
vt 0.691394 0.421369
vt 0.907097 0.421365
vt 0.907097 0.996567
vt 0.691394 0.996567
vt 0.907093 0.996567
vt 0.691394 0.996567
vt 0.691394 0.421365
vt 0.907093 0.421365
vt 0.691394 0.421365
vt 0.907093 0.421365
vt 0.907093 0.996563
vt 0.691394 0.996563
vt 0.691394 0.421365
vt 0.907093 0.421365
vt 0.907093 0.996567
vt 0.691394 0.996567
vt 0.907093 0.996563
vt 0.691394 0.996563
vt 0.691394 0.421365
vt 0.907093 0.421365
vt 0.907093 0.996567
vt 0.691394 0.996567
vt 0.691394 0.421365
vt 0.907093 0.421365
vt 0.907093 0.996563
vt 0.691394 0.996567
vt 0.691394 0.421365
vt 0.907093 0.421365
vt 0.907093 0.996563
vt 0.691394 0.996563
vt 0.691394 0.421365
vt 0.907093 0.421365
vt 0.907097 0.996563
vt 0.691394 0.996567
vt 0.691394 0.421369
vt 0.907097 0.421365
vt 0.907097 0.996563
vt 0.691394 0.996567
vt 0.691394 0.421365
vt 0.907097 0.421365
vt 0.691394 0.996567
vt 0.907093 0.996567
vt 0.691394 0.421365
vt 0.907093 0.421365
vt 0.907093 0.996567
vt 0.691394 0.996567
vt 0.691394 0.421365
vt 0.907093 0.421365
vt 0.907093 0.996567
vt 0.691394 0.996567
vt 0.691394 0.421369
vt 0.907093 0.421365
vt 0.732499 0.145650
vt 0.587612 0.348305
vt 0.371913 0.347063
vt 0.373004 0.143770
vt 0.373732 0.000000
vt 0.733226 0.001823
vt 0.367953 0.994115
vt 0.583647 0.995436
vt 0.587705 0.348345
vt 0.732636 0.145725
vt 0.373142 0.143765
vt 0.372006 0.347063
vt 0.373900 0.000000
vt 0.733395 0.001907
vt 0.583651 0.995472
vt 0.367953 0.994115
vt 0.372884 0.143770
vt 0.373576 0.000000
vt 0.733071 0.001747
vt 0.732379 0.145575
vt 0.587532 0.348269
vt 0.371833 0.347063
vt 0.367953 0.994110
vt 0.583647 0.995405
vt 0.373616 0.000000
vt 0.372867 0.143783
vt 0.732366 0.145681
vt 0.733111 0.001872
vt 0.587479 0.348318
vt 0.371780 0.347103
vt 0.583651 0.995441
vt 0.367953 0.994163
vt 0.732477 0.145668
vt 0.587581 0.348309
vt 0.371882 0.347067
vt 0.372982 0.143770
vt 0.373718 0.000000
vt 0.733209 0.001845
vt 0.367953 0.994119
vt 0.583647 0.995432
vt 0.587536 0.348292
vt 0.732415 0.145637
vt 0.372920 0.143770
vt 0.371838 0.347067
vt 0.373638 0.000000
vt 0.733138 0.001814
vt 0.583651 0.995418
vt 0.367953 0.994123
vt 0.732477 0.145606
vt 0.587612 0.348287
vt 0.371913 0.347059
vt 0.372982 0.143770
vt 0.373687 0.000000
vt 0.733182 0.001778
vt 0.367953 0.994101
vt 0.583647 0.995423
vt 0.587656 0.348345
vt 0.732579 0.145721
vt 0.373080 0.143770
vt 0.371957 0.347076
vt 0.373838 0.000000
vt 0.733333 0.001898
vt 0.583647 0.995467
vt 0.367953 0.994132
vt 0.005149 0.851693
vt 0.005903 0.995467
vt 0.365398 0.993582
vt 0.364648 0.849755
vt 0.219726 0.647123
vt 0.004027 0.648391
vt 0.000000 0.001339
vt 0.215699 0.000000
vt 0.005127 0.851689
vt 0.005872 0.995463
vt 0.365367 0.993591
vt 0.364622 0.849764
vt 0.219708 0.647123
vt 0.004014 0.648386
vt 0.000000 0.001335
vt 0.215694 0.000000
vt 0.364475 0.849800
vt 0.219606 0.647127
vt 0.003907 0.648351
vt 0.004981 0.851649
vt 0.005699 0.995423
vt 0.365194 0.993627
vt 0.000000 0.001299
vt 0.215699 0.000000
vt 0.004994 0.851653
vt 0.005712 0.995427
vt 0.365207 0.993622
vt 0.364489 0.849795
vt 0.219615 0.647127
vt 0.003916 0.648355
vt 0.000000 0.001304
vt 0.215699 0.000000
vt 0.691394 0.996567
vt 0.691394 0.421365
vt 0.907097 0.421365
vt 0.907097 0.996563
vt 0.907093 0.421365
vt 0.907093 0.996567
vt 0.691394 0.996567
vt 0.691394 0.421365
vt 0.691394 0.421365
vt 0.907093 0.421365
vt 0.907093 0.996567
vt 0.691394 0.996567
vt 0.691399 0.421365
vt 0.907102 0.421365
vt 0.907097 0.996563
vt 0.691394 0.996563
vt 0.691394 0.421365
vt 0.907093 0.421365
vt 0.907093 0.996567
vt 0.691394 0.996567
vt 0.907093 0.996567
vt 0.691394 0.996567
vt 0.691394 0.421365
vt 0.907093 0.421365
vt 0.907093 0.996563
vt 0.691394 0.996563
vt 0.691394 0.421365
vt 0.907093 0.421365
vt 0.691394 0.421365
vt 0.907093 0.421365
vt 0.907093 0.996567
vt 0.691394 0.996567
vt 0.691394 0.421365
vt 0.907093 0.421365
vt 0.907093 0.996563
vt 0.691394 0.996563
vt 0.691394 0.421365
vt 0.907093 0.421365
vt 0.907093 0.996563
vt 0.691394 0.996563
vt 0.691394 0.421365
vt 0.907093 0.421365
vt 0.907093 0.996567
vt 0.691394 0.996567
vt 0.691394 0.421365
vt 0.907093 0.421365
vt 0.907093 0.996567
vt 0.691394 0.996567
vt 0.215699 0.000000
vt 0.219575 0.647127
vt 0.003881 0.648347
vt 0.000000 0.001295
vt 0.004954 0.851645
vt 0.364449 0.849786
vt 0.005673 0.995418
vt 0.365167 0.993609
vt 0.005021 0.851684
vt 0.003898 0.648360
vt 0.219593 0.647114
vt 0.364515 0.849715
vt 0.215694 0.000000
vt 0.000000 0.001299
vt 0.005801 0.995472
vt 0.365296 0.993525
vt 0.215694 0.000000
vt 0.219584 0.647127
vt 0.003885 0.648342
vt 0.000000 0.001295
vt 0.004954 0.851631
vt 0.364449 0.849800
vt 0.005659 0.995401
vt 0.365154 0.993627
vt 0.215699 0.000000
vt 0.219553 0.647127
vt 0.003854 0.648338
vt 0.000000 0.001286
vt 0.004914 0.851631
vt 0.364409 0.849800
vt 0.005624 0.995405
vt 0.365119 0.993622
# 119 texture coords

g SM_InnerRadius_1_E
usemtl Test
s 1
f 1/307/1 2/305/2 3/304/3 4/308/4
f 4/43/4 5/44/5 6/45/6 1/46/1
f 3/295/3 7/298/7 5/299/5 4/300/4
f 8/56/8 9/54/8 10/1/9 11/2/9
f 12/391/10 13/392/10 9/393/8 8/394/8
f 13/395/10 12/396/10 14/397/11 15/398/11
f 16/362/10 17/359/2 18/360/2 19/361/10
f 20/445/12 21/443/12 16/444/10 19/446/10
f 9/54/8 22/52/8 23/3/9 10/1/9
f 11/2/9 24/4/9 25/58/8 8/56/8
f 13/309/10 26/303/10 22/306/8 9/310/8
f 8/365/8 25/364/8 27/363/10 12/366/10
f 12/439/10 27/440/10 28/441/11 14/442/11
f 15/301/11 29/297/11 26/296/10 13/302/10
s off
f 7/298/13 3/295/13 26/296/13 29/297/13
f 26/303/14 3/304/14 2/305/14 22/306/14
f 21/443/5 28/441/5 27/440/5 16/444/5
f 17/359/1 16/362/1 27/363/1 25/364/1
f 19/63/15 18/64/15 30/61/15 20/60/15
f 30/61/16 18/62/16 17/59/16 31/5/16
f 20/60/17 30/61/17 31/5/17 21/57/17
f 1/49/16 6/45/16 32/6/16 2/50/16
f 6/45/18 5/44/18 7/47/18 32/6/18
f 11/2/17 14/53/17 28/55/17 24/4/17
f 10/1/17 15/51/17 14/53/17 11/2/17
f 23/3/17 29/48/17 15/51/17 10/1/17
f 29/48/17 23/3/17 32/6/17 7/47/17
f 22/52/19 2/50/19 32/6/19 23/3/19
f 31/5/17 24/4/17 28/55/17 21/57/17
f 25/58/16 24/4/16 31/5/16 17/59/16
s 1
f 33/319/1 34/320/2 35/321/3 36/322/4
f 36/65/4 37/66/5 38/67/6 33/68/1
f 35/314/3 39/311/7 37/312/5 36/313/4
f 40/7/9 41/80/8 42/78/8 43/8/9
f 41/411/8 44/412/10 45/413/10 42/414/8
f 46/167/20 44/168/10 47/169/10 48/170/20
f 49/370/10 50/367/2 51/368/2 52/369/10
f 53/453/12 54/447/12 49/450/10 52/454/10
f 55/76/8 56/74/8 57/9/9 58/10/9
f 59/11/9 60/12/9 61/86/8 62/84/8
f 63/325/10 64/323/10 56/324/8 55/326/8
f 62/373/8 61/372/8 65/371/10 66/374/10
f 66/451/10 65/449/10 67/448/11 68/452/20
f 69/317/20 70/316/11 64/315/10 63/318/10
s off
f 39/311/13 35/314/13 64/315/13 70/316/13
f 64/323/14 35/321/14 34/320/14 56/324/14
f 54/447/5 67/448/5 65/449/5 49/450/5
f 50/367/1 49/370/1 65/371/1 61/372/1
f 52/91/15 51/92/15 71/89/15 53/88/15
f 71/89/9 51/90/9 50/87/9 72/13/9
f 53/88/17 71/89/17 72/13/17 54/85/17
f 33/71/16 38/67/16 73/14/16 34/72/16
f 38/67/18 37/66/18 39/69/18 73/14/18
f 59/11/17 68/81/17 67/83/17 60/12/17
f 40/7/21 46/77/21 48/79/21 74/15/21
f 57/9/17 70/70/17 69/73/17 58/10/17
f 70/70/17 57/9/17 73/14/17 39/69/17
f 56/74/19 34/72/19 73/14/19 57/9/19
f 72/13/17 60/12/17 67/83/17 54/85/17
f 61/86/9 60/12/9 72/13/9 50/87/9
s 1
f 59/11/9 62/84/8 75/82/8 74/15/9
f 74/15/9 75/82/8 41/80/8 40/7/9
f 55/76/8 58/10/9 43/8/9 42/78/8
f 62/171/8 66/172/10 47/173/10 75/174/8
f 75/415/8 47/416/10 44/417/10 41/418/8
f 63/403/10 55/404/8 42/405/8 45/406/10
f 69/399/20 63/400/10 45/401/10 76/402/20
f 76/407/20 45/408/10 44/409/10 46/410/20
f 66/176/10 68/175/20 48/177/20 47/178/10
s off
f 58/10/21 69/73/21 76/75/21 43/8/21
f 43/8/21 76/75/21 46/77/21 40/7/21
f 68/81/21 59/11/21 74/15/21 48/79/21
s 1
f 77/339/1 78/337/2 79/336/10 80/340/4
f 80/93/4 81/94/5 82/95/6 77/96/1
f 79/327/10 83/330/12 81/331/5 80/332/4
f 84/16/16 85/112/8 86/110/8 87/17/16
f 85/187/8 88/188/10 89/189/10 86/190/8
f 90/183/20 89/184/10 88/185/10 91/186/20
f 92/375/10 93/378/2 94/379/2 95/380/10
f 96/461/12 97/459/12 92/460/10 95/462/10
f 98/104/8 99/102/8 100/18/9 101/19/9
f 102/20/9 103/21/9 104/120/22 105/118/8
f 106/341/10 107/335/10 99/338/8 98/342/8
f 105/381/8 104/377/22 108/376/3 109/382/3
f 109/455/3 108/456/3 110/457/20 111/458/20
f 112/333/20 113/329/11 107/328/10 106/334/10
s off
f 83/330/13 79/327/13 107/328/13 113/329/13
f 107/335/14 79/336/14 78/337/14 99/338/14
f 97/459/5 110/457/5 108/456/5 92/460/5
f 93/378/1 92/375/1 108/376/1 104/377/1
f 95/125/15 94/126/15 114/123/15 96/122/15
f 114/123/9 94/124/9 93/121/9 115/22/9
f 96/122/17 114/123/17 115/22/17 97/119/17
f 77/99/16 82/95/16 116/23/16 78/100/16
f 82/95/18 81/94/18 83/97/18 116/23/18
f 102/20/17 111/115/17 110/117/17 103/21/17
f 87/17/21 90/107/21 91/109/21 84/16/21
f 100/18/17 113/98/17 112/101/17 101/19/17
f 113/98/17 100/18/17 116/23/17 83/97/17
f 99/102/19 78/100/19 116/23/19 100/18/19
f 115/22/17 103/21/17 110/117/17 97/119/17
f 104/120/9 103/21/9 115/22/9 93/121/9
s 1
f 102/20/9 105/118/8 117/116/8 118/24/9
f 118/24/9 117/116/8 119/114/8 120/25/16
f 120/25/16 119/114/8 85/112/8 84/16/16
f 98/104/8 101/19/9 121/26/9 122/106/8
f 122/106/8 121/26/9 123/27/9 124/108/8
f 124/108/8 123/27/9 87/17/16 86/110/8
f 105/207/8 109/208/3 125/209/10 117/210/8
f 117/203/8 125/204/10 126/205/10 119/206/8
f 119/191/8 126/192/10 88/193/10 85/194/8
f 106/423/10 98/424/8 122/425/8 127/426/10
f 127/431/10 122/432/8 124/433/8 128/434/10
f 128/179/10 124/180/8 86/181/8 89/182/10
f 112/427/20 106/428/10 127/429/10 129/430/20
f 129/419/20 127/420/10 128/421/10 130/422/20
f 130/435/20 128/436/10 89/437/10 90/438/20
f 109/212/3 111/211/20 131/213/20 125/214/10
f 125/199/10 131/200/20 132/201/20 126/202/10
f 126/196/10 132/195/20 91/197/20 88/198/10
s off
f 101/19/21 112/101/21 129/103/21 121/26/21
f 121/26/21 129/103/21 130/105/21 123/27/21
f 123/27/21 130/105/21 90/107/21 87/17/21
f 111/115/21 102/20/21 118/24/21 131/113/21
f 131/113/21 118/24/21 120/25/21 132/111/21
f 132/111/21 120/25/21 84/16/21 91/109/21
s 1
f 133/355/1 134/353/2 135/352/3 136/356/4
f 136/127/4 137/128/5 138/129/6 133/130/1
f 135/343/3 139/346/7 137/347/5 136/348/4
f 140/28/9 141/148/8 142/146/8 143/29/9
f 141/247/8 144/248/10 145/249/10 142/250/8
f 146/255/20 144/256/10 147/257/10 148/258/20
f 149/386/10 150/383/2 151/384/2 152/385/10
f 153/469/12 154/467/12 149/468/10 152/470/10
f 155/138/8 156/136/8 157/30/9 158/31/9
f 159/32/9 160/33/9 161/160/8 162/158/8
f 163/357/10 164/351/10 156/354/8 155/358/8
f 162/389/8 161/388/8 165/387/10 166/390/10
f 166/463/10 165/464/10 167/465/11 168/466/20
f 169/349/20 170/345/11 164/344/10 163/350/10
s off
f 139/346/13 135/343/13 164/344/13 170/345/13
f 164/351/14 135/352/14 134/353/14 156/354/14
f 154/467/5 167/465/5 165/464/5 149/468/5
f 150/383/1 149/386/1 165/387/1 161/388/1
f 152/165/15 151/166/15 171/163/15 153/162/15
f 171/163/16 151/164/16 150/161/16 172/34/16
f 153/162/17 171/163/17 172/34/17 154/159/17
f 133/133/16 138/129/16 173/35/16 134/134/16
f 138/129/18 137/128/18 139/131/18 173/35/18
f 159/32/21 168/155/21 167/157/21 160/33/21
f 140/28/21 146/145/21 148/147/21 174/36/21
f 157/30/17 170/132/17 169/135/17 158/31/17
f 170/132/17 157/30/17 173/35/17 139/131/17
f 156/136/19 134/134/19 173/35/19 157/30/19
f 172/34/17 160/33/17 167/157/17 154/159/17
f 161/160/16 160/33/16 172/34/16 150/161/16
s 1
f 159/32/9 162/158/8 175/156/8 176/37/9
f 176/37/9 175/156/8 177/154/8 178/38/9
f 178/38/9 177/154/8 179/152/8 180/39/9
f 180/39/9 179/152/8 181/150/8 174/36/9
f 174/36/9 181/150/8 141/148/8 140/28/9
f 155/138/8 158/31/9 182/40/9 183/140/8
f 183/140/8 182/40/9 184/41/9 185/142/8
f 185/142/8 184/41/9 186/42/9 187/144/8
f 187/144/8 186/42/9 143/29/9 142/146/8
f 162/291/8 166/292/10 188/293/10 175/294/8
f 175/279/8 188/280/10 189/281/10 177/282/8
f 177/275/8 189/276/10 190/277/10 179/278/8
f 179/267/8 190/268/10 147/269/10 181/270/8
f 181/259/8 147/260/10 144/261/10 141/262/8
f 163/215/10 155/216/8 183/217/8 191/218/10
f 191/227/10 183/228/8 185/229/8 192/230/10
f 192/231/10 185/232/8 187/233/8 193/234/10
f 193/243/10 187/244/8 142/245/8 145/246/10
f 169/219/20 163/220/10 191/221/10 194/222/20
f 194/223/20 191/224/10 192/225/10 195/226/20
f 195/235/20 192/236/10 193/237/10 196/238/20
f 196/239/20 193/240/10 145/241/10 197/242/20
f 197/251/20 145/252/10 144/253/10 146/254/20
f 166/287/10 168/288/20 198/289/20 188/290/10
f 188/284/10 198/283/20 199/285/20 189/286/10
f 189/271/10 199/272/20 200/273/20 190/274/10
f 190/263/10 200/264/20 148/265/20 147/266/10
s off
f 158/31/21 169/135/21 194/137/21 182/40/21
f 182/40/21 194/137/21 195/139/21 184/41/21
f 184/41/21 195/139/21 196/141/21 186/42/21
f 186/42/21 196/141/21 197/143/21 143/29/21
f 143/29/21 197/143/21 146/145/21 140/28/21
f 168/155/21 159/32/21 176/37/21 198/153/21
f 198/153/21 176/37/21 178/38/21 199/151/21
f 199/151/21 178/38/21 180/39/21 200/149/21
f 200/149/21 180/39/21 174/36/21 148/147/21
# 192 polygons

