# 3ds Max Wavefront OBJ Exporter v0.97b - (c)2007 guruware
# File Created: 05.10.2014 02:27:10
# UVs by headus UVLayout v2.08.01 2013/07/04 09:42:04

mtllib Server.mtl

#
# object SM_RackServer_E
#

v  -15.8402 35.9992 88.5827
v  15.8402 35.9992 88.5827
v  15.8402 67.6796 88.5827
v  -15.8402 67.6796 88.5827
v  18.2014 61.3911 80.8391
v  18.2014 42.2877 80.8391
v  18.2014 42.2877 7.0398
v  18.2014 61.3911 7.0398
v  -18.2014 42.2877 80.8391
v  -18.2014 61.3911 80.8391
v  -18.2014 61.3911 7.0398
v  -18.2014 42.2877 7.0398
v  15.8402 67.6796 0.0000
v  15.8402 65.2882 86.1913
v  15.8402 65.2882 1.6876
v  15.8402 38.3906 86.1913
v  15.8402 35.9992 0.0000
v  15.8402 38.3906 1.6876
v  -15.8402 35.9992 0.0000
v  -15.8402 38.3906 86.1913
v  -15.8402 38.3906 1.6876
v  -15.8402 65.2882 86.1913
v  -15.8402 67.6796 0.0000
v  -15.8402 65.2882 1.6876
v  18.2122 63.7318 84.0837
v  18.2122 63.7318 3.7952
v  18.2122 39.9471 84.0837
v  18.2122 39.9471 3.7952
v  -18.2122 39.9471 84.0837
v  -18.2122 39.9471 3.7952
v  -18.2122 63.7318 84.0837
v  -18.2122 63.7318 3.7952
v  19.6537 62.3910 81.8391
v  19.6537 62.3910 6.0398
v  19.6537 41.2878 81.8391
v  19.6537 41.2878 6.0398
v  -19.6537 41.2878 81.8391
v  -19.6537 41.2878 6.0398
v  -19.6537 62.3910 81.8391
v  -19.6537 62.3910 6.0398
v  19.6537 61.3911 80.8391
v  19.6537 61.3911 7.0398
v  19.6537 42.2877 80.8391
v  19.6537 42.2877 7.0398
v  -19.6537 42.2877 80.8391
v  -19.6537 42.2877 7.0398
v  -19.6537 61.3911 80.8391
v  -19.6537 61.3911 7.0398
# 48 vertices

vn 0.0000 0.0000 1.0000
vn 1.0000 0.0000 0.0000
vn -1.0000 0.0000 0.0000
vn 0.5486 0.8361 0.0000
vn 0.6642 0.0000 0.7475
vn 0.5486 -0.8361 0.0000
vn 0.6642 0.0000 -0.7475
vn -0.5486 -0.8361 0.0000
vn -0.6642 0.0000 0.7475
vn -0.5486 0.8361 0.0000
vn -0.6642 0.0000 -0.7475
vn 0.6810 0.7323 0.0000
vn 0.8414 0.0000 0.5404
vn 0.6810 -0.7323 0.0000
vn 0.8414 0.0000 -0.5404
vn -0.6810 -0.7323 0.0000
vn -0.8414 0.0000 0.5404
vn -0.6810 0.7323 0.0000
vn -0.8414 0.0000 -0.5404
vn 0.0000 -1.0000 0.0000
vn 0.0000 0.0000 -1.0000
vn 0.0000 1.0000 0.0000
# 22 vertex normals

# 116 texture coords
vt 0.577169 0.710502
vt 0.865572 0.710502
vt 0.865572 0.998905
vt 0.577169 0.998905
vt 0.576988 0.998193
vt 0.288584 0.998193
vt 0.310354 0.976423
vt 0.555218 0.976423
vt 0.288585 0.191781
vt 0.310355 0.207144
vt 0.576987 0.191781
vt 0.555217 0.207144
vt 0.288403 0.806413
vt 0.000000 0.806413
vt 0.000000 0.000000
vt 0.288403 0.000000
vt 0.576988 0.998193
vt 0.288584 0.998193
vt 0.310354 0.976423
vt 0.555218 0.976423
vt 0.288585 0.191781
vt 0.310355 0.207144
vt 0.576987 0.191781
vt 0.555217 0.207144
vt 0.288403 0.806413
vt 0.000000 0.806413
vt 0.000000 0.000000
vt 0.288403 0.000000
vt 0.490802 0.885530
vt 0.316895 0.885530
vt 0.316895 0.213698
vt 0.490802 0.213698
vt 0.490802 0.885530
vt 0.316895 0.885530
vt 0.316895 0.213698
vt 0.490802 0.213698
vt 0.972675 0.750092
vt 0.954765 0.729660
vt 0.954735 0.039621
vt 0.972667 0.019186
vt 0.998512 0.000000
vt 0.998485 0.769279
vt 0.945649 0.720556
vt 0.945647 0.048725
vt 0.932420 0.720556
vt 0.932435 0.048725
vt 0.655570 0.647923
vt 0.655570 0.634703
vt 0.829477 0.634704
vt 0.829477 0.647926
vt 0.646466 0.657025
vt 0.838579 0.657030
vt 0.634259 0.681312
vt 0.850783 0.681310
vt 0.864954 0.710194
vt 0.620091 0.710202
vt 0.954759 0.729660
vt 0.945654 0.720556
vt 0.945641 0.048725
vt 0.954740 0.039621
vt 0.972668 0.750093
vt 0.972674 0.019187
vt 0.932420 0.720556
vt 0.932432 0.048725
vt 0.998504 0.000000
vt 0.998492 0.769279
vt 0.932064 0.028888
vt 0.919858 0.053171
vt 0.727746 0.053177
vt 0.715541 0.028893
vt 0.701370 0.000008
vt 0.946232 0.000000
vt 0.910756 0.062278
vt 0.736848 0.062275
vt 0.910756 0.075505
vt 0.736848 0.075490
vt 0.634263 0.681307
vt 0.646467 0.657035
vt 0.838580 0.657022
vt 0.850786 0.681315
vt 0.864954 0.710205
vt 0.620091 0.710189
vt 0.655568 0.647930
vt 0.829476 0.647919
vt 0.655569 0.634703
vt 0.829476 0.634703
vt 0.918625 0.277946
vt 0.931853 0.277946
vt 0.931832 0.949777
vt 0.918618 0.949777
vt 0.909498 0.268842
vt 0.909542 0.958881
vt 0.891588 0.248411
vt 0.891612 0.979316
vt 0.865753 0.998501
vt 0.865792 0.229223
vt 0.932063 0.028887
vt 0.919858 0.053170
vt 0.715540 0.028886
vt 0.727745 0.053171
vt 0.701370 0.000001
vt 0.946233 0.000000
vt 0.910755 0.062273
vt 0.736847 0.062272
vt 0.910756 0.075494
vt 0.736848 0.075493
vt 0.909526 0.268846
vt 0.918620 0.277951
vt 0.918647 0.949782
vt 0.909536 0.958885
vt 0.891621 0.248413
vt 0.891598 0.979319
vt 0.931832 0.277949
vt 0.931876 0.949781
vt 0.865753 0.998503
vt 0.865813 0.229223
# 6 texture coords

g SM_RackServer_E
usemtl Test
s 4
f 1/1/1 2/2/1 3/3/1 4/4/1
s 16
f 5/33/2 6/34/2 7/35/2 8/36/2
s 64
f 9/29/3 10/30/3 11/31/3 12/32/3
s off
f 13/23/2 3/17/2 14/20/2 15/24/2
f 3/17/2 2/18/2 16/19/2 14/20/2
f 2/18/2 17/21/2 18/22/2 16/19/2
f 17/21/2 13/23/2 15/24/2 18/22/2
f 19/11/3 1/5/3 20/8/3 21/12/3
f 1/5/3 4/6/3 22/7/3 20/8/3
f 4/6/3 23/9/3 24/10/3 22/7/3
f 23/9/3 19/11/3 21/12/3 24/10/3
f 15/65/4 14/66/4 25/61/4 26/62/4
f 14/81/5 16/82/5 27/77/5 25/80/5
f 16/95/6 18/96/6 28/93/6 27/94/6
f 18/71/7 15/72/7 26/67/7 28/70/7
f 21/41/8 20/42/8 29/37/8 30/40/8
f 20/55/9 22/56/9 31/53/9 29/54/9
f 22/115/10 24/116/10 32/111/10 31/112/10
f 24/101/11 21/102/11 30/97/11 32/99/11
f 26/62/12 25/61/12 33/57/12 34/60/12
f 25/80/13 27/77/13 35/78/13 33/79/13
f 27/94/14 28/93/14 36/91/14 35/92/14
f 28/70/15 26/67/15 34/68/15 36/69/15
f 30/40/16 29/37/16 37/38/16 38/39/16
f 29/54/17 31/53/17 39/51/17 37/52/17
f 31/112/18 32/111/18 40/107/18 39/110/18
f 32/99/19 30/97/19 38/98/19 40/100/19
f 34/60/2 33/57/2 41/58/2 42/59/2
f 33/79/2 35/78/2 43/83/2 41/84/2
f 35/92/2 36/91/2 44/87/2 43/90/2
f 36/69/2 34/68/2 42/73/2 44/74/2
f 38/39/3 37/38/3 45/43/3 46/44/3
f 37/52/3 39/51/3 47/47/3 45/50/3
f 39/110/3 40/107/3 48/108/3 47/109/3
f 40/100/3 38/98/3 46/103/3 48/104/3
f 42/59/20 41/58/20 5/63/20 8/64/20
f 41/84/21 43/83/21 6/85/21 5/86/21
f 43/90/22 44/87/22 7/88/22 6/89/22
f 44/74/1 42/73/1 8/75/1 7/76/1
f 46/44/22 45/43/22 9/45/22 12/46/22
f 45/50/21 47/47/21 10/48/21 9/49/21
f 47/109/20 48/108/20 11/113/20 10/114/20
f 48/104/1 46/103/1 12/105/1 11/106/1
s 2
f 4/25/22 3/26/22 13/27/22 23/28/22
f 2/13/20 1/14/20 19/15/20 17/16/20
# 45 polygons

