# 3ds Max Wavefront OBJ Exporter v0.97b - (c)2007 guruware
# File Created: 12.10.2014 10:44:34

mtllib Spacer.mtl

#
# object SM_MidSpan_Corridor_E
#

v  -106.2992 41.9948 -19.6852
v  -106.2992 41.9948 -39.3703
v  -106.2992 76.1155 -39.3703
v  -106.2992 76.1155 -19.6852
v  -106.2992 7.8741 -19.6852
v  -106.2992 7.8741 -39.3703
v  -92.3830 97.5487 -12.1647
v  -92.3830 97.5486 -0.0000
v  -96.6230 76.1155 -0.0000
v  -96.6230 76.1155 -12.1647
v  -98.4252 0.0000 -19.6852
v  -98.4252 0.0001 -39.3703
v  -96.6230 41.9948 -12.1647
v  -106.2992 110.2363 -19.6852
v  -106.2992 110.2363 -39.3703
v  -98.4252 118.1103 -39.3703
v  -98.4252 118.1103 -19.6852
v  -92.3830 20.5616 -12.1647
v  -96.6230 41.9948 -0.0000
v  -92.3830 20.5616 -0.0000
v  -82.2153 7.2619 -0.0000
v  -82.2152 7.2619 -12.1647
v  -82.2152 110.8483 -12.1646
v  -82.2153 110.8483 -0.0000
v  -77.2160 3.9370 -0.0000
v  -77.2160 3.9370 -12.1646
v  -77.2160 114.1732 -12.1646
v  -77.2160 114.1732 -0.0000
v  -77.2160 0.0000 -19.6852
v  -77.2160 118.1103 -19.6851
v  106.2991 76.1155 -39.3704
v  106.2991 41.9948 -39.3704
v  106.2992 41.9948 -19.6854
v  106.2992 76.1155 -19.6854
v  106.2991 7.8741 -39.3704
v  106.2992 7.8741 -19.6854
v  96.6230 76.1155 -0.0001
v  92.3830 97.5486 -0.0001
v  92.3830 97.5487 -12.1649
v  96.6230 76.1155 -12.1649
v  98.4251 0.0001 -39.3704
v  98.4252 0.0000 -19.6854
v  96.6230 41.9948 -12.1649
v  98.4251 118.1103 -39.3704
v  106.2991 110.2363 -39.3704
v  106.2992 110.2363 -19.6854
v  98.4252 118.1103 -19.6854
v  92.3829 20.5616 -12.1649
v  77.2159 0.0000 -19.6853
v  77.2160 3.9370 -12.1648
v  77.2160 114.1732 -12.1648
v  77.2160 114.1732 -0.0001
v  96.6230 41.9948 -0.0001
v  92.3830 20.5616 -0.0001
v  77.2160 3.9370 -0.0001
v  77.2159 118.1103 -19.6853
v  82.2152 7.2619 -12.1648
v  82.2152 7.2619 -0.0001
v  82.2153 110.8483 -0.0001
v  82.2152 110.8483 -12.1648
v  -106.2991 76.1155 39.3704
v  -106.2991 41.9948 39.3704
v  -106.2992 41.9948 19.6853
v  -106.2992 76.1155 19.6853
v  -106.2991 7.8741 39.3704
v  -106.2992 7.8741 19.6853
v  -92.3829 97.5487 12.1648
v  -96.6230 76.1155 12.1648
v  -98.4251 0.0001 39.3704
v  -98.4252 0.0000 19.6853
v  -96.6230 41.9948 12.1648
v  -98.4251 118.1103 39.3704
v  -106.2991 110.2363 39.3704
v  -106.2992 110.2363 19.6853
v  -98.4252 118.1103 19.6853
v  -92.3829 20.5616 12.1648
v  -82.2152 7.2619 12.1647
v  -82.2152 110.8483 12.1647
v  -77.2160 3.9370 12.1647
v  -77.2160 114.1732 12.1647
v  -77.2160 0.0000 19.6852
v  -77.2160 118.1103 19.6852
v  106.2992 41.9948 19.6852
v  106.2992 41.9948 39.3702
v  106.2992 76.1155 39.3702
v  106.2992 76.1155 19.6852
v  106.2992 7.8741 19.6852
v  106.2992 7.8741 39.3702
v  92.3830 97.5487 12.1647
v  96.6230 76.1155 12.1646
v  98.4252 0.0000 19.6852
v  98.4252 0.0001 39.3702
v  96.6230 41.9948 12.1646
v  106.2992 110.2363 19.6852
v  106.2992 110.2363 39.3702
v  98.4252 118.1103 39.3702
v  98.4252 118.1103 19.6852
v  92.3830 20.5616 12.1647
v  77.2160 0.0000 19.6851
v  77.2160 3.9370 12.1646
v  77.2160 114.1732 12.1646
v  77.2160 118.1103 19.6851
v  82.2152 7.2619 12.1646
v  82.2152 110.8483 12.1646
# 104 vertices

vn 0.8859 0.0113 -0.4638
vn 1.0000 0.0000 -0.0000
vn 0.8859 -0.0113 -0.4638
vn 0.8045 0.3420 -0.4855
vn 0.9239 0.3827 0.0000
vn 0.7693 -0.3062 -0.5607
vn 0.9114 -0.4114 -0.0000
vn 0.9952 -0.0975 -0.0000
vn 0.8763 -0.0658 -0.4773
vn 0.5068 0.5921 -0.6266
vn 0.7071 0.7071 0.0000
vn 0.8763 0.0658 -0.4773
vn 0.8045 -0.3420 -0.4855
vn 0.9239 -0.3827 -0.0000
vn 0.7071 -0.7071 -0.0000
vn 0.5068 -0.5921 -0.6266
vn 0.7693 0.3062 -0.5607
vn 0.9952 0.0975 -0.0000
vn 0.9114 0.4114 -0.0000
vn 0.6835 0.7300 -0.0000
vn 0.4833 0.7404 -0.4671
vn 0.4833 -0.7404 -0.4671
vn 0.6835 -0.7300 -0.0000
vn 0.2893 0.9573 0.0000
vn 0.1724 0.9318 -0.3195
vn 0.1724 -0.9317 -0.3195
vn 0.2893 -0.9573 0.0000
vn 0.0478 0.8232 -0.5657
vn 0.0478 -0.8232 -0.5657
vn -1.0000 0.0000 0.0000
vn -0.8859 0.0113 -0.4638
vn -0.8859 -0.0113 -0.4638
vn -0.9239 0.3827 0.0000
vn -0.8045 0.3420 -0.4855
vn -0.9952 -0.0975 0.0000
vn -0.9114 -0.4114 -0.0000
vn -0.7693 -0.3062 -0.5607
vn -0.8763 -0.0658 -0.4773
vn -0.7071 0.7071 0.0000
vn -0.5068 0.5921 -0.6266
vn -0.8763 0.0658 -0.4773
vn -0.7071 -0.7071 0.0000
vn -0.9239 -0.3827 0.0000
vn -0.8045 -0.3420 -0.4855
vn -0.5068 -0.5921 -0.6266
vn -0.7693 0.3062 -0.5607
vn -0.0478 0.8232 -0.5657
vn -0.1724 0.9317 -0.3195
vn -0.1724 -0.9317 -0.3195
vn -0.2893 -0.9573 -0.0000
vn -0.9952 0.0975 0.0000
vn -0.9114 0.4114 0.0000
vn -0.2893 0.9573 -0.0000
vn -0.0478 -0.8232 -0.5657
vn -0.4833 0.7404 -0.4671
vn -0.6835 0.7300 0.0000
vn -0.6835 -0.7300 -0.0000
vn -0.4833 -0.7404 -0.4671
vn 0.8859 0.0113 0.4638
vn 0.8859 -0.0113 0.4638
vn 0.9239 0.3827 -0.0000
vn 0.8045 0.3420 0.4855
vn 0.7693 -0.3062 0.5607
vn 0.8763 -0.0658 0.4773
vn 0.7071 0.7071 -0.0000
vn 0.5068 0.5921 0.6266
vn 0.8763 0.0658 0.4773
vn 0.8045 -0.3420 0.4855
vn 0.5068 -0.5921 0.6266
vn 0.7693 0.3062 0.5607
vn 0.4833 0.7404 0.4671
vn 0.4833 -0.7404 0.4671
vn 0.1724 0.9318 0.3195
vn 0.1724 -0.9317 0.3195
vn 0.0478 0.8232 0.5657
vn 0.0478 -0.8232 0.5657
vn -0.8859 0.0113 0.4638
vn -1.0000 0.0000 -0.0000
vn -0.8859 -0.0113 0.4638
vn -0.8045 0.3420 0.4855
vn -0.9239 0.3827 -0.0000
vn -0.7693 -0.3062 0.5607
vn -0.8763 -0.0658 0.4772
vn -0.5068 0.5921 0.6266
vn -0.7071 0.7071 -0.0000
vn -0.8763 0.0658 0.4772
vn -0.8045 -0.3420 0.4855
vn -0.9239 -0.3827 -0.0000
vn -0.7071 -0.7071 -0.0000
vn -0.5068 -0.5921 0.6266
vn -0.7693 0.3062 0.5607
vn -0.0478 0.8232 0.5657
vn -0.1724 0.9317 0.3195
vn -0.1724 -0.9317 0.3195
vn -0.0478 -0.8232 0.5657
vn -0.4833 0.7404 0.4671
vn -0.4833 -0.7404 0.4671
# 97 vertex normals

vt 0.8125 0.3545 0.0000
vt 0.9395 0.3545 0.0000
vt 0.9395 0.5747 0.0000
vt 0.8125 0.5747 0.0000
vt 0.8125 0.1344 0.0000
vt 0.9395 0.1344 0.0000
vt 0.6118 0.7671 0.0000
vt 0.5258 0.7648 0.0000
vt 0.5258 0.6213 0.0000
vt 0.6037 0.6211 0.0000
vt 0.8125 0.0625 0.0000
vt 0.9395 0.0625 0.0000
vt 0.6037 0.3965 0.0000
vt 0.6806 0.4059 0.0000
vt 0.6806 0.6116 0.0000
vt 0.8125 0.7949 0.0000
vt 0.9395 0.7949 0.0000
vt 0.9395 0.8667 0.0000
vt 0.8125 0.8667 0.0000
vt 0.6118 0.2505 0.0000
vt 0.7391 0.2074 0.0000
vt 0.7391 0.8101 0.0000
vt 0.5258 0.3962 0.0000
vt 0.5258 0.2528 0.0000
vt 0.5258 0.1458 0.0000
vt 0.6021 0.1384 0.0000
vt 0.6021 0.8792 0.0000
vt 0.5258 0.8718 0.0000
vt 0.5258 0.1082 0.0000
vt 0.5935 0.1013 0.0000
vt 0.5935 0.9163 0.0000
vt 0.5258 0.9094 0.0000
vt 0.7249 0.1478 0.0000
vt 0.6234 0.0625 0.0000
vt 0.7249 0.8697 0.0000
vt 0.6234 0.9551 0.0000
vt 0.4398 0.7671 0.0000
vt 0.4479 0.6211 0.0000
vt 0.3710 0.4059 0.0000
vt 0.4479 0.3965 0.0000
vt 0.3710 0.6116 0.0000
vt 0.3125 0.2074 0.0000
vt 0.4398 0.2505 0.0000
vt 0.0000 0.9965 0.0000
vt 0.0000 0.0000 0.0000
vt 0.0548 0.0000 0.0000
vt 0.0548 0.9965 0.0000
vt 0.2118 0.9965 0.0000
vt 0.1333 0.9965 0.0000
vt 0.1333 0.0000 0.0000
vt 0.2118 0.0000 0.0000
vt 0.3125 0.8101 0.0000
vt 0.2665 0.0000 0.0000
vt 0.2665 0.9965 0.0000
vt 0.4494 0.1384 0.0000
vt 0.4494 0.8792 0.0000
vt 0.4580 0.1013 0.0000
vt 0.4580 0.9163 0.0000
vt 0.3266 0.1478 0.0000
vt 0.4282 0.0625 0.0000
vt 0.3266 0.8697 0.0000
vt 0.4282 0.9551 0.0000
# 62 texture coords

g SM_MidSpan_Corridor_E
usemtl Test
s 1
f 1/1/1 2/2/2 3/3/2 
f 3/3/2 4/4/3 1/1/1 
f 5/5/4 6/6/5 2/2/2 
f 2/2/2 1/1/1 5/5/4 
f 7/7/6 8/8/7 9/9/8 
f 9/9/8 10/10/9 7/7/6 
f 5/5/4 11/11/10 12/12/11 
f 12/12/11 6/6/5 5/5/4 
f 10/10/9 13/13/12 1/14/1 
f 1/14/1 4/15/3 10/10/9 
f 14/16/13 15/17/14 16/18/15 
f 16/18/15 17/19/16 14/16/13 
f 1/14/1 13/13/12 18/20/17 
f 18/20/17 5/21/4 1/14/1 
f 3/3/2 15/17/14 14/16/13 
f 14/16/13 4/4/3 3/3/2 
f 4/15/3 14/22/13 7/7/6 
f 7/7/6 10/10/9 4/15/3 
f 9/9/8 19/23/18 13/13/12 
f 13/13/12 10/10/9 9/9/8 
f 19/23/18 20/24/19 18/20/17 
f 18/20/17 13/13/12 19/23/18 
f 21/25/20 22/26/21 18/20/17 
f 18/20/17 20/24/19 21/25/20 
f 23/27/22 24/28/23 8/8/7 
f 8/8/7 7/7/6 23/27/22 
f 25/29/24 26/30/25 22/26/21 
f 22/26/21 21/25/20 25/29/24 
f 27/31/26 28/32/27 24/28/23 
f 24/28/23 23/27/22 27/31/26 
f 11/33/10 5/21/4 18/20/17 
f 18/20/17 22/26/21 11/33/10 
f 22/26/21 26/30/25 29/34/28 
f 29/34/28 11/33/10 22/26/21 
f 17/35/16 23/27/22 7/7/6 
f 7/7/6 14/22/13 17/35/16 
f 30/36/29 27/31/26 23/27/22 
f 23/27/22 17/35/16 30/36/29 
f 31/4/30 32/1/30 33/2/31 
f 33/2/31 34/3/32 31/4/30 
f 32/1/30 35/5/33 36/6/34 
f 36/6/34 33/2/31 32/1/30 
f 37/9/35 38/8/36 39/37/37 
f 39/37/37 40/38/38 37/9/35 
f 41/11/39 42/12/40 36/6/34 
f 36/6/34 35/5/33 41/11/39 
f 33/39/31 43/40/41 40/38/38 
f 40/38/38 34/41/32 33/39/31 
f 44/19/42 45/16/43 46/17/44 
f 46/17/44 47/18/45 44/19/42 
f 33/39/31 36/42/34 48/43/46 
f 48/43/46 43/40/41 33/39/31 
f 46/17/44 45/16/43 31/4/30 
f 31/4/30 34/3/32 46/17/44 
f 49/44/47 29/45/28 26/46/25 
f 26/46/25 50/47/48 49/44/47 
f 51/48/49 52/49/50 28/50/27 
f 28/50/27 27/51/26 51/48/49 
f 39/37/37 46/52/44 34/41/32 
f 34/41/32 40/38/38 39/37/37 
f 43/40/41 53/23/51 37/9/35 
f 37/9/35 40/38/38 43/40/41 
f 48/43/46 54/24/52 53/23/51 
f 53/23/51 43/40/41 48/43/46 
f 50/47/48 26/46/25 25/50/24 
f 25/50/24 55/49/53 50/47/48 
f 51/48/49 27/51/26 30/53/29 
f 30/53/29 56/54/54 51/48/49 
f 48/43/46 57/55/55 58/25/56 
f 58/25/56 54/24/52 48/43/46 
f 38/8/36 59/28/57 60/56/58 
f 60/56/58 39/37/37 38/8/36 
f 57/55/55 50/57/48 55/29/53 
f 55/29/53 58/25/56 57/55/55 
f 59/28/57 52/32/50 51/58/49 
f 51/58/49 60/56/58 59/28/57 
f 48/43/46 36/42/34 42/59/40 
f 42/59/40 57/55/55 48/43/46 
f 57/55/55 42/59/40 49/60/47 
f 49/60/47 50/57/48 57/55/55 
f 47/61/45 46/52/44 39/37/37 
f 39/37/37 60/56/58 47/61/45 
f 56/62/54 47/61/45 60/56/58 
f 60/56/58 51/58/49 56/62/54 
f 61/4/2 62/1/2 63/2/59 
f 63/2/59 64/3/60 61/4/2 
f 62/1/2 65/5/61 66/6/62 
f 66/6/62 63/2/59 62/1/2 
f 9/9/8 8/8/7 67/37/63 
f 67/37/63 68/38/64 9/9/8 
f 69/11/65 70/12/66 66/6/62 
f 66/6/62 65/5/61 69/11/65 
f 63/39/59 71/40/67 68/38/64 
f 68/38/64 64/41/60 63/39/59 
f 72/19/15 73/16/14 74/17/68 
f 74/17/68 75/18/69 72/19/15 
f 63/39/59 66/42/62 76/43/70 
f 76/43/70 71/40/67 63/39/59 
f 74/17/68 73/16/14 61/4/2 
f 61/4/2 64/3/60 74/17/68 
f 67/37/63 74/52/68 64/41/60 
f 64/41/60 68/38/64 67/37/63 
f 71/40/67 19/23/18 9/9/8 
f 9/9/8 68/38/64 71/40/67 
f 76/43/70 20/24/19 19/23/18 
f 19/23/18 71/40/67 76/43/70 
f 76/43/70 77/55/71 21/25/20 
f 21/25/20 20/24/19 76/43/70 
f 8/8/7 24/28/23 78/56/72 
f 78/56/72 67/37/63 8/8/7 
f 77/55/71 79/57/73 25/29/24 
f 25/29/24 21/25/20 77/55/71 
f 24/28/23 28/32/27 80/58/74 
f 80/58/74 78/56/72 24/28/23 
f 76/43/70 66/42/62 70/59/66 
f 70/59/66 77/55/71 76/43/70 
f 77/55/71 70/59/66 81/60/75 
f 81/60/75 79/57/73 77/55/71 
f 75/61/69 74/52/68 67/37/63 
f 67/37/63 78/56/72 75/61/69 
f 82/62/76 75/61/69 78/56/72 
f 78/56/72 80/58/74 82/62/76 
f 83/1/77 84/2/78 85/3/78 
f 85/3/78 86/4/79 83/1/77 
f 87/5/80 88/6/81 84/2/78 
f 84/2/78 83/1/77 87/5/80 
f 89/7/82 38/8/36 37/9/35 
f 37/9/35 90/10/83 89/7/82 
f 87/5/80 91/11/84 92/12/85 
f 92/12/85 88/6/81 87/5/80 
f 90/10/83 93/13/86 83/14/77 
f 83/14/77 86/15/79 90/10/83 
f 94/16/87 95/17/88 96/18/89 
f 96/18/89 97/19/90 94/16/87 
f 83/14/77 93/13/86 98/20/91 
f 98/20/91 87/21/80 83/14/77 
f 85/3/78 95/17/88 94/16/87 
f 94/16/87 86/4/79 85/3/78 
f 81/53/75 99/54/92 100/48/93 
f 100/48/93 79/51/73 81/53/75 
f 28/50/27 52/49/50 101/47/94 
f 101/47/94 80/46/74 28/50/27 
f 86/15/79 94/22/87 89/7/82 
f 89/7/82 90/10/83 86/15/79 
f 37/9/35 53/23/51 93/13/86 
f 93/13/86 90/10/83 37/9/35 
f 53/23/51 54/24/52 98/20/91 
f 98/20/91 93/13/86 53/23/51 
f 100/48/93 55/49/53 25/50/24 
f 25/50/24 79/51/73 100/48/93 
f 80/46/74 101/47/94 102/44/95 
f 102/44/95 82/45/76 80/46/74 
f 58/25/56 103/26/96 98/20/91 
f 98/20/91 54/24/52 58/25/56 
f 104/27/97 59/28/57 38/8/36 
f 38/8/36 89/7/82 104/27/97 
f 55/29/53 100/30/93 103/26/96 
f 103/26/96 58/25/56 55/29/53 
f 101/31/94 52/32/50 59/28/57 
f 59/28/57 104/27/97 101/31/94 
f 91/33/84 87/21/80 98/20/91 
f 98/20/91 103/26/96 91/33/84 
f 103/26/96 100/30/93 99/34/92 
f 99/34/92 91/33/84 103/26/96 
f 97/35/90 104/27/97 89/7/82 
f 89/7/82 94/22/87 97/35/90 
f 102/36/95 101/31/94 104/27/97 
f 104/27/97 97/35/90 102/36/95 
# 168 faces

