# 3ds Max Wavefront OBJ Exporter v0.97b - (c)2007 guruware
# File Created: 12.10.2014 14:59:50

mtllib NormalServer.mtl

#
# object SM_RackServer_E
#

v  -37.3375 88.5827 -15.8402
v  -37.3375 88.5827 15.8402
v  -5.6571 88.5827 15.8402
v  -5.6571 88.5827 -15.8402
v  -3.2959 7.0398 -9.5517
v  -3.2959 80.8391 -9.5517
v  -3.2959 80.8391 9.5517
v  -3.2959 7.0398 9.5517
v  -39.6987 7.0398 9.5517
v  -39.6987 80.8391 9.5517
v  -39.6987 80.8391 -9.5517
v  -39.6987 7.0398 -9.5517
v  -5.6571 86.1913 -13.4488
v  -5.6571 1.6876 -13.4488
v  -5.6571 0.0000 -15.8402
v  -5.6571 86.1913 13.4488
v  -5.6571 0.0000 15.8402
v  -5.6571 1.6876 13.4488
v  -37.3375 86.1913 13.4488
v  -37.3375 1.6876 13.4488
v  -37.3375 0.0000 15.8402
v  -37.3375 86.1913 -13.4488
v  -37.3375 0.0000 -15.8402
v  -37.3375 1.6876 -13.4488
v  -3.2851 3.7952 -11.8924
v  -3.2851 84.0837 -11.8924
v  -3.2851 84.0837 11.8923
v  -3.2851 3.7952 11.8923
v  -39.7095 3.7952 11.8923
v  -39.7095 84.0837 11.8923
v  -39.7095 84.0837 -11.8924
v  -39.7095 3.7952 -11.8924
v  -1.8436 6.0398 -10.5516
v  -1.8436 81.8391 -10.5516
v  -1.8436 81.8391 10.5516
v  -1.8436 6.0398 10.5516
v  -41.1510 6.0398 10.5516
v  -41.1510 81.8391 10.5516
v  -41.1510 81.8391 -10.5516
v  -41.1510 6.0398 -10.5516
v  -1.8436 7.0398 -9.5517
v  -1.8436 80.8391 -9.5517
v  -1.8436 80.8391 9.5517
v  -1.8436 7.0398 9.5517
v  -41.1510 7.0398 9.5517
v  -41.1510 80.8391 9.5517
v  -41.1510 80.8391 -9.5517
v  -41.1510 7.0398 -9.5517
# 48 vertices

vn -0.5774 0.5774 -0.5774
vn -0.5774 0.5774 0.5774
vn 0.5774 0.5774 0.5774
vn 0.5774 0.5774 -0.5774
vn 0.5774 -0.5774 0.5774
vn 0.5774 -0.5774 -0.5774
vn -0.5774 -0.5774 -0.5774
vn -0.5774 -0.5774 0.5774
vn 0.9822 0.1372 -0.1283
vn 0.9822 -0.1372 -0.1283
vn 0.7071 0.0000 -0.7071
vn 0.9822 0.1372 0.1283
vn 0.7071 0.0000 0.7071
vn 0.9822 -0.1372 0.1283
vn -0.9822 0.1372 0.1283
vn -0.9822 -0.1372 0.1283
vn -0.7071 0.0000 0.7071
vn -0.9822 0.1372 -0.1283
vn -0.7071 0.0000 -0.7071
vn -0.9822 -0.1372 -0.1283
vn 0.7813 -0.4148 -0.4663
vn 0.7813 0.4148 -0.4663
vn 0.7813 0.4148 0.4663
vn 0.7813 -0.4148 0.4663
vn -0.7813 -0.4148 0.4663
vn -0.7813 0.4148 0.4663
vn -0.7813 0.4148 -0.4663
vn -0.7813 -0.4148 -0.4663
vn 0.9210 -0.2054 -0.3310
vn 0.9210 0.2054 -0.3310
vn 0.9210 0.2054 0.3310
vn 0.9210 -0.2054 0.3310
vn -0.9210 -0.2054 0.3310
vn -0.9210 0.2054 0.3310
vn -0.9210 0.2054 -0.3310
vn -0.9210 -0.2054 -0.3310
vn 0.9045 0.3015 0.3015
vn 0.9045 -0.3015 0.3015
vn 0.9045 -0.3015 -0.3015
vn 0.9045 0.3015 -0.3015
vn -0.9045 0.3015 -0.3015
vn -0.9045 -0.3015 -0.3015
vn -0.9045 -0.3015 0.3015
vn -0.9045 0.3015 0.3015
# 44 vertex normals

vt 0.5772 0.9989 0.0000
vt 0.5772 0.7105 0.0000
vt 0.8656 0.7105 0.0000
vt 0.8656 0.9989 0.0000
vt 0.4908 0.2137 0.0000
vt 0.4908 0.8855 0.0000
vt 0.3169 0.8855 0.0000
vt 0.3169 0.2137 0.0000
vt 0.5552 0.9764 0.0000
vt 0.5552 0.2071 0.0000
vt 0.5770 0.1918 0.0000
vt 0.5770 0.9982 0.0000
vt 0.2886 0.9982 0.0000
vt 0.3104 0.9764 0.0000
vt 0.2886 0.1918 0.0000
vt 0.3104 0.2071 0.0000
vt 0.9727 0.0192 0.0000
vt 0.9985 0.0000 0.0000
vt 0.9985 0.7693 0.0000
vt 0.9727 0.7501 0.0000
vt 0.8508 0.6813 0.0000
vt 0.8650 0.7102 0.0000
vt 0.6201 0.7102 0.0000
vt 0.6343 0.6813 0.0000
vt 0.8916 0.9793 0.0000
vt 0.8658 0.9985 0.0000
vt 0.8658 0.2292 0.0000
vt 0.8916 0.2484 0.0000
vt 0.7155 0.0289 0.0000
vt 0.7014 0.0000 0.0000
vt 0.9462 0.0000 0.0000
vt 0.9321 0.0289 0.0000
vt 0.9547 0.0396 0.0000
vt 0.9548 0.7297 0.0000
vt 0.8386 0.6570 0.0000
vt 0.6465 0.6570 0.0000
vt 0.9095 0.9589 0.0000
vt 0.9095 0.2688 0.0000
vt 0.7277 0.0532 0.0000
vt 0.9199 0.0532 0.0000
vt 0.9456 0.0487 0.0000
vt 0.9457 0.7206 0.0000
vt 0.8295 0.6479 0.0000
vt 0.6556 0.6479 0.0000
vt 0.9186 0.9498 0.0000
vt 0.9186 0.2779 0.0000
vt 0.7368 0.0623 0.0000
vt 0.9108 0.0623 0.0000
vt 0.9456 0.7206 0.0000
vt 0.9186 0.2780 0.0000
vt 0.9324 0.0487 0.0000
vt 0.9324 0.7206 0.0000
vt 0.8295 0.6347 0.0000
vt 0.6556 0.6347 0.0000
vt 0.9318 0.9498 0.0000
vt 0.9319 0.2779 0.0000
vt 0.7368 0.0755 0.0000
vt 0.9108 0.0755 0.0000
vt 0.9319 0.9498 0.0000
vt 0.9318 0.2779 0.0000
vt 0.2884 0.0000 0.0000
vt 0.2884 0.8064 0.0000
vt 0.0000 0.8064 0.0000
vt 0.0000 0.0000 0.0000
# 64 texture coords

g SM_RackServer_E
usemtl Test
s 1
f 1/1/1 2/2/2 3/3/3 
f 3/3/3 4/4/4 1/1/1 
f 5/5/3 6/6/5 7/7/6 
f 7/7/6 8/8/4 5/5/3 
f 9/5/1 10/6/7 11/7/8 
f 11/7/8 12/8/2 9/5/1 
f 13/9/9 14/10/10 15/11/11 
f 15/11/11 4/12/4 13/9/9 
f 13/9/9 4/12/4 3/13/3 
f 3/13/3 16/14/12 13/9/9 
f 16/14/12 3/13/3 17/15/13 
f 17/15/13 18/16/14 16/14/12 
f 18/16/14 17/15/13 15/11/11 
f 15/11/11 14/10/10 18/16/14 
f 19/9/15 20/10/16 21/11/17 
f 21/11/17 2/12/2 19/9/15 
f 19/9/15 2/12/2 1/13/1 
f 1/13/1 22/14/18 19/9/15 
f 22/14/18 1/13/1 23/15/19 
f 23/15/19 24/16/20 22/14/18 
f 24/16/20 23/15/19 21/11/17 
f 21/11/17 20/10/16 24/16/20 
f 25/17/21 14/18/10 13/19/9 
f 13/19/9 26/20/22 25/17/21 
f 26/21/22 13/22/9 16/23/12 
f 16/23/12 27/24/23 26/21/22 
f 27/25/23 16/26/12 18/27/14 
f 18/27/14 28/28/24 27/25/23 
f 28/29/24 18/30/14 14/31/10 
f 14/31/10 25/32/21 28/29/24 
f 29/17/25 20/18/16 19/19/15 
f 19/19/15 30/20/26 29/17/25 
f 30/21/26 19/22/15 22/23/18 
f 22/23/18 31/24/27 30/21/26 
f 31/25/27 22/26/18 24/27/20 
f 24/27/20 32/28/28 31/25/27 
f 32/29/28 24/30/20 20/31/16 
f 20/31/16 29/32/25 32/29/28 
f 33/33/29 25/17/21 26/20/22 
f 26/20/22 34/34/30 33/33/29 
f 34/35/30 26/21/22 27/24/23 
f 27/24/23 35/36/31 34/35/30 
f 35/37/31 27/25/23 28/28/24 
f 28/28/24 36/38/32 35/37/31 
f 36/39/32 28/29/24 25/32/21 
f 25/32/21 33/40/29 36/39/32 
f 37/33/33 29/17/25 30/20/26 
f 30/20/26 38/34/34 37/33/33 
f 38/35/34 30/21/26 31/24/27 
f 31/24/27 39/36/35 38/35/34 
f 39/37/35 31/25/27 32/28/28 
f 32/28/28 40/38/36 39/37/35 
f 40/39/36 32/29/28 29/32/25 
f 29/32/25 37/40/33 40/39/36 
f 41/41/37 33/33/29 34/34/30 
f 34/34/30 42/42/38 41/41/37 
f 42/43/38 34/35/30 35/36/31 
f 35/36/31 43/44/39 42/43/38 
f 43/45/39 35/37/31 36/38/32 
f 36/38/32 44/46/40 43/45/39 
f 44/47/40 36/39/32 33/40/29 
f 33/40/29 41/48/37 44/47/40 
f 45/41/41 37/33/33 38/34/34 
f 38/34/34 46/49/42 45/41/41 
f 46/43/42 38/35/34 39/36/35 
f 39/36/35 47/44/43 46/43/42 
f 47/45/43 39/37/35 40/38/36 
f 40/38/36 48/50/44 47/45/43 
f 48/47/44 40/39/36 37/40/33 
f 37/40/33 45/48/41 48/47/44 
f 5/51/3 41/41/37 42/42/38 
f 42/42/38 6/52/5 5/51/3 
f 6/53/5 42/43/38 43/44/39 
f 43/44/39 7/54/6 6/53/5 
f 7/55/6 43/45/39 44/46/40 
f 44/46/40 8/56/4 7/55/6 
f 8/57/4 44/47/40 41/48/37 
f 41/48/37 5/58/3 8/57/4 
f 9/51/1 45/41/41 46/49/42 
f 46/49/42 10/52/7 9/51/1 
f 10/53/7 46/43/42 47/44/43 
f 47/44/43 11/54/8 10/53/7 
f 11/59/8 47/45/43 48/50/44 
f 48/50/44 12/60/2 11/59/8 
f 12/57/2 48/47/44 45/48/41 
f 45/48/41 9/58/1 12/57/2 
f 23/61/19 1/62/1 4/63/4 
f 4/63/4 15/64/11 23/61/19 
f 17/61/13 3/62/3 2/63/2 
f 2/63/2 21/64/17 17/61/13 
# 90 faces

