# 3ds Max Wavefront OBJ Exporter v0.97b - (c)2007 guruware
# File Created: 11.10.2014 19:40:54

mtllib FloorToWall2.mtl

#
# object SM_FloorToWall_2_E
#

v  688.6144 -7.8740 54.2937
v  865.7795 -7.8740 54.2938
v  865.7795 -7.8740 70.0418
v  688.6144 -7.8740 70.0417
v  688.6144 0.0000 70.0417
v  511.4490 0.0000 70.0417
v  511.4490 -7.8740 70.0417
v  688.6144 11.8110 54.2937
v  688.6144 11.8110 62.1677
v  865.7795 11.8111 62.1678
v  865.7795 11.8111 54.2938
v  688.6144 0.0000 54.2937
v  688.6144 7.8740 54.2937
v  865.7795 7.8740 54.2938
v  865.7795 0.0000 54.2938
v  511.4490 7.8740 62.1677
v  511.4490 11.8110 62.1677
v  511.4490 11.8110 54.2937
v  511.4490 7.8740 54.2937
v  688.6144 7.8740 62.1677
v  865.7795 7.8740 62.1678
v  511.4490 -7.8740 54.2937
v  865.7795 0.0000 70.0418
v  511.4490 0.0000 54.2937
v  609.2044 19.0392 54.2937
v  590.8585 19.0392 54.2937
v  590.8585 19.0392 63.5435
v  609.2044 19.0392 63.5435
v  584.2955 12.1332 63.8850
v  584.2834 12.1337 54.2937
v  584.2834 0.0001 54.2937
v  586.6892 0.0001 69.0547
v  609.2725 0.0001 76.3405
v  610.9691 9.0604 72.6735
v  589.0938 9.0604 72.6735
v  590.7904 0.0001 76.3405
v  612.4729 9.1944 71.6269
v  610.6955 0.0001 75.4344
v  612.7899 0.0001 70.9479
v  614.9674 11.3624 66.2832
v  587.5900 9.1944 71.6269
v  585.0955 11.3624 66.2832
v  587.2730 0.0001 70.9478
v  589.3675 0.0001 75.4344
v  615.7675 12.1332 63.8850
v  613.3737 0.0001 69.0547
v  615.7795 0.0001 54.2937
v  615.7795 12.1337 54.2937
v  589.1721 18.3120 63.5435
v  589.1721 18.3120 54.2937
v  584.9699 13.8609 54.2937
v  584.9699 13.8609 63.5435
v  586.6027 14.1337 64.5435
v  613.4603 14.1337 64.5435
v  609.7733 18.0392 64.5435
v  590.2897 18.0392 64.5435
v  610.8909 18.3120 63.5435
v  615.0931 13.8609 63.5435
v  615.0931 13.8609 54.2937
v  610.8909 18.3120 54.2937
v  611.5025 10.3634 71.3717
v  614.2574 12.7577 65.4702
v  585.8056 12.7577 65.4702
v  588.5604 10.3634 71.3717
v  786.3698 19.0392 54.2937
v  768.0239 19.0392 54.2937
v  768.0239 19.0392 63.5435
v  786.3698 19.0392 63.5435
v  761.4609 12.1332 63.8850
v  761.4488 12.1337 54.2937
v  761.4488 0.0001 54.2937
v  763.8546 0.0001 69.0547
v  786.4379 0.0001 76.3405
v  788.1345 9.0604 72.6735
v  766.2592 9.0604 72.6735
v  767.9558 0.0001 76.3405
v  789.6383 9.1944 71.6269
v  787.8609 0.0001 75.4344
v  789.9553 0.0001 70.9479
v  792.1328 11.3624 66.2832
v  764.7554 9.1944 71.6269
v  762.2610 11.3624 66.2832
v  764.4384 0.0001 70.9478
v  766.5328 0.0001 75.4344
v  792.9329 12.1332 63.8850
v  790.5391 0.0001 69.0547
v  792.9450 0.0001 54.2937
v  792.9450 12.1337 54.2937
v  766.3375 18.3120 63.5435
v  766.3375 18.3120 54.2937
v  762.1353 13.8609 54.2937
v  762.1353 13.8609 63.5435
v  763.7681 14.1337 64.5435
v  790.6257 14.1337 64.5435
v  786.9387 18.0392 64.5435
v  767.4551 18.0392 64.5435
v  788.0563 18.3120 63.5435
v  792.2585 13.8609 63.5435
v  792.2585 13.8609 54.2937
v  788.0563 18.3120 54.2937
v  788.6679 10.3634 71.3717
v  791.4228 12.7577 65.4702
v  762.9710 12.7577 65.4702
v  765.7258 10.3634 71.3717
v  590.7163 18.7892 64.2935
v  589.9369 18.8574 63.5435
v  589.9827 18.7513 64.2102
v  610.0803 18.7513 64.2102
v  609.3467 18.7892 64.2935
v  610.6115 18.2438 64.2935
v  584.4581 13.0654 63.6289
v  584.5510 13.0627 64.5939
v  585.3781 13.9291 64.2935
v  588.1591 9.7634 72.0945
v  587.7908 10.0557 71.4736
v  588.2089 9.1009 72.4090
v  611.1976 9.8496 72.1604
v  611.8540 9.1009 72.4090
v  611.9038 9.7634 72.0945
v  614.6849 13.9291 64.2935
v  614.3192 13.2897 64.7752
v  615.5119 13.0627 64.5939
v  767.8817 18.7892 64.2935
v  767.1023 18.8574 63.5435
v  767.1481 18.7513 64.2102
v  787.2457 18.7513 64.2102
v  786.5121 18.7892 64.2935
v  787.7769 18.2438 64.2935
v  761.6235 13.0654 63.6289
v  761.7164 13.0627 64.5939
v  762.5435 13.9291 64.2935
v  765.3245 9.7634 72.0945
v  764.9562 10.0557 71.4736
v  765.3743 9.1009 72.4090
v  788.3630 9.8496 72.1604
v  789.0194 9.1009 72.4090
v  789.0692 9.7634 72.0945
v  791.8503 13.9291 64.2935
v  791.4846 13.2897 64.7752
v  792.6773 13.0627 64.5939
v  610.1261 18.8574 63.5435
v  610.1261 18.8574 54.2937
v  589.9369 18.8574 54.2937
v  584.4551 13.0655 54.2937
v  584.5782 11.9869 65.0038
v  586.9156 0.0001 70.0215
v  610.1283 0.0001 76.1140
v  588.8653 9.8496 72.1604
v  589.9347 0.0001 76.1140
v  613.1473 0.0001 70.0215
v  615.4848 11.9869 65.0038
v  612.2721 10.0557 71.4736
v  614.9975 12.4244 65.6353
v  585.0655 12.4244 65.6353
v  615.6049 13.0654 63.6289
v  615.6079 13.0655 54.2937
v  589.4515 18.2438 64.2935
v  585.7438 13.2897 64.7752
v  787.2915 18.8574 63.5435
v  787.2915 18.8574 54.2937
v  767.1023 18.8574 54.2937
v  761.6205 13.0655 54.2937
v  761.7436 11.9869 65.0038
v  764.0810 0.0001 70.0215
v  787.2937 0.0001 76.1140
v  766.0307 9.8496 72.1604
v  767.1001 0.0001 76.1140
v  790.3127 0.0001 70.0215
v  792.6502 11.9869 65.0038
v  789.4375 10.0557 71.4736
v  792.1629 12.4244 65.6353
v  762.2309 12.4244 65.6353
v  792.7703 13.0654 63.6289
v  792.7733 13.0655 54.2937
v  766.6169 18.2438 64.2935
v  762.9092 13.2897 64.7752
# 176 vertices

vn 0.0000 -0.7071 -0.7071
vn 0.5774 -0.5774 -0.5774
vn 0.5774 -0.5774 0.5774
vn -0.0000 -0.7071 0.7071
vn -0.0000 0.3827 0.9239
vn -0.6303 0.2971 0.7173
vn -0.5774 -0.5774 0.5774
vn -0.0000 0.7071 -0.7071
vn -0.0000 0.7071 0.7071
vn 0.5774 0.5774 0.5774
vn 0.5774 0.5774 -0.5774
vn 0.0000 0.0000 -1.0000
vn 0.7071 0.0000 -0.7071
vn -0.8042 0.2275 0.5491
vn -0.5774 0.5774 0.5774
vn -0.5774 0.5774 -0.5774
vn -0.7071 0.0000 -0.7071
vn 0.8042 0.2275 0.5491
vn -0.5774 -0.5774 -0.5774
vn 0.6303 0.2971 0.7173
vn 0.0972 0.9953 0.0000
vn -0.0972 0.9953 -0.0000
vn -0.0799 0.9868 0.1407
vn 0.0799 0.9868 0.1407
vn -0.9912 0.0371 0.1272
vn -0.9975 0.0503 0.0501
vn -0.9922 -0.0769 0.0985
vn -0.9794 -0.0872 0.1824
vn 0.1080 0.3558 0.9283
vn 0.1123 0.4288 0.8964
vn -0.1123 0.4288 0.8964
vn -0.1080 0.3558 0.9283
vn 0.8379 0.1424 0.5269
vn 0.8257 0.0716 0.5595
vn 0.9162 -0.0111 0.4006
vn 0.8893 0.1205 0.4411
vn -0.8379 0.1424 0.5269
vn -0.8893 0.1205 0.4411
vn -0.9162 -0.0111 0.4006
vn -0.8257 0.0716 0.5595
vn 0.9912 0.0371 0.1273
vn 0.9794 -0.0872 0.1824
vn 0.9922 -0.0769 0.0985
vn 0.9975 0.0503 0.0501
vn -0.6628 0.7355 0.1407
vn -0.6570 0.7539 -0.0000
vn -0.7870 0.6169 0.0001
vn -0.7631 0.6356 0.1172
vn -0.1181 0.2420 0.9630
vn 0.1181 0.2420 0.9630
vn 0.0851 0.1974 0.9766
vn -0.0851 0.1974 0.9766
vn 0.6628 0.7355 0.1407
vn 0.7631 0.6355 0.1172
vn 0.7870 0.6169 0.0001
vn 0.6570 0.7539 0.0000
vn 0.1149 0.8683 0.4825
vn 0.1408 0.8342 0.5331
vn -0.1408 0.8342 0.5331
vn -0.1149 0.8683 0.4825
vn 0.9793 -0.0872 0.1824
vn -0.0727 0.7225 0.6876
vn -0.3932 0.9117 0.1190
vn -0.3222 0.7473 0.5811
vn 0.3222 0.7473 0.5811
vn 0.0727 0.7225 0.6876
vn 0.4755 0.5488 0.6876
vn -0.9177 0.3864 0.0921
vn -0.7574 0.4862 0.4358
vn -0.5324 0.5977 0.5994
vn -0.4504 0.5418 0.7097
vn -0.5684 0.5944 0.5688
vn -0.5253 0.2977 0.7971
vn 0.0981 0.6827 0.7241
vn 0.5253 0.2977 0.7971
vn 0.4504 0.5418 0.7097
vn 0.5324 0.5977 0.5994
vn 0.1553 0.6281 0.7625
vn 0.7574 0.4862 0.4358
vn 0.3932 0.9117 0.1190
vn 0.3960 0.9183 0.0000
vn -0.3960 0.9183 -0.0000
vn -0.9304 0.3666 0.0005
vn -0.9367 0.0715 0.3428
vn -0.9479 -0.0534 0.3141
vn 0.4736 0.2534 0.8435
vn -0.0981 0.6827 0.7241
vn -0.4736 0.2534 0.8435
vn 0.9479 -0.0534 0.3141
vn 0.9367 0.0715 0.3428
vn 0.5684 0.5944 0.5688
vn 0.6059 0.5616 0.5635
vn -0.6058 0.5616 0.5635
vn 0.9177 0.3864 0.0921
vn 0.9304 0.3665 0.0005
vn -0.4755 0.5488 0.6876
vn -0.1553 0.6281 0.7625
vn -0.6059 0.5616 0.5635
vn 0.9304 0.3666 0.0005
# 99 vertex normals

vt 0.9980 0.4320 0.0000
vt 0.0020 0.4320 0.0000
vt 0.0020 0.3434 0.0000
vt 0.9980 0.3434 0.0000
vt 0.0020 0.0020 0.0000
vt 0.9980 0.0020 0.0000
vt 0.9980 0.0463 0.0000
vt 0.0020 0.0463 0.0000
vt 0.9980 0.5426 0.0000
vt 0.9980 0.5869 0.0000
vt 0.0020 0.5869 0.0000
vt 0.0020 0.5426 0.0000
vt 0.9980 0.4762 0.0000
vt 0.9980 0.5205 0.0000
vt 0.0020 0.5205 0.0000
vt 0.0020 0.4762 0.0000
vt 0.8634 0.8732 0.0000
vt 0.8634 0.8954 0.0000
vt 0.8191 0.8954 0.0000
vt 0.8191 0.8733 0.0000
vt 0.9980 0.7752 0.0000
vt 0.0020 0.7752 0.0000
vt 0.0020 0.7531 0.0000
vt 0.9980 0.7531 0.0000
vt 0.7211 0.8733 0.0000
vt 0.7211 0.8954 0.0000
vt 0.7654 0.8954 0.0000
vt 0.7654 0.8732 0.0000
vt 0.9980 0.1348 0.0000
vt 0.0020 0.1348 0.0000
vt 0.0020 0.2992 0.0000
vt 0.9980 0.2992 0.0000
vt 0.9980 0.2897 0.0000
vt 0.0020 0.2897 0.0000
vt 0.0020 0.2455 0.0000
vt 0.9980 0.2455 0.0000
vt 0.9980 0.1791 0.0000
vt 0.0020 0.1791 0.0000
vt 0.0020 0.2233 0.0000
vt 0.9980 0.2233 0.0000
vt 0.9980 0.6811 0.0000
vt 0.0020 0.6811 0.0000
vt 0.0020 0.6589 0.0000
vt 0.9980 0.6589 0.0000
vt 0.0020 0.6905 0.0000
vt 0.9980 0.6905 0.0000
vt 0.0020 0.5963 0.0000
vt 0.9980 0.5963 0.0000
vt 0.7211 0.8290 0.0000
vt 0.8096 0.8289 0.0000
vt 0.8096 0.7847 0.0000
vt 0.7211 0.7847 0.0000
vt 0.8191 0.8290 0.0000
vt 0.9076 0.8289 0.0000
vt 0.8191 0.7847 0.0000
vt 0.9076 0.7847 0.0000
vt 0.5915 0.9677 0.0000
vt 0.4817 0.9677 0.0000
vt 0.4858 0.9166 0.0000
vt 0.5874 0.9166 0.0000
vt 0.4451 0.8882 0.0000
vt 0.4098 0.9276 0.0000
vt 0.3615 0.8772 0.0000
vt 0.4224 0.8172 0.0000
vt 0.5907 0.7847 0.0000
vt 0.5975 0.8396 0.0000
vt 0.4756 0.8396 0.0000
vt 0.4824 0.7847 0.0000
vt 0.6054 0.8448 0.0000
vt 0.6096 0.7889 0.0000
vt 0.6366 0.8059 0.0000
vt 0.6232 0.8746 0.0000
vt 0.4678 0.8448 0.0000
vt 0.4499 0.8746 0.0000
vt 0.4366 0.8059 0.0000
vt 0.4636 0.7889 0.0000
vt 0.6281 0.8882 0.0000
vt 0.6508 0.8173 0.0000
vt 0.7116 0.8772 0.0000
vt 0.6634 0.9276 0.0000
vt 0.4780 0.9138 0.0000
vt 0.4584 0.9606 0.0000
vt 0.4238 0.9407 0.0000
vt 0.4502 0.8957 0.0000
vt 0.4613 0.8908 0.0000
vt 0.6119 0.8908 0.0000
vt 0.5903 0.9097 0.0000
vt 0.4829 0.9097 0.0000
vt 0.5952 0.9138 0.0000
vt 0.6230 0.8957 0.0000
vt 0.6494 0.9407 0.0000
vt 0.6148 0.9606 0.0000
vt 0.6002 0.8492 0.0000
vt 0.6165 0.8835 0.0000
vt 0.4567 0.8835 0.0000
vt 0.4729 0.8492 0.0000
vt 0.2319 0.9677 0.0000
vt 0.1222 0.9677 0.0000
vt 0.1262 0.9166 0.0000
vt 0.2278 0.9166 0.0000
vt 0.0855 0.8882 0.0000
vt 0.0503 0.9276 0.0000
vt 0.0020 0.8772 0.0000
vt 0.0629 0.8172 0.0000
vt 0.2312 0.7847 0.0000
vt 0.2380 0.8396 0.0000
vt 0.1161 0.8396 0.0000
vt 0.1229 0.7847 0.0000
vt 0.2458 0.8448 0.0000
vt 0.2501 0.7889 0.0000
vt 0.2771 0.8059 0.0000
vt 0.2637 0.8746 0.0000
vt 0.1083 0.8448 0.0000
vt 0.0904 0.8746 0.0000
vt 0.0770 0.8059 0.0000
vt 0.1040 0.7889 0.0000
vt 0.2686 0.8882 0.0000
vt 0.2913 0.8173 0.0000
vt 0.3521 0.8772 0.0000
vt 0.3038 0.9277 0.0000
vt 0.1184 0.9138 0.0000
vt 0.0988 0.9606 0.0000
vt 0.0642 0.9407 0.0000
vt 0.0907 0.8957 0.0000
vt 0.1017 0.8908 0.0000
vt 0.2524 0.8908 0.0000
vt 0.2307 0.9097 0.0000
vt 0.1234 0.9097 0.0000
vt 0.2357 0.9138 0.0000
vt 0.2634 0.8957 0.0000
vt 0.2899 0.9407 0.0000
vt 0.2552 0.9606 0.0000
vt 0.2407 0.8492 0.0000
vt 0.2570 0.8835 0.0000
vt 0.0971 0.8835 0.0000
vt 0.1134 0.8492 0.0000
vt 0.4854 0.9129 0.0000
vt 0.4817 0.9158 0.0000
vt 0.4824 0.9130 0.0000
vt 0.5907 0.9130 0.0000
vt 0.5878 0.9129 0.0000
vt 0.5936 0.9111 0.0000
vt 0.4471 0.8924 0.0000
vt 0.4498 0.8881 0.0000
vt 0.4541 0.8919 0.0000
vt 0.4715 0.8448 0.0000
vt 0.4696 0.8482 0.0000
vt 0.4713 0.8412 0.0000
vt 0.5986 0.8445 0.0000
vt 0.6019 0.8412 0.0000
vt 0.6017 0.8448 0.0000
vt 0.6191 0.8919 0.0000
vt 0.6167 0.8875 0.0000
vt 0.6234 0.8881 0.0000
vt 0.1258 0.9129 0.0000
vt 0.1222 0.9158 0.0000
vt 0.1229 0.9130 0.0000
vt 0.2312 0.9130 0.0000
vt 0.2282 0.9129 0.0000
vt 0.2341 0.9111 0.0000
vt 0.0876 0.8924 0.0000
vt 0.0903 0.8881 0.0000
vt 0.0945 0.8919 0.0000
vt 0.1119 0.8448 0.0000
vt 0.1101 0.8482 0.0000
vt 0.1118 0.8412 0.0000
vt 0.2391 0.8445 0.0000
vt 0.2424 0.8412 0.0000
vt 0.2422 0.8448 0.0000
vt 0.2596 0.8919 0.0000
vt 0.2572 0.8875 0.0000
vt 0.2638 0.8881 0.0000
vt 0.5915 0.9158 0.0000
vt 0.6035 0.9654 0.0000
vt 0.4696 0.9654 0.0000
vt 0.4164 0.9345 0.0000
vt 0.4475 0.8827 0.0000
vt 0.4292 0.8113 0.0000
vt 0.6004 0.7858 0.0000
vt 0.4746 0.8445 0.0000
vt 0.4727 0.7858 0.0000
vt 0.6439 0.8113 0.0000
vt 0.6257 0.8827 0.0000
vt 0.6035 0.8482 0.0000
vt 0.6212 0.8816 0.0000
vt 0.4520 0.8816 0.0000
vt 0.6261 0.8924 0.0000
vt 0.6568 0.9345 0.0000
vt 0.4796 0.9111 0.0000
vt 0.4564 0.8875 0.0000
vt 0.2319 0.9158 0.0000
vt 0.2440 0.9654 0.0000
vt 0.1101 0.9654 0.0000
vt 0.0569 0.9345 0.0000
vt 0.0880 0.8827 0.0000
vt 0.0697 0.8113 0.0000
vt 0.2409 0.7858 0.0000
vt 0.1151 0.8445 0.0000
vt 0.1132 0.7858 0.0000
vt 0.2844 0.8113 0.0000
vt 0.2661 0.8827 0.0000
vt 0.2440 0.8482 0.0000
vt 0.2616 0.8816 0.0000
vt 0.0925 0.8816 0.0000
vt 0.2665 0.8924 0.0000
vt 0.2972 0.9345 0.0000
vt 0.1200 0.9111 0.0000
vt 0.0969 0.8875 0.0000
# 208 texture coords

g SM_FloorToWall_2_E
usemtl Test
s 1
f 1/1/1 2/2/2 3/3/3 
f 3/3/3 4/4/4 1/1/1 
f 5/5/5 6/6/6 7/7/7 
f 7/7/7 4/8/4 5/5/5 
f 8/9/8 9/10/9 10/11/10 
f 10/11/10 11/12/11 8/9/8 
f 12/13/12 13/14/12 14/15/13 
f 14/15/13 15/16/13 12/13/12 
f 8/9/8 11/12/11 14/15/13 
f 14/15/13 13/14/12 8/9/8 
f 16/17/14 17/18/15 18/19/16 
f 18/19/16 19/20/17 16/17/14 
f 9/21/9 17/22/15 16/23/14 
f 16/23/14 20/24/5 9/21/9 
f 14/25/13 11/26/11 10/27/10 
f 10/27/10 21/28/18 14/25/13 
f 22/29/19 1/30/1 4/8/4 
f 4/8/4 7/7/7 22/29/19 
f 23/31/20 5/32/5 4/4/4 
f 4/4/4 3/3/3 23/31/20 
f 17/33/15 9/34/9 8/35/8 
f 8/35/8 18/36/16 17/33/15 
f 1/30/1 22/29/19 24/37/17 
f 24/37/17 12/38/12 1/30/1 
f 18/36/16 8/35/8 13/39/12 
f 13/39/12 19/40/17 18/36/16 
f 10/41/10 9/42/9 20/43/5 
f 20/43/5 21/44/18 10/41/10 
f 12/13/12 15/16/13 2/2/2 
f 2/2/2 1/1/1 12/13/12 
f 12/38/12 24/37/17 19/40/17 
f 19/40/17 13/39/12 12/38/12 
f 16/23/14 6/45/6 5/46/5 
f 5/46/5 20/24/5 16/23/14 
f 20/43/5 5/47/5 23/48/20 
f 23/48/20 21/44/18 20/43/5 
f 15/49/13 14/25/13 21/28/18 
f 21/28/18 23/50/20 15/49/13 
f 23/50/20 3/51/3 2/52/2 
f 2/52/2 15/49/13 23/50/20 
f 16/17/14 19/20/17 24/53/17 
f 24/53/17 6/54/6 16/17/14 
f 24/53/17 22/55/19 7/56/7 
f 7/56/7 6/54/6 24/53/17 
f 25/57/21 26/58/22 27/59/23 
f 27/59/23 28/60/24 25/57/21 
f 29/61/25 30/62/26 31/63/27 
f 31/63/27 32/64/28 29/61/25 
f 33/65/29 34/66/30 35/67/31 
f 35/67/31 36/68/32 33/65/29 
f 37/69/33 38/70/34 39/71/35 
f 39/71/35 40/72/36 37/69/33 
f 41/73/37 42/74/38 43/75/39 
f 43/75/39 44/76/40 41/73/37 
f 45/77/41 46/78/42 47/79/43 
f 47/79/43 48/80/44 45/77/41 
f 49/81/45 50/82/46 51/83/47 
f 51/83/47 52/84/48 49/81/45 
f 53/85/49 54/86/50 55/87/51 
f 55/87/51 56/88/52 53/85/49 
f 57/89/53 58/90/54 59/91/55 
f 59/91/55 60/92/56 57/89/53 
f 61/93/57 62/94/58 63/95/59 
f 63/95/59 64/96/60 61/93/57 
f 65/97/21 66/98/22 67/99/23 
f 67/99/23 68/100/24 65/97/21 
f 69/101/25 70/102/26 71/103/27 
f 71/103/27 72/104/28 69/101/25 
f 73/105/29 74/106/30 75/107/31 
f 75/107/31 76/108/32 73/105/29 
f 77/109/33 78/110/34 79/111/35 
f 79/111/35 80/112/36 77/109/33 
f 81/113/37 82/114/38 83/115/39 
f 83/115/39 84/116/40 81/113/37 
f 85/117/41 86/118/61 87/119/43 
f 87/119/43 88/120/44 85/117/41 
f 89/121/45 90/122/46 91/123/47 
f 91/123/47 92/124/48 89/121/45 
f 93/125/49 94/126/50 95/127/51 
f 95/127/51 96/128/52 93/125/49 
f 97/129/53 98/130/54 99/131/55 
f 99/131/55 100/132/56 97/129/53 
f 101/133/57 102/134/58 103/135/59 
f 103/135/59 104/136/60 101/133/57 
f 105/137/62 27/59/23 106/138/63 
f 106/138/63 107/139/64 105/137/62 
f 108/140/65 109/141/66 55/87/51 
f 55/87/51 110/142/67 108/140/65 
f 52/84/48 111/143/68 112/144/69 
f 112/144/69 113/145/70 52/84/48 
f 114/146/71 115/147/72 41/73/37 
f 41/73/37 116/148/73 114/146/71 
f 117/149/74 34/66/30 118/150/75 
f 118/150/75 119/151/76 117/149/74 
f 120/152/77 54/86/50 121/153/78 
f 121/153/78 122/154/79 120/152/77 
f 123/155/62 67/99/23 124/156/63 
f 124/156/63 125/157/64 123/155/62 
f 126/158/65 127/159/66 95/127/51 
f 95/127/51 128/160/67 126/158/65 
f 92/124/48 129/161/68 130/162/69 
f 130/162/69 131/163/70 92/124/48 
f 132/164/71 133/165/72 81/113/37 
f 81/113/37 134/166/73 132/164/71 
f 135/167/74 74/106/30 136/168/75 
f 136/168/75 137/169/76 135/167/74 
f 138/170/77 94/126/50 139/171/78 
f 139/171/78 140/172/79 138/170/77 
f 28/60/24 141/173/80 142/174/81 
f 142/174/81 25/57/21 28/60/24 
f 26/58/22 143/175/82 106/138/63 
f 106/138/63 27/59/23 26/58/22 
f 27/59/23 105/137/62 109/141/66 
f 109/141/66 28/60/24 27/59/23 
f 30/62/26 29/61/25 111/143/68 
f 111/143/68 144/176/83 30/62/26 
f 145/177/84 29/61/25 32/64/28 
f 32/64/28 146/178/85 145/177/84 
f 34/66/30 33/65/29 147/179/86 
f 147/179/86 118/150/75 34/66/30 
f 34/66/30 117/149/74 148/180/87 
f 148/180/87 35/67/31 34/66/30 
f 149/181/88 36/68/32 35/67/31 
f 35/67/31 116/148/73 149/181/88 
f 40/72/36 39/71/35 150/182/89 
f 150/182/89 151/183/90 40/72/36 
f 152/184/91 37/69/33 40/72/36 
f 40/72/36 153/185/92 152/184/91 
f 42/74/38 41/73/37 115/147/72 
f 115/147/72 154/186/93 42/74/38 
f 155/187/94 45/77/41 48/80/44 
f 48/80/44 156/188/95 155/187/94 
f 49/81/45 52/84/48 113/145/70 
f 113/145/70 157/189/96 49/81/45 
f 53/85/49 158/190/97 121/153/78 
f 121/153/78 54/86/50 53/85/49 
f 110/142/67 55/87/51 54/86/50 
f 54/86/50 120/152/77 110/142/67 
f 68/100/24 159/191/80 160/192/81 
f 160/192/81 65/97/21 68/100/24 
f 66/98/22 161/193/82 124/156/63 
f 124/156/63 67/99/23 66/98/22 
f 67/99/23 123/155/62 127/159/66 
f 127/159/66 68/100/24 67/99/23 
f 70/102/26 69/101/25 129/161/68 
f 129/161/68 162/194/83 70/102/26 
f 163/195/84 69/101/25 72/104/28 
f 72/104/28 164/196/85 163/195/84 
f 74/106/30 73/105/29 165/197/86 
f 165/197/86 136/168/75 74/106/30 
f 74/106/30 135/167/74 166/198/87 
f 166/198/87 75/107/31 74/106/30 
f 167/199/88 76/108/32 75/107/31 
f 75/107/31 134/166/73 167/199/88 
f 80/112/36 79/111/35 168/200/89 
f 168/200/89 169/201/90 80/112/36 
f 170/202/91 77/109/33 80/112/36 
f 80/112/36 171/203/92 170/202/91 
f 82/114/38 81/113/37 133/165/72 
f 133/165/72 172/204/98 82/114/38 
f 173/205/94 85/117/41 88/120/44 
f 88/120/44 174/206/99 173/205/94 
f 89/121/45 92/124/48 131/163/70 
f 131/163/70 175/207/96 89/121/45 
f 93/125/49 176/208/97 139/171/78 
f 139/171/78 94/126/50 93/125/49 
f 128/160/67 95/127/51 94/126/50 
f 94/126/50 138/170/77 128/160/67 
f 157/189/96 107/139/64 106/138/63 
f 106/138/63 49/81/45 157/189/96 
f 107/139/64 157/189/96 56/88/52 
f 56/88/52 105/137/62 107/139/64 
f 141/173/80 108/140/65 110/142/67 
f 110/142/67 57/89/53 141/173/80 
f 109/141/66 108/140/65 141/173/80 
f 141/173/80 28/60/24 109/141/66 
f 112/144/69 111/143/68 29/61/25 
f 29/61/25 145/177/84 112/144/69 
f 154/186/93 112/144/69 145/177/84 
f 145/177/84 42/74/38 154/186/93 
f 158/190/97 112/144/69 154/186/93 
f 154/186/93 63/95/59 158/190/97 
f 113/145/70 112/144/69 158/190/97 
f 158/190/97 53/85/49 113/145/70 
f 148/180/87 114/146/71 116/148/73 
f 116/148/73 35/67/31 148/180/87 
f 114/146/71 148/180/87 64/96/60 
f 64/96/60 115/147/72 114/146/71 
f 119/151/76 118/150/75 37/69/33 
f 37/69/33 152/184/91 119/151/76 
f 119/151/76 152/184/91 61/93/57 
f 61/93/57 117/149/74 119/151/76 
f 121/153/78 62/94/58 153/185/92 
f 153/185/92 122/154/79 121/153/78 
f 151/183/90 122/154/79 153/185/92 
f 153/185/92 40/72/36 151/183/90 
f 45/77/41 155/187/94 122/154/79 
f 122/154/79 151/183/90 45/77/41 
f 122/154/79 155/187/94 58/90/54 
f 58/90/54 120/152/77 122/154/79 
f 175/207/96 125/157/64 124/156/63 
f 124/156/63 89/121/45 175/207/96 
f 125/157/64 175/207/96 96/128/52 
f 96/128/52 123/155/62 125/157/64 
f 159/191/80 126/158/65 128/160/67 
f 128/160/67 97/129/53 159/191/80 
f 127/159/66 126/158/65 159/191/80 
f 159/191/80 68/100/24 127/159/66 
f 130/162/69 129/161/68 69/101/25 
f 69/101/25 163/195/84 130/162/69 
f 172/204/98 130/162/69 163/195/84 
f 163/195/84 82/114/38 172/204/98 
f 176/208/97 130/162/69 172/204/98 
f 172/204/98 103/135/59 176/208/97 
f 131/163/70 130/162/69 176/208/97 
f 176/208/97 93/125/49 131/163/70 
f 166/198/87 132/164/71 134/166/73 
f 134/166/73 75/107/31 166/198/87 
f 132/164/71 166/198/87 104/136/60 
f 104/136/60 133/165/72 132/164/71 
f 137/169/76 136/168/75 77/109/33 
f 77/109/33 170/202/91 137/169/76 
f 137/169/76 170/202/91 101/133/57 
f 101/133/57 135/167/74 137/169/76 
f 139/171/78 102/134/58 171/203/92 
f 171/203/92 140/172/79 139/171/78 
f 169/201/90 140/172/79 171/203/92 
f 171/203/92 80/112/36 169/201/90 
f 85/117/41 173/205/94 140/172/79 
f 140/172/79 169/201/90 85/117/41 
f 140/172/79 173/205/94 98/130/54 
f 98/130/54 138/170/77 140/172/79 
f 141/173/80 57/89/53 60/92/56 
f 60/92/56 142/174/81 141/173/80 
f 143/175/82 50/82/46 49/81/45 
f 49/81/45 106/138/63 143/175/82 
f 105/137/62 56/88/52 55/87/51 
f 55/87/51 109/141/66 105/137/62 
f 144/176/83 111/143/68 52/84/48 
f 52/84/48 51/83/47 144/176/83 
f 42/74/38 145/177/84 146/178/85 
f 146/178/85 43/75/39 42/74/38 
f 118/150/75 147/179/86 38/70/34 
f 38/70/34 37/69/33 118/150/75 
f 117/149/74 61/93/57 64/96/60 
f 64/96/60 148/180/87 117/149/74 
f 44/76/40 149/181/88 116/148/73 
f 116/148/73 41/73/37 44/76/40 
f 151/183/90 150/182/89 46/78/42 
f 46/78/42 45/77/41 151/183/90 
f 152/184/91 153/185/92 62/94/58 
f 62/94/58 61/93/57 152/184/91 
f 115/147/72 64/96/60 63/95/59 
f 63/95/59 154/186/93 115/147/72 
f 58/90/54 155/187/94 156/188/95 
f 156/188/95 59/91/55 58/90/54 
f 157/189/96 113/145/70 53/85/49 
f 53/85/49 56/88/52 157/189/96 
f 158/190/97 63/95/59 62/94/58 
f 62/94/58 121/153/78 158/190/97 
f 57/89/53 110/142/67 120/152/77 
f 120/152/77 58/90/54 57/89/53 
f 159/191/80 97/129/53 100/132/56 
f 100/132/56 160/192/81 159/191/80 
f 161/193/82 90/122/46 89/121/45 
f 89/121/45 124/156/63 161/193/82 
f 123/155/62 96/128/52 95/127/51 
f 95/127/51 127/159/66 123/155/62 
f 162/194/83 129/161/68 92/124/48 
f 92/124/48 91/123/47 162/194/83 
f 82/114/38 163/195/84 164/196/85 
f 164/196/85 83/115/39 82/114/38 
f 136/168/75 165/197/86 78/110/34 
f 78/110/34 77/109/33 136/168/75 
f 135/167/74 101/133/57 104/136/60 
f 104/136/60 166/198/87 135/167/74 
f 84/116/40 167/199/88 134/166/73 
f 134/166/73 81/113/37 84/116/40 
f 169/201/90 168/200/89 86/118/61 
f 86/118/61 85/117/41 169/201/90 
f 170/202/91 171/203/92 102/134/58 
f 102/134/58 101/133/57 170/202/91 
f 133/165/72 104/136/60 103/135/59 
f 103/135/59 172/204/98 133/165/72 
f 98/130/54 173/205/94 174/206/99 
f 174/206/99 99/131/55 98/130/54 
f 175/207/96 131/163/70 93/125/49 
f 93/125/49 96/128/52 175/207/96 
f 176/208/97 103/135/59 102/134/58 
f 102/134/58 139/171/78 176/208/97 
f 97/129/53 128/160/67 138/170/77 
f 138/170/77 98/130/54 97/129/53 
# 292 faces

