# 3ds Max Wavefront OBJ Exporter v0.97b - (c)2007 guruware
# File Created: 11.10.2014 13:01:27

mtllib SM_ElevatorDoor_E_Texture.mtl

#
# object SM_ElevatorDoor_E_Texture
#

v  -69.7472 71.5655 9.9999
v  -30.5951 138.2154 9.9999
v  -198.0172 138.2154 9.9999
v  -198.0172 71.5655 9.9999
v  -198.0172 138.2154 -10.0000
v  -30.5951 138.2154 -10.0000
v  -69.7472 71.5655 -10.0000
v  -198.0172 71.5655 -10.0000
v  -69.5933 0.0000 9.9999
v  -198.0172 0.0000 9.9999
v  -198.0172 245.0000 -10.0000
v  -80.2240 245.0000 -10.0000
v  -69.7491 228.4826 -10.0000
v  -69.5933 0.0000 -10.0000
v  -198.0172 0.0000 -10.0000
v  -198.0172 250.0000 9.9999
v  -198.0172 245.0000 9.9999
v  -80.2240 245.0000 9.9999
v  -80.0171 250.0000 9.9999
v  -80.0171 250.0000 -10.0000
v  -198.0172 250.0000 -10.0000
v  -69.7491 228.4826 9.9999
v  -67.5931 230.0000 8.0000
v  -28.4412 230.0000 8.0000
v  -28.4412 230.0000 -8.0000
v  -67.5931 230.0000 -8.0000
v  -78.0171 245.0000 -8.0000
v  -78.0171 245.0000 8.0000
v  -78.0171 250.0000 -8.0000
v  -78.0171 250.0000 8.0000
v  -30.4412 228.0000 -10.0000
v  -28.4412 138.2154 -8.0000
v  -28.4412 138.2154 8.0000
v  -67.5931 71.5655 8.0000
v  -67.5931 71.5655 -8.0000
v  -67.5931 0.0000 8.0000
v  -67.5931 0.0000 -8.0000
v  -30.4412 228.0000 9.9999
v  197.6761 138.2153 -10.0000
v  69.4063 138.2153 -10.0000
v  69.4592 230.0000 -10.0000
v  197.6761 230.0000 -10.0000
v  197.6761 -0.0000 -10.0000
v  30.1002 -0.0000 -10.0000
v  30.2542 71.5655 -10.0000
v  197.6761 71.5655 -10.0000
v  197.6761 230.0000 9.9999
v  69.4592 230.0000 9.9999
v  69.4063 138.2153 9.9999
v  197.6761 138.2153 9.9999
v  197.6761 250.0000 -10.0000
v  197.6761 245.0000 -10.0000
v  79.8831 245.0000 -10.0000
v  79.6761 250.0000 -10.0000
v  197.6761 250.0000 9.9999
v  79.6761 250.0000 9.9999
v  79.8831 245.0000 9.9999
v  197.6761 245.0000 9.9999
v  197.6761 -0.0000 9.9999
v  197.6761 71.5655 9.9999
v  30.2542 71.5655 9.9999
v  30.1002 -0.0000 9.9999
v  77.6760 250.0000 -8.0000
v  77.6760 245.0000 -8.0000
v  77.6760 245.0000 8.0000
v  77.6760 250.0000 8.0000
v  67.2522 230.0000 -8.0000
v  67.2522 230.0000 8.0000
v  67.2522 138.2153 -8.0000
v  67.2522 138.2153 8.0000
v  28.1002 71.5655 -8.0000
v  28.1002 71.5655 8.0000
v  28.1002 -0.0000 -8.0000
v  28.1002 -0.0000 8.0000
# 74 vertices

vn 0.3106 -0.0744 0.9476
vn 0.4128 -0.1289 0.9016
vn 0.0000 0.0000 1.0000
vn 0.0000 0.0000 -1.0000
vn 0.4129 -0.1289 -0.9016
vn 0.3106 -0.0744 -0.9476
vn 0.3744 0.0004 0.9273
vn 0.2848 0.0678 -0.9562
vn 0.1416 0.2011 -0.9693
vn 0.3744 0.0004 -0.9273
vn 0.2848 0.0678 0.9562
vn 0.3793 -0.0079 0.9252
vn 0.3793 -0.0079 -0.9252
vn 0.1416 0.2011 0.9693
vn 0.3701 0.8088 0.4570
vn 0.6467 0.6603 0.3818
vn 0.6467 0.6603 -0.3818
vn 0.3701 0.8088 -0.4570
vn 0.8534 0.2722 -0.4446
vn 0.8534 0.2722 0.4446
vn 0.9190 -0.0078 -0.3943
vn 0.9190 -0.0078 0.3943
vn 0.2987 0.3185 -0.8996
vn 0.9005 -0.2339 -0.3667
vn 0.9004 -0.2339 0.3667
vn 0.8759 -0.2535 0.4105
vn 0.8759 -0.2535 -0.4105
vn 0.9202 0.0004 0.3914
vn 0.9202 0.0004 -0.3914
vn 0.2987 0.3185 0.8996
vn -0.3054 0.0744 -0.9493
vn -0.4078 0.1517 -0.9004
vn -0.3744 0.0004 -0.9273
vn -0.4128 0.1290 -0.9017
vn -0.4078 0.1517 0.9004
vn -0.3054 0.0744 0.9493
vn -0.2943 0.0769 -0.9526
vn -0.3793 -0.0079 -0.9252
vn -0.3793 -0.0079 0.9252
vn -0.2943 0.0769 0.9526
vn -0.4128 0.1290 0.9017
vn -0.3744 0.0004 0.9273
vn -0.9190 -0.0078 -0.3943
vn -0.8629 0.2879 -0.4154
vn -0.8629 0.2879 0.4154
vn -0.9190 -0.0078 0.3943
vn -0.8901 0.2656 -0.3704
vn -0.8901 0.2656 0.3704
vn -0.8732 0.2543 -0.4158
vn -0.8732 0.2543 0.4158
vn -0.9004 0.2340 -0.3667
vn -0.9004 0.2340 0.3668
vn -0.9202 0.0004 -0.3914
vn -0.9202 0.0004 0.3914
# 54 vertex normals

vt 0.4100 0.2289 0.0000
vt 0.5351 0.4418 0.0000
vt 0.0003 0.4421 0.0000
vt 0.0002 0.2292 0.0000
vt 0.4102 0.0001 0.0000
vt 0.0000 0.0006 0.0000
vt 0.0003 0.7831 0.0000
vt 0.3766 0.7833 0.0000
vt 0.4104 0.7301 0.0000
vt 0.0002 0.7991 0.0000
vt 0.3769 0.7995 0.0000
vt 0.1063 0.8125 0.0000
vt 0.2313 0.8125 0.0000
vt 0.2313 0.8636 0.0000
vt 0.1063 0.8636 0.0000
vt 0.0479 0.8636 0.0000
vt 0.0479 0.8125 0.0000
vt 0.0319 0.8636 0.0000
vt 0.0319 0.8125 0.0000
vt 0.5358 0.7280 0.0000
vt 0.5245 0.8636 0.0000
vt 0.5245 0.8125 0.0000
vt 0.7714 0.8125 0.0000
vt 0.7714 0.8636 0.0000
vt 1.0000 0.8125 0.0000
vt 1.0000 0.8636 0.0000
vt 0.4193 0.2282 0.0000
vt 0.5444 0.4412 0.0000
vt 0.4192 0.0000 0.0000
vt 0.3860 0.7843 0.0000
vt 0.4183 0.7370 0.0000
vt 0.5436 0.7355 0.0000
vt 0.3857 0.7999 0.0000
vt 0.9999 0.4415 0.0000
vt 0.5902 0.4415 0.0000
vt 0.5904 0.7346 0.0000
vt 0.9999 0.7347 0.0000
vt 1.0000 0.0000 0.0000
vt 0.4647 0.0001 0.0000
vt 0.4652 0.2285 0.0000
vt 1.0000 0.2286 0.0000
vt 1.0000 0.7985 0.0000
vt 1.0000 0.7826 0.0000
vt 0.6236 0.7827 0.0000
vt 0.6233 0.7988 0.0000
vt 0.1570 0.8750 0.0000
vt 0.1730 0.8750 0.0000
vt 0.1730 0.9261 0.0000
vt 0.1570 0.9261 0.0000
vt 0.2313 0.8750 0.0000
vt 0.2313 0.9261 0.0000
vt 0.5245 0.8750 0.0000
vt 0.5245 0.9261 0.0000
vt 0.7714 0.8750 0.0000
vt 0.7714 0.9261 0.0000
vt 1.0000 0.8750 0.0000
vt 1.0000 0.9261 0.0000
vt 0.5808 0.4422 0.0000
vt 0.5810 0.7354 0.0000
vt 0.4556 0.0002 0.0000
vt 0.4559 0.2292 0.0000
vt 0.6140 0.7836 0.0000
vt 0.6145 0.7992 0.0000
# 63 texture coords

g SM_ElevatorDoor_E_Texture
usemtl Test
s 1
f 1/1/1 2/2/2 3/3/3 
f 3/3/3 4/4/3 1/1/1 
f 5/3/4 6/2/5 7/1/6 
f 7/1/6 8/4/4 5/3/4 
f 9/5/7 1/1/1 4/4/3 
f 4/4/3 10/6/3 9/5/7 
f 11/7/4 12/8/8 13/9/9 
f 13/9/9 5/3/4 11/7/4 
f 14/5/10 15/6/4 8/4/4 
f 8/4/4 7/1/6 14/5/10 
f 16/10/3 17/7/3 18/8/11 
f 18/8/11 19/11/12 16/10/3 
f 20/11/13 12/8/8 11/7/4 
f 11/7/4 21/10/4 20/11/13 
f 17/7/3 3/3/3 22/9/14 
f 22/9/14 18/8/11 17/7/3 
f 23/12/15 24/13/16 25/14/17 
f 25/14/17 26/15/18 23/12/15 
f 23/12/15 26/15/18 27/16/19 
f 27/16/19 28/17/20 23/12/15 
f 29/18/21 30/19/22 28/17/20 
f 28/17/20 27/16/19 29/18/21 
f 13/9/9 31/20/23 6/2/5 
f 6/2/5 5/3/4 13/9/9 
f 32/21/24 33/22/25 34/23/26 
f 34/23/26 35/24/27 32/21/24 
f 36/25/28 37/26/29 35/24/27 
f 35/24/27 34/23/26 36/25/28 
f 34/27/26 33/28/25 2/2/2 
f 2/2/2 1/1/1 34/27/26 
f 6/2/5 32/28/24 35/27/27 
f 35/27/27 7/1/6 6/2/5 
f 9/5/7 36/29/28 34/27/26 
f 34/27/26 1/1/1 9/5/7 
f 27/30/19 26/31/18 13/9/9 
f 13/9/9 12/8/8 27/30/19 
f 37/29/29 14/5/10 7/1/6 
f 7/1/6 35/27/27 37/29/29 
f 38/20/30 24/32/16 23/31/15 
f 23/31/15 22/9/14 38/20/30 
f 28/30/20 30/33/22 19/11/12 
f 19/11/12 18/8/11 28/30/20 
f 20/11/13 29/33/21 27/30/19 
f 27/30/19 12/8/8 20/11/13 
f 22/9/14 23/31/15 28/30/20 
f 28/30/20 18/8/11 22/9/14 
f 26/31/18 25/32/17 31/20/23 
f 31/20/23 13/9/9 26/31/18 
f 2/2/2 38/20/30 22/9/14 
f 22/9/14 3/3/3 2/2/2 
f 25/14/17 24/13/16 33/22/25 
f 33/22/25 32/21/24 25/14/17 
f 33/28/25 24/32/16 38/20/30 
f 38/20/30 2/2/2 33/28/25 
f 31/20/23 25/32/17 32/28/24 
f 32/28/24 6/2/5 31/20/23 
f 39/34/4 40/35/31 41/36/32 
f 41/36/32 42/37/4 39/34/4 
f 43/38/4 44/39/33 45/40/34 
f 45/40/34 46/41/4 43/38/4 
f 47/37/3 48/36/35 49/35/36 
f 49/35/36 50/34/3 47/37/3 
f 51/42/4 52/43/4 53/44/37 
f 53/44/37 54/45/38 51/42/4 
f 55/42/3 56/45/39 57/44/40 
f 57/44/40 58/43/3 55/42/3 
f 46/41/4 45/40/34 40/35/31 
f 40/35/31 39/34/4 46/41/4 
f 59/38/3 60/41/3 61/40/41 
f 61/40/41 62/39/42 59/38/3 
f 42/37/4 41/36/32 53/44/37 
f 53/44/37 52/43/4 42/37/4 
f 47/37/3 58/43/3 57/44/40 
f 57/44/40 48/36/35 47/37/3 
f 63/46/43 64/47/44 65/48/45 
f 65/48/45 66/49/46 63/46/43 
f 65/48/45 64/47/44 67/50/47 
f 67/50/47 68/51/48 65/48/45 
f 60/41/3 50/34/3 49/35/36 
f 49/35/36 61/40/41 60/41/3 
f 68/51/48 67/50/47 69/52/49 
f 69/52/49 70/53/50 68/51/48 
f 70/53/50 69/52/49 71/54/51 
f 71/54/51 72/55/52 70/53/50 
f 73/56/53 74/57/54 72/55/52 
f 72/55/52 71/54/51 73/56/53 
f 69/58/49 67/59/47 41/36/32 
f 41/36/32 40/35/31 69/58/49 
f 44/39/33 73/60/53 71/61/51 
f 71/61/51 45/40/34 44/39/33 
f 68/59/48 70/58/50 49/35/36 
f 49/35/36 48/36/35 68/59/48 
f 64/62/44 63/63/43 54/45/38 
f 54/45/38 53/44/37 64/62/44 
f 56/45/39 66/63/46 65/62/45 
f 65/62/45 57/44/40 56/45/39 
f 45/40/34 71/61/51 69/58/49 
f 69/58/49 40/35/31 45/40/34 
f 74/60/54 62/39/42 61/40/41 
f 61/40/41 72/61/52 74/60/54 
f 41/36/32 67/59/47 64/62/44 
f 64/62/44 53/44/37 41/36/32 
f 65/62/45 68/59/48 48/36/35 
f 48/36/35 57/44/40 65/62/45 
f 70/58/50 72/61/52 61/40/41 
f 61/40/41 49/35/36 70/58/50 
# 106 faces

